<svg width="272" height="212" viewBox="0 0 272 212" fill="none" xmlns="http://www.w3.org/2000/svg">
<path fill-rule="evenodd" clip-rule="evenodd" d="M27.1412 24.183H138.174C155.212 24.183 169.024 37.995 169.024 55.033V55.037C169.024 72.075 182.836 85.887 199.874 85.887H216.511C244.462 85.887 267.121 108.545 267.121 136.496V136.503C267.121 164.454 244.462 187.113 216.511 187.113H46.0152C26.6882 187.113 11.0202 171.445 11.0202 152.118C11.0202 132.79 26.6882 117.122 46.0152 117.122H50.3572C68.6102 117.122 83.4072 102.326 83.4072 84.073V84.069C83.4072 65.816 68.6102 51.019 50.3572 51.019H27.1412C19.7302 51.019 13.7232 45.011 13.7232 37.601C13.7232 30.19 19.7302 24.183 27.1412 24.183" fill="#141414" fill-opacity="0.3"/>
<path fill-rule="evenodd" clip-rule="evenodd" d="M157.694 91.8471C157.536 91.6941 157.38 91.5541 157.222 91.4061C156.655 91.1461 154.005 90.0411 149.635 89.9071C149.013 89.8891 148.333 89.8941 147.606 89.9231C150.42 93.1381 152.697 96.8301 154.3 100.864C157.212 99.4781 158.361 98.0161 158.793 96.9411C159.801 94.4311 157.9 92.0891 157.694 91.8471" fill="#131416"/>
<path fill-rule="evenodd" clip-rule="evenodd" d="M82.0513 107.991C83.3353 100.934 86.5773 94.5526 91.2043 89.4416C91.2373 89.3726 91.2543 89.2956 91.3033 89.2336C91.5553 88.9156 97.6043 81.4086 108.965 77.6756C110.686 77.1096 112.403 76.6766 114.111 76.3556C113.711 74.3776 113.703 72.2336 114.677 70.3956C116.087 67.7346 119.197 66.3026 123.919 66.1396C129.016 65.9566 132.686 67.2736 134.8 70.0346C136.795 72.6406 136.918 75.9156 136.683 78.1786C139.768 79.1816 142.737 80.4306 145.555 81.8326C145.572 81.5536 145.586 81.2756 145.593 80.9996C145.891 69.3596 138.721 59.5006 127.751 56.4666C125.02 55.7106 122.369 55.3336 119.803 55.3336C112.904 55.3336 106.621 58.0596 101.049 63.4876C95.2733 69.1136 92.4643 75.6856 92.4373 75.7516C92.3463 75.9676 92.1823 76.1436 91.9743 76.2516C91.9253 76.2776 86.9483 78.8816 82.6943 83.2596C77.1393 88.9736 75.3683 94.8756 77.4293 100.803C78.4903 103.852 79.9683 106.234 82.0513 107.991" fill="#1C1E21"/>
<path fill-rule="evenodd" clip-rule="evenodd" d="M134.724 77.5765C134.867 75.6905 134.689 73.1745 133.205 71.2425C131.615 69.1715 128.795 68.1235 124.817 68.1235C124.545 68.1235 124.27 68.1285 123.988 68.1385C120.033 68.2745 117.495 69.3485 116.444 71.3325C115.732 72.6775 115.754 74.3775 116.098 76.0325C122.534 75.1585 128.821 75.8895 134.724 77.5765Z" fill="#131416"/>
<path fill-rule="evenodd" clip-rule="evenodd" d="M154.963 114.766C154.963 105.223 151.198 96.547 145.086 90.127C140.701 90.644 134.974 92.162 128.207 95.888C125.902 97.158 122.931 97.658 119.679 97.658C109.169 97.658 95.7394 92.437 92.4294 91.08C86.8364 97.395 83.4304 105.688 83.4304 114.766C83.4304 134.488 99.4754 150.533 119.196 150.533C138.918 150.533 154.963 134.488 154.963 114.766" fill="#26282C"/>
<path fill-rule="evenodd" clip-rule="evenodd" d="M114.894 78.2562C114.553 78.3202 114.213 78.3872 113.878 78.4582C113.87 78.4602 113.862 78.4622 113.854 78.4642C111.973 78.8642 110.202 79.3712 108.54 79.9432C100.787 82.7472 95.7286 87.4153 93.7776 89.4633C99.0206 91.5413 118.756 98.8092 127.243 94.1362C138.581 87.8922 147.242 87.4152 152.501 88.1092C139.362 79.5732 126.54 76.2252 114.894 78.2562" fill="#1C1E21"/>
<path fill-rule="evenodd" clip-rule="evenodd" d="M85.6348 180.591C87.0798 181.193 88.0538 182.615 88.0538 184.196C88.0538 186.356 86.2978 188.112 84.1378 188.112C83.0018 188.112 81.9478 187.615 81.2208 186.796C80.4938 187.615 79.4398 188.112 78.3038 188.112C76.1448 188.112 74.3878 186.356 74.3878 184.196C74.3878 182.613 75.3618 181.191 76.8058 180.59C77.5988 179.225 79.3088 178.335 81.2208 178.335C83.1328 178.335 84.8418 179.225 85.6348 180.591V180.591ZM67.6098 174.502C56.8868 174.502 56.8868 169.051 56.8868 163.779C56.8868 157.867 61.6978 153.057 67.6098 153.057C73.5218 153.057 78.3318 157.867 78.3318 163.779C78.3318 169.051 78.3318 174.502 67.6098 174.502ZM92.2738 141.344C91.0118 141.344 89.7768 141.131 88.6148 140.731C82.6978 144.998 75.4448 147.522 67.6098 147.522C64.6518 147.522 61.7798 147.155 59.0278 146.48C54.0188 151.759 51.1098 159.084 51.1098 167.669C51.1098 177.796 51.1098 185.945 59.9518 190.366C61.6608 191.222 62.7758 192.934 62.7758 194.846V200.509C62.7758 203.031 64.6148 205.289 67.1258 205.534C70.0078 205.816 72.4428 203.549 72.4428 200.725V194.59C72.4428 194.311 72.5598 194.043 72.7658 193.854C72.9718 193.664 73.2498 193.563 73.5268 193.594C74.1468 193.646 74.7878 193.69 75.4398 193.729C75.9688 193.76 76.3868 194.196 76.3868 194.727V200.51C76.3868 203.032 78.2268 205.289 80.7378 205.534C83.6178 205.816 86.0538 203.549 86.0538 200.725V194.727C86.0538 194.195 86.4738 193.76 87.0038 193.728C87.6568 193.69 88.2958 193.646 88.9148 193.594C88.9428 193.591 88.9698 193.59 88.9978 193.59C89.2478 193.59 89.4898 193.684 89.6748 193.854C89.8808 194.043 89.9978 194.311 89.9978 194.59V200.509C89.9978 203.031 91.8378 205.289 94.3478 205.534C97.2298 205.816 99.6648 203.549 99.6648 200.725V194.849C99.6648 192.926 100.794 191.218 102.512 190.356C105.673 188.77 107.7 186.706 109.001 184.245C104.947 181.612 101.448 178.192 98.7368 174.192C97.6238 174.391 96.3368 174.502 94.8318 174.502C84.1098 174.502 84.1098 169.051 84.1098 163.779C84.1098 158.643 87.7428 154.341 92.5728 153.301C92.6458 149.75 93.2288 146.324 94.2618 143.095C93.6188 142.528 92.9918 141.945 92.3888 141.337C92.3508 141.337 92.3118 141.344 92.2738 141.344" fill="#131416"/>
<path fill-rule="evenodd" clip-rule="evenodd" d="M78.4429 181.781C78.3259 182.065 78.0849 182.28 77.7889 182.363C76.9639 182.594 76.3879 183.349 76.3879 184.197C76.3879 185.254 77.2479 186.113 78.3039 186.113C79.1099 186.113 79.8329 185.596 80.1019 184.827C80.2469 184.414 80.6459 184.102 81.0789 184.158C81.0989 184.158 81.1959 184.165 81.2159 184.167C81.2359 184.165 81.3429 184.158 81.3629 184.158C81.3749 184.157 81.3849 184.157 81.3969 184.157C81.8199 184.157 82.1989 184.425 82.3399 184.827C82.6099 185.596 83.3319 186.113 84.1379 186.113C85.1939 186.113 86.0539 185.254 86.0539 184.197C86.0539 183.35 85.4769 182.596 84.6499 182.362C84.3549 182.279 84.1139 182.065 83.9969 181.781C83.6459 180.93 82.5049 180.336 81.2209 180.336C79.9359 180.336 78.7939 180.93 78.4429 181.781" fill="#1C1E21"/>
<path fill-rule="evenodd" clip-rule="evenodd" d="M155.108 103.092C156.034 102.417 156.992 101.786 157.981 101.201C157.893 101.196 157.805 101.19 157.717 101.183C156.942 101.746 156.034 102.27 154.993 102.753C155.031 102.866 155.071 102.978 155.108 103.092V103.092ZM159.803 83.8305C159.803 82.6935 160.722 81.7755 161.859 81.7755H163.914C165.051 81.7755 165.97 82.6935 165.97 83.8305C165.97 84.9675 165.051 85.8875 163.914 85.8875H161.859C160.722 85.8875 159.803 84.9675 159.803 83.8305C159.803 84.9675 158.882 85.8875 157.748 85.8875H155.692C154.557 85.8875 153.636 84.9675 153.636 83.8305C153.636 82.6935 154.557 81.7755 155.692 81.7755H157.748C158.882 81.7755 159.803 82.6935 159.803 83.8305ZM162.914 67.3865C162.914 64.5675 165.207 62.2745 168.026 62.2745C170.844 62.2745 173.136 64.5675 173.136 67.3865V73.5535C173.136 76.3715 170.844 78.6645 168.026 78.6645C165.207 78.6645 162.914 76.3715 162.914 73.5535V67.3865ZM146.47 72.4025V67.3865C146.47 64.5675 148.762 62.2745 151.581 62.2745C154.399 62.2745 156.692 64.5675 156.692 67.3865V73.5535C156.692 76.3715 154.399 78.6645 151.581 78.6645C149.812 78.6645 148.253 77.7615 147.335 76.3925C147.544 77.9075 147.634 79.4635 147.593 81.0515C147.578 81.6385 147.539 82.2325 147.486 82.8305C147.8 82.9985 148.114 83.1665 148.423 83.3375C151.794 84.6055 155.407 86.8185 159.121 90.4435C159.137 90.4595 159.153 90.4765 159.167 90.4925C159.196 90.5235 159.37 90.7265 159.6 91.0535H172.626C172.743 91.0535 172.861 91.0735 172.971 91.1145L173.709 91.3865C173.745 91.3985 173.78 91.4145 173.814 91.4325L174.943 92.0015C175.258 92.1605 175.466 92.4745 175.49 92.8255L175.586 94.2355C175.587 94.9515 175.311 95.6185 174.855 96.2405C175.317 96.2235 175.78 96.2055 176.247 96.2055C176.714 96.2055 177.176 96.2235 177.638 96.2405C181.374 90.9395 183.47 83.5705 183.47 74.7095C183.47 63.7455 181.419 56.6335 178.252 52.0425C176.975 53.3395 175.476 54.5545 173.708 55.6155C173.228 55.9015 172.686 56.0525 172.139 56.0525C171.792 56.0525 171.446 55.9905 171.115 55.8725C170.789 55.9905 170.441 56.0525 170.083 56.0525C168.918 56.0525 167.87 55.4045 167.347 54.3635C166.97 53.6065 166.924 52.7425 167.204 51.9655C167.196 51.9435 167.189 51.9215 167.181 51.8985C166.651 50.3095 167.516 48.5765 169.112 48.0415C169.108 48.0415 170.033 47.6215 171.502 46.2035C167.821 44.4215 163.711 43.9755 159.803 43.9755C155.969 43.9755 151.94 44.4015 148.313 46.1005C149.8 47.6375 150.691 48.0835 150.711 48.0935C152.184 48.6585 152.94 50.3505 152.39 51.9335C152.682 52.7195 152.641 53.5945 152.261 54.3605C151.737 55.4045 150.689 56.0525 149.523 56.0525C149.174 56.0525 148.824 55.9905 148.493 55.8715C147.638 56.1795 146.675 56.0825 145.898 55.6165C144.129 54.5555 142.63 53.3405 141.354 52.0435C139.987 54.0235 138.833 56.4825 137.957 59.5115C142.009 62.8125 144.964 67.2775 146.47 72.4025V72.4025Z" fill="#212326"/>
<path fill-rule="evenodd" clip-rule="evenodd" d="M146.925 53.9008C147.25 54.0958 147.653 54.1048 148 53.9048C148.154 53.8168 148.325 53.7728 148.497 53.7728C148.65 53.7728 148.803 53.8078 148.944 53.8788C148.966 53.8888 149.044 53.9328 149.065 53.9458C149.535 54.1798 150.217 53.9708 150.47 53.4668C150.63 53.1468 150.616 52.7668 150.431 52.4538C150.249 52.1448 150.246 51.7628 150.423 51.4518C150.453 51.3998 150.477 51.3438 150.498 51.2848C150.697 50.7278 150.453 50.1348 149.94 49.9378C149.901 49.9228 144.879 47.9248 138.389 34.2198C138.298 34.1458 138.202 34.0528 138.119 33.9268C138.082 33.8718 138.03 33.7988 137.977 33.7458C137.916 33.6848 137.817 33.6198 137.702 33.5618C137.63 33.5488 137.569 33.5358 137.513 33.5188C137.446 33.4988 137.318 33.4578 137.238 33.4498C137.174 33.4658 137.118 33.4788 137.062 33.4868L136.869 33.5058L136.865 33.4968C136.851 33.5038 136.836 33.5088 136.822 33.5148V33.5158L136.658 33.6278C136.65 33.6328 136.562 33.6848 136.554 33.6898C136.523 33.7088 136.491 33.7248 136.463 33.7468L136.369 33.8878C136.304 33.9738 136.27 34.0118 136.246 34.0568C136.243 34.0688 136.213 34.2078 136.21 34.2178C136.184 34.3088 136.157 34.4038 136.155 34.4448C136.153 34.4838 136.146 34.5358 136.137 34.5868C136.155 35.8358 136.608 47.7098 146.925 53.9008V53.9008ZM169.82 49.9105C169.196 50.1225 168.897 50.7225 169.081 51.2735C169.106 51.3485 169.131 51.4065 169.159 51.4535C169.346 51.7655 169.349 52.1545 169.166 52.4705C168.988 52.7765 168.977 53.1495 169.136 53.4695C169.388 53.9725 170.03 54.2015 170.554 53.9385C170.578 53.9225 170.627 53.8945 170.68 53.8695C170.816 53.8055 170.963 53.7725 171.109 53.7725C171.281 53.7725 171.452 53.8165 171.606 53.9045C171.949 54.1015 172.352 54.0965 172.682 53.8985C182.965 47.7275 183.448 35.9095 183.469 34.5965C183.461 34.5525 183.454 34.5035 183.451 34.4485V34.4465C183.448 34.3955 183.418 34.2915 183.401 34.2355L183.361 34.0805C183.342 34.0235 183.314 33.9915 183.287 33.9575L183.154 33.7755C183.121 33.7295 183.09 33.7135 183.059 33.6945C183.054 33.6915 182.967 33.6385 182.962 33.6355L182.844 33.5585C182.815 33.5475 182.777 33.5275 182.737 33.5055L182.563 33.4885C182.492 33.4775 182.43 33.4645 182.37 33.4485C182.299 33.4515 182.176 33.4895 182.077 33.5215C182.046 33.5325 181.982 33.5485 181.927 33.5605C181.719 33.6635 181.543 33.8485 181.446 34.0765C175.888 47.0425 170.425 49.6545 169.82 49.9105" fill="#1C1E21"/>
<path fill-rule="evenodd" clip-rule="evenodd" d="M160.649 97.6859C160.426 98.2409 160.112 98.7679 159.726 99.2739C159.752 99.2739 159.777 99.2759 159.803 99.2759C160.516 99.2759 161.235 99.2369 161.95 99.1739C164.921 97.8829 168.1 96.9859 171.42 96.5389C172.759 95.7909 173.588 94.9989 173.588 94.3039L173.534 93.5309L172.964 93.2439L172.447 93.0529H171.837C172.023 93.3629 172.136 93.7209 172.136 94.1089C172.136 95.2459 171.217 96.1649 170.081 96.1649C168.944 96.1649 168.025 95.2459 168.025 94.1089C168.025 93.7209 168.139 93.3629 168.325 93.0529H165.67C165.856 93.3629 165.97 93.7209 165.97 94.1089V96.1649C165.97 97.3009 165.051 98.2199 163.914 98.2199C162.777 98.2199 161.858 97.3009 161.858 96.1649V94.1089C161.858 93.7209 161.972 93.3629 162.158 93.0529H160.648C161.113 94.3229 161.347 95.9489 160.649 97.6859" fill="#212326"/>
<path fill-rule="evenodd" clip-rule="evenodd" d="M126.142 54.0199C126.144 52.3459 126.144 50.5949 126.144 48.7349C126.144 35.1329 120.888 25.3879 113.867 19.1199H70.4097C62.7127 26.5209 58.7077 37.2749 58.2457 45.9529C58.1917 46.9379 58.1657 47.8479 58.1657 48.7339C58.1657 49.4009 58.1617 50.1679 58.1567 51.0189C58.1227 56.9989 58.0567 68.9609 59.7557 76.3949C62.2857 75.8299 64.9117 75.5219 67.6097 75.5219C70.9317 75.5219 74.1467 75.9839 77.2027 76.8309C70.0357 70.8439 65.4467 60.8869 64.9597 49.7479C64.9577 49.7099 64.9587 49.6739 64.9607 49.6369C65.3157 44.2699 67.8817 42.1979 70.8527 39.7989C71.8637 38.9829 72.9097 38.1389 73.9537 37.0939L80.5147 30.5339C80.8397 30.2109 81.3427 30.1469 81.7357 30.3829C81.8437 30.4479 92.5387 36.8009 100.903 36.8009C109.29 36.8009 118.635 40.8929 119.333 49.8759C119.336 49.9179 119.337 49.9599 119.335 50.0029C119.278 51.1449 119.165 52.2689 119.024 53.3819C121.26 53.3099 123.627 53.4939 126.142 54.0199V54.0199ZM100.901 15.932C99.6924 15.932 98.7144 14.953 98.7144 13.745C98.7144 12.537 99.6924 11.558 100.901 11.558C102.11 11.558 103.088 12.537 103.088 13.745C103.088 14.953 102.11 15.932 100.901 15.932ZM92.1544 15.932C90.9474 15.932 89.9674 14.464 89.9674 12.652C89.9674 10.839 90.9474 9.37096 92.1544 9.37096C93.3634 9.37096 94.3404 10.839 94.3404 12.652C94.3404 14.464 93.3634 15.932 92.1544 15.932V15.932ZM83.4074 15.932C82.2004 15.932 81.2204 14.953 81.2204 13.745C81.2204 12.537 82.2004 11.558 83.4074 11.558C84.6144 11.558 85.5934 12.537 85.5934 13.745C85.5934 14.953 84.6144 15.932 83.4074 15.932ZM113.022 16.654L107.145 14.695C106.934 14.624 106.753 14.486 106.63 14.301L102.68 8.37596L96.8444 10.321C96.4844 10.442 96.0884 10.347 95.8204 10.079L92.1544 6.41296L88.4874 10.079C88.2204 10.347 87.8244 10.443 87.4644 10.321L81.6284 8.37596L77.6784 14.301C77.5554 14.486 77.3744 14.624 77.1634 14.695L71.2864 16.654V17.119H113.022V16.654ZM176.247 98.2055C168.538 98.2055 161.422 100.788 155.713 105.129C156.526 108.207 156.963 111.435 156.963 114.766C156.963 119.74 155.987 124.488 154.231 128.842C158.475 133.165 161.635 138.551 163.278 144.559H190.659C191.797 144.559 192.717 145.478 192.717 146.617C192.717 147.756 191.797 148.676 190.659 148.676H164.153C164.416 150.428 164.555 152.219 164.555 154.042C164.555 157.357 164.095 160.566 163.251 163.618C167.258 165.282 171.646 166.205 176.247 166.205C194.995 166.205 210.247 150.953 210.247 132.205C210.247 113.457 194.995 98.2055 176.247 98.2055Z" fill="#1C1E21"/>
<path fill-rule="evenodd" clip-rule="evenodd" d="M55.6671 95.0121C55.2861 95.0901 46.3881 97.0301 42.7561 106.111C42.4331 106.915 41.6611 107.404 40.8441 107.406C40.5881 107.406 40.3311 107.358 40.0801 107.257C39.0231 106.835 38.5111 105.637 38.9331 104.58C43.4131 93.3811 54.3891 91.0671 54.8521 90.9761C55.9721 90.7561 57.0531 91.4751 57.2751 92.5901C57.4981 93.7011 56.7771 94.7851 55.6671 95.0121ZM81.6691 110.567C81.1361 110.52 80.5671 110.492 79.9621 110.492C74.9381 110.492 72.3651 112.331 72.3401 112.35C71.9591 112.623 71.4431 112.614 71.0831 112.321C70.7201 112.029 70.5971 111.531 70.7861 111.104C70.8881 110.875 72.9211 106.428 77.0341 104.862C76.4711 103.82 75.9701 102.694 75.5411 101.458C72.5401 92.8321 77.3101 85.6571 82.3291 80.8761C77.8731 78.7271 72.8791 77.5221 67.6091 77.5221C48.8621 77.5221 33.6091 92.7741 33.6091 111.522C33.6091 114.989 34.1341 118.334 35.1031 121.489C38.6671 116.389 44.2581 110.37 47.1311 109.27C48.4861 107.257 51.1621 104.316 55.2561 104.316C61.3461 104.316 64.3091 110.826 64.4331 111.104C64.6221 111.533 64.5001 112.034 64.1341 112.326C63.9471 112.475 63.7181 112.551 63.4921 112.551C63.2771 112.551 63.0591 112.484 62.8781 112.348C62.8201 112.307 60.2511 110.492 55.2561 110.492C53.0351 110.492 51.2961 110.852 50.0411 111.254C50.9071 112.966 51.7391 115.53 52.4221 118.33C57.1441 119.184 61.5481 119.757 67.6091 119.757C73.1651 119.757 77.3281 119.276 81.6201 118.537C81.4961 117.297 81.4311 116.039 81.4311 114.766C81.4311 113.346 81.5161 111.947 81.6691 110.567V110.567ZM86.5289 139.756C84.7969 138.732 83.3339 137.254 82.3449 135.431C78.4759 138.358 73.4029 140.346 67.6099 140.346C61.7999 140.346 56.7169 138.347 52.8439 135.407C51.8589 137.234 50.3999 138.715 48.6699 139.744C54.0869 143.391 60.6029 145.522 67.6099 145.522C74.6069 145.522 81.1159 143.395 86.5289 139.756Z" fill="#212326"/>
<path fill-rule="evenodd" clip-rule="evenodd" d="M51.9136 132.337C53.2066 127.238 49.3256 112.886 47.7126 111.117C45.4506 111.9 35.1916 122.66 33.8976 127.762C33.2866 130.169 33.6486 132.669 34.9186 134.803C36.1876 136.937 38.2116 138.446 40.6176 139.056C45.5846 140.318 50.6516 137.304 51.9136 132.337V132.337ZM83.2637 132.337C84.1657 135.887 87.0127 138.428 90.3767 139.135C87.2177 135.404 84.7677 131.057 83.2387 126.299C82.9467 128.721 82.8987 130.898 83.2637 132.337Z" fill="#1C1E21"/>
<path fill-rule="evenodd" clip-rule="evenodd" d="M67.6094 172.502C58.8874 172.502 58.8874 169.219 58.8874 163.779C58.8874 158.97 62.7994 155.057 67.6094 155.057C72.4194 155.057 76.3314 158.97 76.3314 163.779C76.3314 169.219 76.3314 172.502 67.6094 172.502ZM78.3314 163.779C78.3314 157.867 73.5214 153.057 67.6094 153.057C61.6974 153.057 56.8874 157.867 56.8874 163.779C56.8874 169.051 56.8874 174.502 67.6094 174.502C78.3314 174.502 78.3314 169.051 78.3314 163.779ZM84.1378 186.113C83.3318 186.113 82.6098 185.596 82.3398 184.827C82.1998 184.425 81.8198 184.157 81.3968 184.157C81.3858 184.157 81.3748 184.157 81.3638 184.158C81.3438 184.158 81.2368 184.165 81.2168 184.167C81.1968 184.165 81.0988 184.158 81.0788 184.158C80.6458 184.102 80.2468 184.414 80.1018 184.827C79.8328 185.596 79.1098 186.113 78.3048 186.113C77.2478 186.113 76.3878 185.254 76.3878 184.197C76.3878 183.349 76.9638 182.594 77.7888 182.363C78.0848 182.28 78.3258 182.065 78.4428 181.781C78.7938 180.93 79.9358 180.336 81.2208 180.336C82.5048 180.336 83.6458 180.93 83.9968 181.781C84.1138 182.065 84.3548 182.279 84.6498 182.362C85.4768 182.596 86.0548 183.35 86.0548 184.197C86.0548 185.254 85.1948 186.113 84.1378 186.113V186.113ZM85.6348 180.592C84.8418 179.225 83.1328 178.336 81.2208 178.336C79.3088 178.336 77.5988 179.225 76.8058 180.591C75.3618 181.191 74.3878 182.614 74.3878 184.197C74.3878 186.356 76.1448 188.113 78.3048 188.113C79.4398 188.113 80.4938 187.616 81.2208 186.797C81.9488 187.616 83.0018 188.113 84.1378 188.113C86.2978 188.113 88.0548 186.356 88.0548 184.197C88.0548 182.616 87.0798 181.193 85.6348 180.592V180.592ZM163.914 81.7758H161.858C160.722 81.7758 159.803 82.6938 159.803 83.8308C159.803 84.9668 160.722 85.8868 161.858 85.8868H163.914C165.051 85.8868 165.97 84.9668 165.97 83.8308C165.97 82.6938 165.051 81.7758 163.914 81.7758ZM157.748 81.7758H155.692C154.558 81.7758 153.637 82.6938 153.637 83.8308C153.637 84.9668 154.558 85.8868 155.692 85.8868H157.748C158.882 85.8868 159.803 84.9668 159.803 83.8308C159.803 82.6938 158.882 81.7758 157.748 81.7758ZM171.136 73.5531C171.136 75.2691 169.74 76.6641 168.025 76.6641C166.309 76.6641 164.914 75.2691 164.914 73.5531V67.3861C164.914 65.6701 166.309 64.2751 168.025 64.2751C169.74 64.2751 171.136 65.6701 171.136 67.3861V73.5531ZM168.025 62.2751C165.207 62.2751 162.914 64.5681 162.914 67.3861V73.5531C162.914 76.3711 165.207 78.6641 168.025 78.6641C170.844 78.6641 173.136 76.3711 173.136 73.5531V67.3861C173.136 64.5681 170.844 62.2751 168.025 62.2751ZM94.3414 57.4818H89.9674C88.7604 57.4818 87.7804 58.4598 87.7804 59.6688C87.7804 60.8778 88.7604 61.8558 89.9674 61.8558H94.3414C95.5504 61.8558 96.5284 60.8778 96.5284 59.6688C96.5284 58.4598 95.5504 57.4818 94.3414 57.4818ZM81.2203 46.5482C80.0133 46.5482 79.0333 47.5262 79.0333 48.7352V53.1082C79.0333 54.3182 80.0133 55.2952 81.2203 55.2952C82.4283 55.2952 83.4073 54.3182 83.4073 53.1082V48.7352C83.4073 47.5262 82.4283 46.5482 81.2203 46.5482ZM103.088 46.5482C101.879 46.5482 100.901 47.5262 100.901 48.7352V53.1082C100.901 54.3182 101.879 55.2952 103.088 55.2952C104.297 55.2952 105.275 54.3182 105.275 53.1082V48.7352C105.275 47.5262 104.297 46.5482 103.088 46.5482ZM92.1544 9.37146C90.9474 9.37146 89.9674 10.8395 89.9674 12.6515C89.9674 14.4645 90.9474 15.9325 92.1544 15.9325C93.3634 15.9325 94.3414 14.4645 94.3414 12.6515C94.3414 10.8395 93.3634 9.37146 92.1544 9.37146ZM83.4073 11.558C82.2003 11.558 81.2203 12.537 81.2203 13.746C81.2203 14.953 82.2003 15.932 83.4073 15.932C84.6143 15.932 85.5943 14.953 85.5943 13.746C85.5943 12.537 84.6143 11.558 83.4073 11.558ZM100.901 11.558C99.6924 11.558 98.7144 12.537 98.7144 13.746C98.7144 14.953 99.6924 15.932 100.901 15.932C102.11 15.932 103.088 14.953 103.088 13.746C103.088 12.537 102.11 11.558 100.901 11.558ZM163.865 123.517C161.656 123.517 159.865 126.025 159.865 129.118C159.865 132.212 161.656 134.717 163.865 134.717C166.074 134.717 167.865 132.212 167.865 129.118C167.865 126.025 166.074 123.517 163.865 123.517ZM189.629 123.517C187.42 123.517 185.629 126.025 185.629 129.118C185.629 132.212 187.42 134.717 189.629 134.717C191.838 134.717 193.629 132.212 193.629 129.118C193.629 126.025 191.838 123.517 189.629 123.517Z" fill="#0E0F10"/>
<path fill-rule="evenodd" clip-rule="evenodd" d="M179.819 166.021C173.917 166.629 168.283 165.709 163.252 163.619C164.095 160.567 164.555 157.358 164.555 154.042C164.555 152.219 164.416 150.428 164.153 148.676H190.545C191.622 148.676 192.602 147.9 192.707 146.828C192.829 145.594 191.866 144.559 190.659 144.559H163.278C161.793 139.128 159.069 134.207 155.424 130.118C154.72 129.328 154.496 128.21 154.846 127.212C156.214 123.313 156.964 119.126 156.964 114.766C156.964 112.101 156.683 109.501 156.154 106.991C155.903 105.798 156.423 104.577 157.437 103.901C162.828 100.306 169.296 98.2059 176.247 98.2059C195.768 98.2059 211.5 114.742 210.169 134.542C209.069 150.901 196.128 164.339 179.819 166.021ZM125.131 187.874C110.035 186.389 97.5959 174.798 95.0489 159.846C94.4159 156.131 94.4089 152.51 94.9239 149.057C95.2429 146.919 97.6359 145.82 99.4779 146.953C102.958 149.092 106.81 150.684 110.913 151.606C111.071 151.716 111.241 151.813 111.433 151.877C111.799 152 112.171 152.005 112.521 151.93C114.69 152.319 116.918 152.533 119.197 152.533C123.236 152.533 127.127 151.888 130.778 150.708C130.999 151.241 131.432 151.681 132.022 151.877C133.109 152.239 134.264 151.655 134.624 150.576C134.681 150.406 134.777 150.158 134.908 149.862C135.185 149.235 135.689 148.741 136.299 148.429C136.878 148.134 137.448 147.824 138.009 147.5C139.458 146.664 141.305 147.132 142.143 148.58C142.596 149.362 142.92 150.124 143.073 150.576C143.36 151.438 144.163 151.984 145.025 151.984C145.241 151.984 145.46 151.949 145.676 151.877C146.755 151.519 147.337 150.353 146.977 149.275C146.828 148.826 145.948 146.364 144.183 144.365C143.819 143.954 143.87 143.333 144.28 142.967C147.005 140.542 149.376 137.729 151.308 134.616C152.447 132.78 155.073 132.691 156.322 134.455C160.245 139.995 162.555 146.752 162.555 154.042C162.555 173.92 145.409 189.868 125.131 187.874V187.874ZM96.3279 170.063C96.8829 171.176 96.1079 172.501 94.8629 172.502H94.8319C86.1099 172.502 86.1099 169.219 86.1099 163.78C86.1099 160.667 87.7499 157.937 90.2099 156.395C91.2559 155.741 92.6219 156.439 92.7449 157.667C93.1889 162.082 94.4309 166.262 96.3279 170.063V170.063ZM101.964 190.621C100.561 191.274 99.6649 192.688 99.6649 194.235V200.509C99.6649 203.032 97.8259 205.29 95.3149 205.535C92.4339 205.816 89.9979 203.549 89.9979 200.725V194.59C89.9979 194.311 89.8809 194.043 89.6749 193.854C89.4899 193.684 89.2479 193.59 88.9979 193.59C88.9699 193.59 88.9429 193.591 88.9149 193.594C88.2959 193.646 87.6569 193.69 87.0039 193.728C86.4739 193.76 86.0539 194.196 86.0539 194.727V200.509C86.0539 203.033 84.2139 205.29 81.7029 205.535C78.8219 205.816 76.3869 203.549 76.3869 200.725V194.727C76.3869 194.197 75.9689 193.76 75.4399 193.729C74.7879 193.69 74.1469 193.646 73.5269 193.594C73.2499 193.563 72.9719 193.665 72.7659 193.854C72.5599 194.043 72.4429 194.311 72.4429 194.59V200.509C72.4429 203.032 70.6039 205.29 68.0929 205.535C65.2119 205.816 62.7759 203.549 62.7759 200.725V194.236C62.7759 192.697 61.8969 191.279 60.5009 190.631C51.1099 186.276 51.1099 178.001 51.1099 167.669C51.1099 159.084 54.0189 151.759 59.0269 146.48C61.7789 147.156 64.6519 147.522 67.6099 147.522C75.4449 147.522 82.6979 144.999 88.6149 140.731C89.7769 141.131 91.0119 141.344 92.2739 141.344C92.3119 141.344 92.3509 141.337 92.3889 141.337C92.9919 141.946 93.6189 142.529 94.2619 143.095C93.2289 146.325 92.6459 149.75 92.5729 153.301C87.7429 154.341 84.1099 158.643 84.1099 163.78C84.1099 169.051 84.1099 174.502 94.8319 174.502C96.3369 174.502 97.6239 174.391 98.7369 174.192C101.448 178.192 104.946 181.612 109.001 184.246C107.626 186.846 105.441 189.002 101.964 190.621V190.621ZM50.7989 138.113C51.1629 137.759 51.5039 137.38 51.8189 136.977C52.4529 136.165 53.5929 135.981 54.4629 136.535C58.0899 138.846 62.5779 140.346 67.6099 140.346C72.6289 140.346 77.1069 138.854 80.7309 136.551C81.5989 136 82.7349 136.182 83.3689 136.991C83.6849 137.393 84.0259 137.771 84.3889 138.124C85.3649 139.071 85.1409 140.674 83.9489 141.33C79.0969 144 73.5279 145.522 67.6099 145.522C61.6789 145.522 56.0999 143.996 51.2419 141.315C50.0529 140.66 49.8259 139.06 50.7989 138.113V138.113ZM40.6169 139.056C38.2119 138.447 36.1879 136.937 34.9189 134.803C33.6489 132.669 33.2869 130.169 33.8979 127.762C34.9439 123.638 41.8479 115.816 45.6509 112.556C46.7119 111.647 48.3389 112.06 48.8369 113.366C50.6229 118.045 52.9589 128.215 51.9139 132.337C50.6519 137.304 45.5849 140.319 40.6169 139.056V139.056ZM81.8309 122.789C81.6049 124.096 81.4229 125.383 81.2939 126.597C78.4139 128.413 74.0379 130.051 67.6099 130.051C61.1479 130.051 56.7599 128.395 53.8809 126.569C53.7519 125.361 53.5699 124.081 53.3449 122.781C56.4279 123.317 61.1719 123.875 67.6099 123.875C74.0169 123.875 78.7469 123.322 81.8309 122.789V122.789ZM33.8359 107.566C35.6719 91.5019 48.9079 78.8129 65.0319 77.6179C70.1679 77.2369 75.0889 78.0049 79.5639 79.6909C80.8889 80.1909 81.2999 81.8519 80.3569 82.9099C76.1779 87.5909 72.9399 93.9799 75.5409 101.458C75.9699 102.694 76.4709 103.82 77.0339 104.862C72.9219 106.428 70.8879 110.875 70.7859 111.104C70.5969 111.531 70.7199 112.029 71.0829 112.321C71.4429 112.614 71.9599 112.624 72.3399 112.35C72.3649 112.332 74.9389 110.493 79.9629 110.493C80.5679 110.493 81.1359 110.52 81.6699 110.567C81.5159 111.947 81.4309 113.346 81.4309 114.766C81.4309 115.435 81.4489 116.099 81.4839 116.758C81.5379 117.788 80.8019 118.681 79.7849 118.837C76.1109 119.403 72.3709 119.757 67.6099 119.757C62.0979 119.757 57.9569 119.284 53.7009 118.555C52.9319 118.424 52.3079 117.849 52.1069 117.095C51.4899 114.784 50.7779 112.711 50.0409 111.254C51.2959 110.852 53.0349 110.493 55.2559 110.493C60.2509 110.493 62.8199 112.307 62.8779 112.348C63.0589 112.484 63.2769 112.551 63.4919 112.551C63.7179 112.551 63.9469 112.475 64.1339 112.327C64.5009 112.035 64.6219 111.533 64.4329 111.104C64.3089 110.827 61.3459 104.316 55.2559 104.316C51.1619 104.316 48.4859 107.257 47.1319 109.27C44.8719 110.135 40.9319 114.042 37.6179 118.152C36.5299 119.5 34.3759 118.916 34.0869 117.207C33.5619 114.114 33.4569 110.88 33.8359 107.566V107.566ZM58.1569 51.0189C58.1619 50.1679 58.1659 49.4009 58.1659 48.7339C58.1659 47.8479 58.1919 46.9379 58.2449 45.9529C58.5059 41.0539 59.8959 35.4949 62.4419 30.2499C65.7619 23.4069 72.7669 19.1199 80.3729 19.1199H104.271C112.011 19.1199 119.09 23.5659 122.365 30.5799C124.72 35.6229 126.144 41.6569 126.144 48.7349C126.144 50.1599 126.144 51.5209 126.143 52.8329C126.143 53.4529 125.58 53.9019 124.968 53.7969C123.298 53.5119 121.694 53.3779 120.151 53.3679C119.553 53.3639 119.092 52.8569 119.155 52.2629C119.234 51.5159 119.297 50.7639 119.335 50.0039C119.334 49.9619 119.333 49.9199 119.333 49.8789C118.637 40.8939 109.291 36.8009 100.902 36.8009C92.5389 36.8009 81.8429 30.4479 81.7359 30.3829C81.3419 30.1469 80.8399 30.2109 80.5149 30.5339L73.9539 37.0939C72.9089 38.1389 71.8639 38.9829 70.8529 39.7989C67.8819 42.1969 65.3179 44.2689 64.9609 49.6329C64.9609 49.6699 64.9599 49.7099 64.9599 49.7489C65.3429 58.5189 68.2699 66.5579 72.9959 72.5009C74.0889 73.8749 72.9729 75.8829 71.2269 75.7059C70.0369 75.5839 68.8309 75.5219 67.6099 75.5219C65.5719 75.5219 63.5749 75.6979 61.6299 76.0269C60.5639 76.2079 59.5479 75.4909 59.3629 74.4249C58.0679 66.9879 58.1259 56.4949 58.1569 51.0189V51.0189ZM71.2869 16.6539L77.1629 14.6949C77.3739 14.6249 77.5559 14.4859 77.6789 14.2999L80.7809 9.64689C81.2809 8.89689 82.2219 8.57389 83.0779 8.85889L87.4649 10.3209C87.8239 10.4429 88.2199 10.3469 88.4879 10.0799L90.7399 7.82789C91.5209 7.04589 92.7869 7.04589 93.5689 7.82789L95.8199 10.0789C96.0889 10.3469 96.4849 10.4409 96.8439 10.3209L101.231 8.85889C102.087 8.57389 103.027 8.89689 103.527 9.64689L106.63 14.3009C106.753 14.4859 106.934 14.6249 107.145 14.6949L113.022 16.6539V17.1199H71.2869V16.6539ZM128.142 53.8529C129.371 52.6569 131.122 51.2899 133.611 49.7339C133.868 49.5739 134.038 49.3039 134.073 49.0019C134.109 48.7019 134.006 48.3999 133.793 48.1839C132.699 47.0739 130.672 44.3739 131.382 43.1119C131.59 42.7429 132.391 41.9789 135.424 41.9439C136.028 43.8669 136.916 45.9819 138.219 48.0619C139.184 49.5999 139.24 51.5199 138.385 53.1219C137.919 53.9949 137.483 54.9349 137.082 55.9459C136.626 57.0949 135.284 57.5649 134.204 56.9609C132.376 55.9409 130.396 55.1229 128.284 54.5389C128.236 54.5249 128.19 54.5169 128.142 54.5039V53.8529ZM136.155 34.4449C136.158 34.4039 136.184 34.3089 136.21 34.2179C136.213 34.2079 136.244 34.0689 136.247 34.0569C136.271 34.0119 136.305 33.9739 136.37 33.8879L136.463 33.7469C136.491 33.7249 136.524 33.7089 136.554 33.6899C136.563 33.6849 136.65 33.6329 136.658 33.6269L136.822 33.5159V33.5149C136.837 33.5089 136.851 33.5029 136.866 33.4969L136.87 33.5059L137.062 33.4869C137.119 33.4789 137.174 33.4659 137.238 33.4499C137.318 33.4579 137.446 33.4989 137.513 33.5189C137.569 33.5359 137.63 33.5489 137.702 33.5619C137.818 33.6199 137.916 33.6849 137.977 33.7459C138.031 33.7989 138.082 33.8719 138.119 33.9269C138.202 34.0529 138.298 34.1459 138.39 34.2199C144.879 47.9249 149.902 49.9229 149.941 49.9379C150.453 50.1349 150.697 50.7279 150.498 51.2849C150.477 51.3439 150.453 51.3999 150.423 51.4519C150.247 51.7629 150.25 52.1449 150.432 52.4539C150.616 52.7669 150.631 53.1469 150.471 53.4669C150.218 53.9709 149.536 54.1799 149.066 53.9459C149.044 53.9329 148.966 53.8889 148.944 53.8779C148.803 53.8079 148.65 53.7729 148.497 53.7729C148.326 53.7729 148.154 53.8169 148.001 53.9049C147.653 54.1049 147.25 54.0959 146.925 53.9009C136.609 47.7089 136.156 35.8349 136.137 34.5859C136.146 34.5359 136.153 34.4839 136.155 34.4449V34.4449ZM147.24 43.6929C147.537 43.7609 147.85 43.6929 148.09 43.5029C148.33 43.3139 148.47 43.0249 148.47 42.7189C148.47 39.6919 149.23 33.4409 151.581 33.4409C154.12 33.4409 157.423 38.1459 158.909 41.1109C159.248 41.7889 160.359 41.7889 160.697 41.1109C162.183 38.1459 165.486 33.4409 168.026 33.4409C170.371 33.4409 171.134 39.6919 171.136 42.7189C171.136 43.0249 171.276 43.3129 171.515 43.5019C171.753 43.6919 172.066 43.7629 172.362 43.6929C172.935 43.5599 173.48 43.4399 174.012 43.3249L174.001 43.3389C173.42 44.1109 172.389 44.3879 171.502 44.0089C167.657 42.3659 163.524 41.9749 159.803 41.9749C156.091 41.9749 151.968 42.3629 148.131 43.9959C147.399 44.3069 146.543 44.0699 146.066 43.4329C146.062 43.4289 146.059 43.4239 146.055 43.4189C146.44 43.5059 146.835 43.5969 147.24 43.6929V43.6929ZM181.446 34.0769C181.543 33.8479 181.719 33.6639 181.927 33.5609C181.982 33.5479 182.046 33.5329 182.077 33.5219C182.176 33.4899 182.299 33.4519 182.37 33.4489C182.43 33.4639 182.492 33.4779 182.563 33.4889L182.736 33.5049C182.777 33.5279 182.815 33.5469 182.844 33.5589L182.962 33.6349C182.967 33.6379 183.054 33.6919 183.059 33.6949C183.09 33.7129 183.121 33.7299 183.154 33.7759L183.287 33.9579C183.314 33.9919 183.342 34.0239 183.361 34.0809L183.401 34.2359C183.418 34.2919 183.448 34.3959 183.451 34.4469V34.4489C183.454 34.5029 183.461 34.5519 183.469 34.5959C183.448 35.9099 182.965 47.7279 172.682 53.8989C172.352 54.0959 171.949 54.1019 171.606 53.9049C171.452 53.8169 171.281 53.7729 171.109 53.7729C170.963 53.7729 170.816 53.8049 170.68 53.8699C170.627 53.8949 170.578 53.9219 170.554 53.9389C170.03 54.2019 169.388 53.9719 169.136 53.4689C168.977 53.1499 168.988 52.7769 169.166 52.4699C169.349 52.1549 169.346 51.7659 169.159 51.4539C169.131 51.4069 169.106 51.3489 169.081 51.2739C168.897 50.7219 169.196 50.1229 169.82 49.9109C170.425 49.6549 175.888 47.0419 181.446 34.0769V34.0769ZM148.47 73.5529V67.3859C148.47 65.6699 149.865 64.2749 151.581 64.2749C153.297 64.2749 154.692 65.6699 154.692 67.3859V73.5529C154.692 75.2689 153.297 76.6649 151.581 76.6649C149.865 76.6649 148.47 75.2689 148.47 73.5529ZM168.025 93.0529C168.025 94.1899 168.944 95.1089 170.081 95.1089C171.217 95.1089 172.136 94.1899 172.136 93.0529H168.025ZM172.447 93.0529L172.965 93.2439L173.534 93.5309L173.589 94.3039C173.589 94.9999 172.759 95.7919 171.421 96.5389C168.1 96.9859 164.922 97.8829 161.95 99.1739C161.235 99.2369 160.516 99.2759 159.803 99.2759C159.777 99.2759 159.752 99.2739 159.726 99.2739C160.112 98.7679 160.426 98.2409 160.649 97.6859C161.347 95.9489 161.113 94.3229 160.648 93.0529H162.158C161.972 93.3629 161.859 93.7209 161.859 94.1089V95.1639C161.859 96.2999 162.777 97.2189 163.914 97.2189C165.051 97.2189 165.97 96.2999 165.97 95.1639V94.1089C165.97 93.7209 165.856 93.3629 165.67 93.0529H172.447ZM155.305 100.346C154.781 100.639 154.121 100.408 153.883 99.8559C152.559 96.7879 150.84 93.9289 148.79 91.3439C148.285 90.7079 148.726 89.7749 149.537 89.7369C151.612 89.6389 154.921 89.7919 157.222 91.4059C157.38 91.5539 157.537 91.6939 157.694 91.8469C157.9 92.0889 159.802 94.4309 158.793 96.9409C158.415 97.8819 157.486 99.1219 155.305 100.346ZM83.4779 116.62C83.0859 108.899 85.1609 101.675 88.9799 95.6619C90.7139 92.9309 94.1339 91.8069 97.1839 92.8869C102.904 94.9139 112.059 97.6579 119.679 97.6579C122.931 97.6579 125.903 97.1579 128.208 95.8879C132.895 93.3069 137.083 91.7859 140.672 90.9219C143.364 90.2749 146.224 91.2179 147.88 93.4379C152.325 99.3959 154.964 106.777 154.964 114.766C154.964 135.33 137.52 151.895 116.653 150.444C98.7669 149.201 84.3879 134.526 83.4779 116.62V116.62ZM83.2379 126.299C84.7679 131.057 87.2179 135.405 90.3769 139.135C87.0129 138.428 84.1659 135.887 83.2639 132.337C82.8989 130.898 82.9459 128.721 83.2379 126.299ZM116.444 71.3329C117.495 69.3489 120.033 68.2749 123.988 68.1379C124.27 68.1279 124.546 68.1239 124.817 68.1239C128.795 68.1239 131.615 69.1709 133.206 71.2429C134.361 72.7469 134.724 74.6049 134.761 76.2439C134.777 76.9169 134.152 77.4119 133.499 77.2419C128.248 75.8739 122.711 75.2829 117.048 75.9159C116.504 75.9759 116.002 75.5989 115.936 75.0539C115.774 73.7219 115.872 72.4129 116.444 71.3329V71.3329ZM145.983 84.2859C147.74 85.2049 147.258 87.8469 145.286 88.0539C140.452 88.5609 134.377 90.2069 127.243 94.1359C119.952 98.1499 104.362 93.3529 96.7869 90.6039C95.3409 90.0789 95.0059 88.2029 96.1709 87.1979C98.8069 84.9229 102.98 81.9549 108.54 79.9439C110.201 79.3719 111.973 78.8649 113.854 78.4639C113.861 78.4619 113.869 78.4599 113.878 78.4579C114.213 78.3869 114.552 78.3209 114.894 78.2559C124.605 76.5619 135.134 78.6099 145.983 84.2859V84.2859ZM91.9749 76.2509C92.1819 76.1439 92.3459 75.9669 92.4369 75.7509C92.4649 75.6859 95.2729 69.1139 101.049 63.4879C106.621 58.0599 112.904 55.3329 119.804 55.3329C122.369 55.3329 125.02 55.7099 127.751 56.4659C137.946 59.2859 144.86 67.9999 145.546 78.5609C145.644 80.0599 144.104 81.1129 142.73 80.5029C141.227 79.8369 139.686 79.2199 138.113 78.6649C137.306 78.3789 136.755 77.6289 136.769 76.7739C136.802 74.6809 136.411 72.1399 134.8 70.0349C132.686 67.2739 129.016 65.9569 123.92 66.1399C119.197 66.3019 116.088 67.7349 114.677 70.3959C113.978 71.7159 113.785 73.1939 113.88 74.6549C113.943 75.6269 113.304 76.5029 112.356 76.7249C111.228 76.9879 110.097 77.3029 108.965 77.6749C97.6039 81.4089 91.5549 88.9159 91.3029 89.2339C91.2539 89.2949 91.2369 89.3729 91.2049 89.4419C87.8999 93.0919 85.3009 97.3909 83.6179 102.122C82.6959 104.712 79.1199 104.879 78.0309 102.354C77.8169 101.858 77.6159 101.34 77.4289 100.802C75.3679 94.8749 77.1399 88.9739 82.6939 83.2589C86.9489 78.8809 91.9249 76.2779 91.9749 76.2509V76.2509ZM116.987 53.5239C106.671 54.6389 99.5259 61.4729 95.2979 67.1379C94.7879 67.8219 94.0309 68.2749 93.1829 68.3639C92.8609 68.3969 92.5189 68.4169 92.1539 68.4169C88.8809 68.4169 87.2319 66.9509 87.1179 66.8479C86.2629 66.0169 84.8939 66.0219 84.0479 66.8699C83.1929 67.7249 83.1929 69.1069 84.0479 69.9619C84.3279 70.2439 86.8639 72.6259 91.6889 72.7759C91.2289 73.6249 90.9099 74.2829 90.7409 74.6469C90.0149 75.0519 88.1139 76.1659 85.8609 77.8769C84.9259 78.5879 83.6619 78.6579 82.6249 78.1069C82.3989 77.9869 82.1729 77.8619 81.9489 77.7329C73.2529 72.7249 67.5129 61.9929 66.9599 49.7149C67.2699 45.2619 69.3019 43.6219 72.1099 41.3549C73.1119 40.5449 74.2489 39.6279 75.3679 38.5079L79.2949 34.5819C80.5109 33.3659 82.3659 33.0559 83.9019 33.8279C87.8639 35.8159 94.8229 38.8009 100.902 38.8009C108.379 38.8009 116.694 42.2959 117.334 49.9679C117.272 51.1709 117.147 52.3549 116.987 53.5239V53.5239ZM175.49 92.8269C175.466 92.4739 175.258 92.1609 174.943 92.0009L173.814 91.4319C173.779 91.4149 173.745 91.3989 173.709 91.3859L172.971 91.1149C172.861 91.0739 172.743 91.0529 172.626 91.0529H159.6C159.37 90.7259 159.195 90.5239 159.167 90.4929C159.152 90.4759 159.137 90.4589 159.121 90.4439C155.393 86.8049 151.767 84.5889 148.386 83.3239C148.095 82.8749 147.839 82.4809 147.548 82.0339C147.569 81.7049 147.585 81.3759 147.593 81.0509C147.633 79.4629 147.544 77.9079 147.335 76.3919C148.313 77.8499 150.019 78.7809 151.929 78.6529C154.652 78.4709 156.692 76.0579 156.692 73.3309V67.6139C156.692 64.9459 154.746 62.5589 152.091 62.2999C149.044 62.0019 146.47 64.3999 146.47 67.3859V72.4029C145.09 67.7059 142.491 63.5619 138.947 60.3609C138.36 59.8299 138.094 59.0159 138.344 58.2649C138.839 56.7749 139.405 55.4349 140.036 54.2329C140.618 53.1239 142.078 52.7939 143.042 53.5939C143.906 54.3119 144.855 54.9909 145.898 55.6169C146.675 56.0829 147.638 56.1789 148.493 55.8719C148.823 55.9909 149.173 56.0519 149.523 56.0519C150.689 56.0519 151.736 55.4049 152.26 54.3609C152.641 53.5939 152.682 52.7189 152.39 51.9329C152.94 50.3499 152.184 48.6589 150.711 48.0929C150.704 48.0899 150.603 48.0399 150.418 47.9179C149.33 47.2079 149.556 45.5279 150.798 45.1429C153.731 44.2319 156.826 43.9749 159.803 43.9749C162.814 43.9749 165.946 44.2409 168.909 45.1769C170.214 45.5899 170.362 47.4099 169.141 48.0269L169.111 48.0419C167.516 48.5769 166.651 50.3099 167.181 51.8989C167.189 51.9209 167.196 51.9439 167.204 51.9649C166.923 52.7429 166.969 53.6069 167.347 54.3639C167.87 55.4049 168.918 56.0519 170.083 56.0519C170.441 56.0519 170.789 55.9909 171.115 55.8729C171.445 55.9909 171.792 56.0519 172.139 56.0519C172.686 56.0519 173.228 55.9019 173.708 55.6159C174.752 54.9899 175.701 54.3099 176.567 53.5909C177.522 52.7979 178.98 53.1099 179.559 54.2079C181.971 58.7819 183.47 65.3379 183.47 74.7089C183.47 83.3189 181.491 90.5199 177.953 95.7839C177.759 96.0719 177.428 96.2319 177.082 96.2209C176.805 96.2109 176.527 96.2059 176.247 96.2059C175.78 96.2059 175.317 96.2229 174.855 96.2409C175.311 95.6189 175.587 94.9519 175.586 94.2359L175.49 92.8269ZM184.167 41.9869C187.22 42.0279 188.022 42.7949 188.228 43.1659C188.926 44.4179 186.905 47.0849 185.817 48.1809C185.602 48.3969 185.498 48.6989 185.532 48.9999C185.568 49.3029 185.737 49.5729 185.996 49.7339C193.014 54.1209 194.254 57.0409 194.058 58.7169C193.776 61.1299 190.353 62.3149 190.32 62.3269C190.015 62.4279 189.777 62.6689 189.682 62.9769C189.586 63.2839 189.644 63.6179 189.837 63.8749C193.933 69.3359 195.448 73.5309 194.218 76.0019C192.889 78.6719 188.622 78.7199 188.579 78.7199C188.116 78.7219 187.715 79.0419 187.609 79.4919C187.503 79.9419 187.719 80.4069 188.133 80.6149C188.21 80.6529 195.803 84.5279 195.803 89.9979C195.803 91.2239 195.536 92.0699 194.986 92.5829C193.823 93.6669 191.162 93.4809 188.344 93.2869C187.09 93.1989 185.792 93.1089 184.47 93.1089C184.088 93.1089 183.739 93.3269 183.571 93.6689C183.404 94.0119 183.446 94.4209 183.68 94.7229C183.832 94.9179 183.976 95.1069 184.112 95.2909C184.664 96.0309 184.021 97.0439 183.114 96.8679C182.57 96.7609 182.022 96.6669 181.469 96.5849C180.79 96.4859 180.414 95.7249 180.752 95.1279C183.793 89.7539 185.47 82.8179 185.47 74.7089C185.47 64.9129 183.834 58.0149 181.248 53.1659C180.384 51.5459 180.418 49.6069 181.392 48.0509C182.682 45.9909 183.565 43.8959 184.167 41.9869V41.9869ZM190.109 98.9899C188.922 98.4929 187.962 97.5989 187.318 96.4849C187.075 96.0659 186.799 95.6279 186.486 95.1699C187.065 95.2029 187.64 95.2429 188.206 95.2819C191.611 95.5189 194.551 95.7219 196.35 94.0449C197.328 93.1329 197.803 91.8089 197.803 89.9979C197.803 85.5109 194.039 82.1089 191.438 80.2939C193.083 79.8349 195.014 78.8819 196.004 76.9029C197.534 73.8419 196.247 69.3999 192.178 63.6889C193.59 62.9599 195.746 61.4559 196.043 58.9599C196.417 55.8149 193.802 52.4459 188.058 48.6789C189.269 47.2219 191.193 44.3809 189.977 42.1939C189.225 40.8419 187.504 40.1099 184.719 39.9909C185.446 36.9479 185.47 34.7189 185.47 34.4939C185.47 34.4279 185.459 34.3349 185.442 34.2539C185.421 34.0249 185.366 33.8259 185.306 33.6159C185.282 33.5159 185.246 33.3659 185.17 33.2039C185.075 33.0009 184.958 32.8489 184.872 32.7379L184.799 32.6379C184.733 32.5419 184.641 32.4099 184.497 32.2739C184.349 32.1369 184.201 32.0479 184.093 31.9829L183.496 32.7899L183.955 31.8949C183.868 31.8369 183.756 31.7619 183.608 31.6959C183.551 31.6639 183.49 31.6339 183.436 31.6149C183.219 31.5389 183.029 31.5239 182.861 31.5099C182.757 31.4799 182.539 31.4109 182.268 31.4529C181.986 31.4679 181.731 31.5349 181.501 31.6069C181.417 31.6239 181.281 31.6609 181.215 31.6889C180.485 31.9999 179.913 32.5699 179.607 33.2919C178.249 36.4589 176.902 38.9659 175.647 40.9499C174.83 41.1079 173.991 41.2779 173.102 41.4749C172.953 38.4579 172.161 31.4409 168.026 31.4409C164.523 31.4409 161.326 36.0149 159.803 38.5889C158.281 36.0149 155.084 31.4409 151.581 31.4409C147.447 31.4409 146.654 38.4509 146.504 41.4699C145.773 41.3049 145.074 41.1579 144.392 41.0189C143.115 39.0419 141.701 36.5399 140.204 33.3779C140.105 33.0419 139.861 32.8299 139.711 32.7139C139.614 32.5809 139.502 32.4419 139.387 32.3269C139.132 32.0759 138.799 31.8569 138.408 31.6849C138.257 31.6229 138.124 31.6059 138.103 31.6079C137.881 31.5389 137.64 31.4719 137.352 31.4539C137.083 31.4149 136.87 31.4779 136.718 31.5119C136.588 31.5219 136.39 31.5379 136.149 31.6239C136.109 31.6389 136.06 31.6619 136.015 31.6869C135.861 31.7549 135.742 31.8349 135.653 31.8949L135.537 31.9679C135.418 32.0389 135.256 32.1339 135.109 32.2759C134.975 32.3999 134.886 32.5269 134.827 32.6109L134.744 32.7219C134.655 32.8389 134.533 32.9999 134.441 33.1989C134.362 33.3629 134.325 33.5139 134.283 33.6829C134.239 33.8379 134.186 34.0279 134.165 34.2529C134.148 34.3339 134.136 34.4299 134.136 34.4969C134.136 34.7209 134.16 36.9279 134.876 39.9469C132.11 40.0599 130.394 40.7879 129.638 42.1329C128.403 44.3319 130.34 47.2079 131.552 48.6759C130.254 49.5269 129.124 50.3569 128.144 51.1689V48.7349C128.144 35.0659 123.066 25.0979 116.132 18.4839C115.438 17.8229 115.022 16.9209 115.022 15.9619V15.9329C115.022 15.5029 114.747 15.1209 114.339 14.9849L109.229 13.2819C109.163 13.2429 109.097 13.2049 109.03 13.1669C108.253 12.7169 107.576 12.1149 107.078 11.3679L103.921 6.63189C103.671 6.25589 103.2 6.09489 102.772 6.23789L100.114 7.12389C98.0819 7.79989 95.8409 7.27189 94.3259 5.75689L92.8609 4.29189C92.4709 3.90189 91.8379 3.90189 91.4469 4.29189L89.9829 5.75689C88.4669 7.27189 86.2269 7.79989 84.1949 7.12389L81.5359 6.23789C81.1079 6.09489 80.6379 6.25589 80.3879 6.63089L77.2469 11.3439C76.7319 12.1169 76.0459 12.7599 75.2419 13.2249L75.2299 13.2319L69.9699 14.9849C69.5619 15.1209 69.2869 15.5019 69.2869 15.9329V15.9659C69.2869 16.8979 68.9129 17.7899 68.2359 18.4279C62.8519 23.5039 56.9799 32.1129 56.2479 45.8449C56.1929 46.8669 56.1659 47.8119 56.1659 48.7339C56.1659 49.3969 56.1619 50.1619 56.1569 51.0069C56.1169 57.9959 56.0539 69.3369 57.8269 76.8829C42.7169 81.1579 31.6099 95.0619 31.6099 111.522C31.6099 115.763 32.3519 119.833 33.7049 123.616C32.8269 125.052 32.1989 126.327 31.9599 127.27C31.2169 130.195 31.6569 133.233 33.1999 135.826C34.7429 138.418 37.2019 140.254 40.1259 140.996C41.0549 141.231 41.9859 141.344 42.9039 141.344C44.1759 141.344 45.4189 141.126 46.5899 140.72C49.6729 142.947 53.1169 144.703 56.8219 145.87C51.9299 151.429 49.1099 158.939 49.1099 167.669C49.1099 176.833 49.1099 185.563 56.7519 190.801C59.3019 192.549 60.7759 195.488 60.7759 198.58V200.457C60.7759 204.102 63.5159 207.306 67.1549 207.543C69.4569 207.693 71.5389 206.695 72.8819 205.067C73.6839 204.094 75.1879 204.168 76.0019 205.131C77.2559 206.615 79.1299 207.558 81.2199 207.558C83.3109 207.558 85.1849 206.615 86.4389 205.131C87.2529 204.168 88.7559 204.094 89.5589 205.067C90.9019 206.695 92.9839 207.693 95.2859 207.543C98.9239 207.306 101.665 204.102 101.665 200.457V198.58C101.665 195.399 103.296 192.495 105.892 190.658C107.089 189.812 108.092 188.877 108.935 187.868C110.074 186.5 111.988 186.038 113.607 186.78C118.162 188.872 123.223 190.042 128.555 190.042C143.118 190.042 155.68 181.346 161.343 168.877C162.155 167.088 164.174 166.172 166.059 166.731C170.527 168.055 175.352 168.537 180.357 167.974C196.905 166.115 210.19 152.836 212.021 136.286C213.862 119.636 204.265 104.919 190.109 98.9899V98.9899Z" fill="#0E0F10"/>
<path fill-rule="evenodd" clip-rule="evenodd" d="M40.0797 107.257C40.3307 107.358 40.5887 107.405 40.8437 107.405C41.6607 107.403 42.4337 106.915 42.7567 106.111C46.3877 97.0292 55.2867 95.0902 55.6667 95.0122C56.7767 94.7852 57.4977 93.7012 57.2747 92.5902C57.0527 91.4752 55.9717 90.7562 54.8517 90.9762C54.3887 91.0672 43.4127 93.3812 38.9337 104.58C38.5107 105.637 39.0237 106.835 40.0797 107.257ZM110.025 159.219C108.587 159.219 107.206 159.83 106.237 160.897C105.269 161.962 104.794 163.399 104.932 164.839C105.18 167.427 107.496 169.454 110.204 169.454C111.792 169.454 113.084 168.162 113.084 166.574V162.099C113.084 160.511 111.792 159.219 110.204 159.219H110.025ZM118.082 159.219C116.494 159.219 115.202 160.511 115.202 162.099V166.574C115.202 168.162 116.494 169.454 118.082 169.454H124.616C126.204 169.454 127.496 168.162 127.496 166.574V162.099C127.496 160.511 126.204 159.219 124.616 159.219H118.082ZM132.493 159.219C130.905 159.219 129.613 160.511 129.613 162.099V166.574C129.613 168.162 130.905 169.454 132.493 169.454H139.028C140.616 169.454 141.908 168.162 141.908 166.574V162.099C141.908 160.511 140.616 159.219 139.028 159.219H132.493ZM146.905 159.219C145.317 159.219 144.025 160.511 144.025 162.099V166.574C144.025 168.162 145.317 169.454 146.905 169.454C149.613 169.454 151.929 167.427 152.178 164.839C152.316 163.399 151.84 161.962 150.872 160.897C149.903 159.83 148.523 159.219 147.084 159.219H146.905ZM110.025 171.573C106.035 171.573 102.79 168.326 102.79 164.336C102.79 160.347 106.035 157.102 110.025 157.102H147.084C151.074 157.102 154.319 160.347 154.319 164.336C154.319 168.326 151.074 171.573 147.084 171.573H110.025ZM117.879 117.123C120.088 117.123 121.879 114.617 121.879 111.522C121.879 108.43 120.088 105.923 117.879 105.923C115.67 105.923 113.879 108.43 113.879 111.522C113.879 114.617 115.67 117.123 117.879 117.123ZM143.995 117.123C146.205 117.123 147.995 114.617 147.995 111.522C147.995 108.43 146.205 105.923 143.995 105.923C141.786 105.923 139.995 108.43 139.995 111.522C139.995 114.617 141.786 117.123 143.995 117.123ZM115.219 129.447C115.723 129.447 117.086 135.015 123.728 133.159C124.464 132.954 125.272 133.075 125.843 133.584C128.024 135.529 133.285 137.503 137.175 133.699C137.736 133.15 138.574 132.966 139.323 133.199C144.887 134.934 146.037 129.447 146.465 129.447C148.692 129.447 150.497 127.333 150.497 124.725C150.497 123.747 149.865 122.666 149.329 121.925C149.013 121.488 148.423 121.524 148.158 122.007C147.469 123.262 145.868 125.195 142.727 124.556C141.414 124.193 140.237 123.4 138.932 123.009C136.954 122.416 136.162 122.385 134.44 122.952C134.048 123.082 133.62 123.113 133.219 123.016C130.581 122.383 126.441 122.393 124.039 123.009C122.512 123.4 121.133 124.193 119.596 124.556C116.976 125.011 115.271 124.162 114.215 123.181C112.954 122.01 110.778 122.704 110.522 124.406C110.506 124.513 110.497 124.62 110.497 124.725C110.497 127.333 112.611 129.447 115.219 129.447V129.447ZM217.846 69.9525H217.336C216.784 69.9525 216.336 69.5055 216.336 68.9525V68.4415C216.336 67.8895 215.888 67.4415 215.336 67.4415C214.783 67.4415 214.336 67.8895 214.336 68.4415V68.9525C214.336 69.5055 213.888 69.9525 213.336 69.9525H212.826C212.274 69.9525 211.826 70.3995 211.826 70.9525C211.826 71.5055 212.274 71.9525 212.826 71.9525H213.336C213.888 71.9525 214.336 72.3995 214.336 72.9525V73.4625C214.336 74.0145 214.783 74.4625 215.336 74.4625C215.888 74.4625 216.336 74.0145 216.336 73.4625V72.9525C216.336 72.3995 216.784 71.9525 217.336 71.9525H217.846C218.398 71.9525 218.846 71.5055 218.846 70.9525C218.846 70.3995 218.398 69.9525 217.846 69.9525ZM10.0201 69.9525H9.51009C8.95809 69.9525 8.51009 69.5055 8.51009 68.9525V68.4415C8.51009 67.8895 8.06209 67.4415 7.51009 67.4415C6.95709 67.4415 6.51009 67.8895 6.51009 68.4415V68.9525C6.51009 69.5055 6.06209 69.9525 5.51009 69.9525H5.00009C4.44809 69.9525 4.00009 70.3995 4.00009 70.9525C4.00009 71.5055 4.44809 71.9525 5.00009 71.9525H5.51009C6.06209 71.9525 6.51009 72.3995 6.51009 72.9525V73.4625C6.51009 74.0145 6.95709 74.4625 7.51009 74.4625C8.06209 74.4625 8.51009 74.0145 8.51009 73.4625V72.9525C8.51009 72.3995 8.95809 71.9525 9.51009 71.9525H10.0201C10.5721 71.9525 11.0201 71.5055 11.0201 70.9525C11.0201 70.3995 10.5721 69.9525 10.0201 69.9525ZM24.0401 145.533C23.2061 145.533 22.5301 144.857 22.5301 144.023C22.5301 143.47 22.0821 143.023 21.5301 143.023C20.9771 143.023 20.5301 143.47 20.5301 144.023C20.5301 144.857 19.8541 145.533 19.0201 145.533C18.4681 145.533 18.0201 145.98 18.0201 146.533C18.0201 147.086 18.4681 147.533 19.0201 147.533C19.8541 147.533 20.5301 148.209 20.5301 149.043C20.5301 149.595 20.9771 150.043 21.5301 150.043C22.0821 150.043 22.5301 149.595 22.5301 149.043C22.5301 148.209 23.2061 147.533 24.0401 147.533C24.5921 147.533 25.0401 147.086 25.0401 146.533C25.0401 145.98 24.5921 145.533 24.0401 145.533ZM36.6465 51.6791C36.9025 51.6791 37.1585 51.5811 37.3535 51.3861L38.5375 50.2021C38.9275 49.8121 38.9275 49.1791 38.5375 48.7881C38.1465 48.3981 37.5135 48.3981 37.1235 48.7881L35.9395 49.9721C35.5485 50.3631 35.5485 50.9951 35.9395 51.3861C36.1345 51.5811 36.3905 51.6791 36.6465 51.6791V51.6791ZM32.6207 54.7055C32.2297 54.3145 31.5977 54.3145 31.2067 54.7055L30.0237 55.8885C29.6327 56.2785 29.6327 56.9115 30.0237 57.3025C30.2187 57.4975 30.4747 57.5955 30.7307 57.5955C30.9867 57.5955 31.2427 57.4975 31.4377 57.3025L32.6207 56.1195C33.0117 55.7285 33.0117 55.0965 32.6207 54.7055ZM37.1231 57.3021C37.3181 57.4971 37.5741 57.5951 37.8301 57.5951C38.0861 57.5951 38.3421 57.4971 38.5381 57.3021C38.9281 56.9111 38.9281 56.2781 38.5371 55.8881L37.3531 54.7051C36.9631 54.3151 36.3301 54.3151 35.9391 54.7051C35.5491 55.0961 35.5491 55.7301 35.9391 56.1191L37.1231 57.3021ZM31.2066 51.3861C31.4016 51.5811 31.6576 51.6791 31.9136 51.6791C32.1696 51.6791 32.4256 51.5811 32.6206 51.3861C33.0116 50.9951 33.0116 50.3631 32.6206 49.9721L31.4376 48.7881C31.0466 48.3981 30.4146 48.3981 30.0236 48.7881C29.6326 49.1791 29.6326 49.8121 30.0236 50.2021L31.2066 51.3861ZM222.926 94.9652C222.093 94.9652 221.416 94.2872 221.416 93.4552C221.416 92.6222 222.093 91.9442 222.926 91.9442C223.759 91.9442 224.436 92.6222 224.436 93.4552C224.436 94.2872 223.759 94.9652 222.926 94.9652ZM222.926 89.9442C220.99 89.9442 219.416 91.5202 219.416 93.4552C219.416 95.3912 220.99 96.9652 222.926 96.9652C224.862 96.9652 226.436 95.3912 226.436 93.4552C226.436 91.5202 224.862 89.9442 222.926 89.9442Z" fill="#0E0F10"/>
</svg>
