<svg width="402" height="201" viewBox="0 0 402 201" fill="none" xmlns="http://www.w3.org/2000/svg">
<path opacity="0.3" fill-rule="evenodd" clip-rule="evenodd" d="M202.584 171.308C202.584 175.315 199.334 178.564 195.328 178.564H153.54C147.464 178.564 142.54 183.488 142.54 189.564C142.54 195.637 147.464 200.562 153.54 200.562H363.884C378.794 200.562 390.884 188.474 390.884 173.562V173.552C390.884 158.64 378.794 146.552 363.884 146.552H339.314C326.058 146.552 315.314 135.807 315.314 122.552C315.314 109.297 326.058 98.5522 339.314 98.5522H348.348C373.716 98.5522 394.283 77.9862 394.283 52.6172C394.283 27.2472 373.716 6.68124 348.348 6.68124H166.87C148.636 6.68124 133.852 21.4612 133.852 39.6912C133.852 57.9212 148.636 72.7112 166.872 72.7112H183.37C189.07 72.7112 193.69 77.3312 193.69 83.0312C193.69 88.7312 189.07 93.3512 183.37 93.3512H36.353C16.833 93.3512 1.013 109.171 1.013 128.691V128.701C1.013 148.211 16.835 164.041 36.353 164.041H195.328C199.335 164.041 202.584 167.281 202.584 171.291" fill="#141414"/>
<path fill-rule="evenodd" clip-rule="evenodd" d="M80.94 152.052H75.176V155.052C75.176 155.605 74.728 156.052 74.176 156.052H71.176V160.052H77.176C77.728 160.052 78.176 160.499 78.176 161.052V172.052H80.939V152.052H80.94Z" fill="#131416"/>
<path fill-rule="evenodd" clip-rule="evenodd" d="M256.93 155.052V146.419H256.298C256.23 146.419 256.171 146.399 256.108 146.389C256.042 146.399 255.978 146.409 255.911 146.409C253.351 148.429 251.691 151.549 251.691 155.059V159.859C251.691 161.739 250.171 163.259 248.291 163.259H237.491C235.071 163.259 233.091 165.239 233.091 167.659C233.091 170.079 235.071 172.059 237.491 172.059H267.501C261.251 168.949 256.941 162.509 256.941 155.059" fill="#1C1E21"/>
<path fill-rule="evenodd" clip-rule="evenodd" d="M290.937 161.252H305.937C306.709 161.252 307.337 160.624 307.337 159.852V155.052C307.337 147.884 313.167 142.052 320.337 142.052H322.63C323.236 142.052 323.73 141.559 323.73 140.952C323.73 140.346 323.236 139.852 322.63 139.852H303.417V141.422C303.417 144.177 301.177 146.419 298.425 146.419H294.445C294.377 146.419 294.318 146.399 294.253 146.389C294.125 146.399 294.001 146.429 293.871 146.429C291.131 146.429 288.891 144.199 288.891 141.449C288.891 139.569 287.371 138.039 285.491 138.039H273.891V158.159C273.891 162.869 272.781 167.319 270.811 171.269C272.431 171.789 274.151 172.069 275.941 172.069H286.311C285.221 170.919 284.551 169.379 284.551 167.669C284.551 164.139 287.421 161.269 290.951 161.269L290.937 161.252ZM308.541 127.069C309.311 127.069 309.941 126.439 309.941 125.659C309.951 121.309 312.211 117.489 315.611 115.279H297.9C301.203 117.239 303.43 120.829 303.43 124.949V127.079H308.535L308.541 127.069Z" fill="#26282C"/>
<path fill-rule="evenodd" clip-rule="evenodd" d="M265.27 141.432C265.27 144.182 263.033 146.419 260.284 146.419H258.93V155.059C258.93 161.939 263.043 167.859 268.93 170.539C270.817 166.819 271.887 162.619 271.887 158.169V138.049H268.669C266.789 138.049 265.269 139.579 265.269 141.449" fill="#26282C"/>
<path fill-rule="evenodd" clip-rule="evenodd" d="M325.668 113.252H329.822C337.707 113.252 344.336 107.847 346.25 100.552H343.84C343.63 100.552 343.427 100.532 343.222 100.522C343.015 100.532 342.812 100.552 342.604 100.552H337.277C335.807 106.482 331.385 111.272 325.667 113.252H325.668ZM275.45 108.448C274.588 108.448 273.887 109.148 273.887 110.01V113.253H277.011V110.01C277.011 109.15 276.311 108.448 275.451 108.448" fill="#1C1E21"/>
<path fill-rule="evenodd" clip-rule="evenodd" d="M257.606 111.474C258.083 110.962 258.713 110.611 259.41 110.486C260.258 110.334 261.127 110.256 261.992 110.256H264.194C265.904 110.256 267.297 111.578 267.442 113.252H271.887V110.01C271.887 108.045 273.485 106.448 275.449 106.448C277.409 106.448 279.009 108.045 279.009 110.01V113.252H282.359C282.499 111.578 283.899 110.257 285.609 110.257H287.809C288.669 110.257 289.539 110.327 290.389 110.477C291.299 110.637 292.099 111.187 292.589 111.977C292.829 112.367 292.979 112.797 293.039 113.237H325.649C331.359 111.257 335.779 106.467 337.259 100.537H335.819C329.199 100.537 323.819 95.1473 323.819 88.5373V74.5373C323.819 69.4773 326.969 65.1473 331.419 63.3873C329.919 54.9073 322.509 48.4373 313.609 48.4373H265.109C255.729 48.4373 248.109 56.0573 248.109 65.4373V66.0373H265.059C265.609 66.0373 266.059 66.4773 266.059 67.0373H275.609C275.609 66.4773 276.059 66.0373 276.609 66.0373H287.409C291.929 66.0373 295.609 69.7073 295.609 74.2373V82.0373C295.609 92.5073 287.079 101.037 276.609 101.037H257.409C254.109 101.037 251.009 100.187 248.299 98.6973C249.119 104.307 252.679 109.017 257.569 111.447" fill="#26282C"/>
<path fill-rule="evenodd" clip-rule="evenodd" d="M286.236 74.2522V82.0522C286.236 89.9052 281.132 96.6082 274.083 99.0522H276.636C286.01 99.0522 293.636 91.4262 293.636 82.0522V74.2522C293.636 70.8322 290.856 68.0522 287.436 68.0522H282.67C284.797 69.3072 286.236 71.6162 286.236 74.2522" fill="#26282C"/>
<path fill-rule="evenodd" clip-rule="evenodd" d="M273.144 88.8663C273.144 90.4823 271.821 91.8043 270.204 91.8043H264.328C262.711 91.8043 261.388 90.4823 261.388 88.8663C261.388 87.2503 262.711 85.9283 264.328 85.9283H270.205C271.821 85.9283 273.145 87.2503 273.145 88.8663H273.144ZM247.315 88.8663C247.315 87.2503 248.638 85.9283 250.255 85.9283H253.781C255.401 85.9283 256.721 87.2503 256.721 88.8663C256.721 90.4823 255.401 91.8043 253.781 91.8043H250.261C248.651 91.8043 247.321 90.4823 247.321 88.8663H247.315ZM265.091 68.0533H246.641C243.221 68.0533 240.441 70.8333 240.441 74.2533V82.0533C240.441 91.4273 248.071 99.0533 257.441 99.0533H274.091C281.141 96.6093 286.251 89.9063 286.251 82.0533V74.2533C286.251 71.6173 284.811 69.3073 282.681 68.0533H276.651C276.101 68.0533 275.651 67.6053 275.651 67.0533H266.101C266.101 67.6053 265.661 68.0533 265.101 68.0533" fill="#2F3237"/>
<path fill-rule="evenodd" clip-rule="evenodd" d="M264.327 85.9282C262.711 85.9282 261.387 87.2482 261.387 88.8652C261.387 90.4822 262.711 91.8052 264.327 91.8052H270.204C271.821 91.8052 273.144 90.4822 273.144 88.8652C273.144 87.2492 271.821 85.9272 270.204 85.9272H264.327V85.9282ZM250.254 91.8042H253.781C255.401 91.8042 256.721 90.4822 256.721 88.8662C256.721 87.2492 255.401 85.9262 253.781 85.9262H250.261C248.651 85.9262 247.321 87.2492 247.321 88.8662C247.321 90.4822 248.641 91.8042 250.261 91.8042H250.254ZM346.461 57.0842C347.001 56.9342 347.551 57.2472 347.691 57.7792C347.801 58.1892 347.911 58.5892 347.991 58.9992C348.111 59.5392 347.771 60.0792 347.231 60.1892C347.211 60.1992 347.201 60.1892 347.181 60.1992C347.311 60.9792 347.391 61.7592 347.431 62.5592H349.621C350.251 62.5592 350.851 62.6292 351.451 62.7192C351.131 54.4992 345.571 47.5992 338.011 45.2892C341.411 47.2592 344.261 50.1692 346.141 53.8092C346.401 54.2992 346.211 54.9092 345.711 55.1592C345.701 55.1692 345.681 55.1692 345.671 55.1692C345.961 55.8092 346.221 56.4592 346.451 57.1292C346.471 57.1292 346.481 57.1192 346.491 57.1092" fill="#1C1E21"/>
<path fill-rule="evenodd" clip-rule="evenodd" d="M267.53 46.4532H313.63C323.432 46.4532 331.597 53.5152 333.358 62.8132C334.158 62.6432 334.988 62.5532 335.838 62.5532H342.604C342.8 62.5532 342.992 62.5762 343.187 62.5862C343.404 62.5742 343.617 62.5532 343.837 62.5532H347.42C347.384 61.7532 347.303 60.9652 347.176 60.1912C347.121 60.2012 347.066 60.2092 347.013 60.2092C346.553 60.2092 346.137 59.8892 346.036 59.4292C345.956 59.0592 345.866 58.6892 345.763 58.3292C345.618 57.8192 345.913 57.2892 346.419 57.1192C346.189 56.4592 345.929 55.8092 345.639 55.1692C345.159 55.3992 344.579 55.2092 344.329 54.7292C341.039 48.3992 334.579 44.4692 327.449 44.4692H270.349C269.039 44.4692 267.929 45.3092 267.519 46.4692" fill="#131416"/>
<path fill-rule="evenodd" clip-rule="evenodd" d="M349.604 64.5522H349.23C350.297 65.2622 351.264 66.1402 352.078 67.1862C352.418 67.6212 352.338 68.2502 351.903 68.5892C351.888 68.6092 351.869 68.6092 351.853 68.6192C352.957 70.3392 353.603 72.3692 353.603 74.5592V87.5592C354.156 87.5592 354.603 88.0092 354.603 88.5592C354.603 92.7292 352.463 96.4092 349.223 98.5592H349.603C355.118 98.5592 359.603 94.0792 359.603 88.5592V74.5592C359.603 69.0492 355.118 64.5592 349.603 64.5592" fill="#1C1E21"/>
<path fill-rule="evenodd" clip-rule="evenodd" d="M344.72 86.9382C344.72 89.7002 342.483 91.9382 339.72 91.9382H336.72C333.96 91.9382 331.72 89.7002 331.72 86.9382V76.1682C331.72 73.4052 333.96 71.1682 336.72 71.1682H339.72C342.483 71.1682 344.72 73.4052 344.72 76.1682V86.9382ZM351.854 68.6143C351.421 68.9143 350.827 68.8342 350.499 68.4142C348.579 65.9602 345.709 64.5522 342.599 64.5522H335.829C330.309 64.5522 325.829 69.0392 325.829 74.5522V88.5522C325.829 94.0662 330.309 98.5522 335.829 98.5522H342.589C348.099 98.5522 352.589 94.0662 352.589 88.5522C352.589 88.0002 353.039 87.5522 353.589 87.5522V74.5522C353.589 72.3622 352.939 70.3283 351.839 68.6143H351.854Z" fill="#1C1E21"/>
<path fill-rule="evenodd" clip-rule="evenodd" d="M339.72 71.1663H336.72C333.96 71.1663 331.72 73.4063 331.72 76.1663V86.9383C331.72 89.6983 333.96 91.9383 336.72 91.9383H339.72C342.483 91.9383 344.72 89.6983 344.72 86.9383V76.1663C344.72 73.4063 342.483 71.1663 339.72 71.1663Z" fill="#26282C"/>
<path fill-rule="evenodd" clip-rule="evenodd" d="M200.004 186.623C200.004 185.92 199.431 185.347 198.727 185.347H194.033V187.897H198.727C199.431 187.897 200.004 187.317 200.004 186.617V186.623ZM301.418 141.417V139.847H298.863V141.417C298.863 142.547 298.473 143.577 297.839 144.407H298.419C300.069 144.407 301.409 143.057 301.409 141.407L301.418 141.417ZM301.409 127.037V124.907C301.409 120.567 298.399 116.927 294.359 115.927C297.079 117.977 298.849 121.227 298.849 124.897V127.027H301.399L301.409 127.037ZM260.699 141.417C260.699 142.537 260.309 143.567 259.679 144.397H260.269C261.909 144.397 263.249 143.057 263.249 141.417C263.249 140.127 263.699 138.947 264.459 138.017H264.089C262.209 138.017 260.689 139.537 260.689 141.417H260.699ZM287.589 113.657C288.769 113.657 289.909 113.837 290.979 114.177L291.009 114.057C291.109 113.707 291.059 113.327 290.869 113.007C290.669 112.697 290.369 112.487 290.019 112.427C289.279 112.297 288.529 112.227 287.789 112.227H285.589C284.879 112.227 284.309 112.797 284.309 113.497V113.637H287.579L287.589 113.657ZM261.969 113.657H265.449V113.517C265.449 112.807 264.869 112.237 264.169 112.237H261.969C261.219 112.237 260.469 112.297 259.739 112.427C259.379 112.487 259.079 112.697 258.889 113.007C258.689 113.317 258.639 113.697 258.749 114.047C258.749 114.067 258.759 114.087 258.769 114.107C259.779 113.807 260.849 113.637 261.969 113.637" fill="#1C1E21"/>
<path fill-rule="evenodd" clip-rule="evenodd" d="M255.728 144.418C257.375 144.418 258.714 143.08 258.714 141.434C258.714 138.454 261.137 136.032 264.114 136.032H271.887V130.477H271.387C269.579 130.477 268.107 129.007 268.107 127.197C268.107 125.387 269.579 123.917 271.387 123.917C271.574 123.917 271.737 123.977 271.887 124.067V115.667H261.991C256.901 115.667 252.751 119.817 252.751 124.917V127.347C255.381 127.777 257.531 129.807 257.931 132.417C258.211 134.197 257.701 135.997 256.541 137.357C255.561 138.497 254.221 139.227 252.761 139.437V141.427C252.761 143.077 254.101 144.417 255.751 144.417L255.728 144.418ZM290.911 141.427C290.911 143.077 292.251 144.417 293.891 144.417C295.541 144.417 296.891 143.067 296.891 141.417V139.847H292.351C291.751 139.847 291.161 139.747 290.591 139.587C290.801 140.157 290.921 140.777 290.921 141.417L290.911 141.427ZM285.521 136.017C285.881 136.017 286.221 136.047 286.561 136.117C286.041 134.977 285.841 133.697 286.041 132.427C286.521 129.347 289.311 127.027 292.521 127.027H296.901V124.897C296.901 119.797 292.751 115.647 287.651 115.647H273.9V124.897H275.76C275.76 124.347 276.21 123.897 276.76 123.897H278.234C280.042 123.897 281.512 125.367 281.512 127.177C281.512 128.987 280.042 130.447 278.24 130.447H273.9V135.997H285.5L285.521 136.017Z" fill="#26282C"/>
<path fill-rule="evenodd" clip-rule="evenodd" d="M273.887 128.478H278.219C278.919 128.478 279.489 127.904 279.489 127.2C279.489 126.496 278.909 125.922 278.209 125.922H276.729C276.179 125.922 275.729 125.475 275.729 124.922H273.869V128.477L273.887 128.478ZM271.887 125.768C271.737 125.858 271.573 125.922 271.387 125.922C270.682 125.922 270.109 126.496 270.109 127.2C270.109 127.904 270.679 128.477 271.379 128.477H271.879V125.767L271.887 125.768ZM251.875 137.513C253.075 137.513 254.218 136.985 255.007 136.063C255.804 135.133 256.137 133.95 255.947 132.733C255.64 130.755 253.822 129.263 251.719 129.263H249.829C249.119 129.263 248.549 129.837 248.549 130.541V136.236C248.549 136.94 249.119 137.513 249.819 137.513H251.849H251.875Z" fill="#1C1E21"/>
<path fill-rule="evenodd" clip-rule="evenodd" d="M363.012 140.363L359.319 153.026C359.199 153.436 359.419 153.716 359.519 153.816C359.619 153.916 359.899 154.136 360.309 154.018L372.969 150.325C376.159 149.393 378.479 146.539 378.729 143.221C378.909 140.883 378.059 138.591 376.399 136.931C374.879 135.418 372.839 134.578 370.719 134.578C370.509 134.578 370.309 134.586 370.109 134.601C366.789 134.854 363.939 137.171 362.999 140.363" fill="#26282C"/>
<path fill-rule="evenodd" clip-rule="evenodd" d="M338.227 171.588C338.282 171.563 338.34 171.542 338.399 171.528C345.949 169.602 351.219 162.826 351.219 155.052V132.252C351.219 122.878 343.589 115.252 334.219 115.252H322.319C316.589 115.252 311.919 119.912 311.919 125.642C311.919 127.522 310.389 129.052 308.519 129.052H292.479C290.229 129.052 288.299 130.642 287.969 132.752C287.759 134.052 288.119 135.312 288.969 136.305C289.809 137.288 291.029 137.852 292.309 137.852H322.619C324.329 137.852 325.719 139.242 325.719 140.952C325.719 142.662 324.329 144.052 322.619 144.052H320.319C314.249 144.052 309.319 148.986 309.319 155.052V159.852C309.319 161.727 307.789 163.252 305.919 163.252H290.919C288.489 163.252 286.519 165.226 286.519 167.652C286.519 170.078 288.489 172.052 290.919 172.052H336.119C336.839 172.052 337.539 171.896 338.209 171.589L338.227 171.588ZM169.929 158.059H175.929V152.059H169.929V158.059ZM82.929 172.059H88.929V152.059H82.929V172.059ZM150.579 95.2292L136.899 108.899C136.509 109.289 135.869 109.289 135.479 108.899L125.479 98.9092L112.519 111.869C112.329 112.059 112.069 112.169 111.809 112.169C111.539 112.169 111.289 112.069 111.099 111.879L97.99 98.7182L90.438 106.274V114.044L97.278 107.198C97.648 106.822 98.318 106.822 98.688 107.198L111.828 120.338L124.788 107.378C125.162 107.004 125.828 107.004 126.201 107.378L136.201 117.378L149.881 103.702C150.261 103.327 150.921 103.327 151.301 103.702L156.441 108.839V100.989C156.351 100.949 156.271 100.899 156.191 100.829L150.601 95.2292H150.579ZM122.239 144.559H128.739L125.489 141.309L122.239 144.559ZM90.43 92.8482L92.72 90.5582H90.43" fill="#1C1E21"/>
<path fill-rule="evenodd" clip-rule="evenodd" d="M149.888 135.502C150.263 135.127 150.928 135.127 151.302 135.502L156.439 140.639V132.789C156.349 132.749 156.259 132.699 156.189 132.629L150.589 127.039L136.909 140.719C136.519 141.109 135.879 141.109 135.489 140.719L125.489 130.719L112.529 143.679C112.339 143.869 112.079 143.979 111.819 143.979C111.549 143.979 111.299 143.879 111.109 143.689L97.979 130.539L90.419 138.099V144.579H91.709L97.259 139.029C97.629 138.659 98.299 138.659 98.669 139.029L104.229 144.589H119.399L124.769 139.219C125.139 138.849 125.809 138.849 126.179 139.219L131.549 144.599H140.789L149.839 135.549L149.888 135.502Z" fill="#131416"/>
<path fill-rule="evenodd" clip-rule="evenodd" d="M120.428 90.5522H103.258L111.843 99.1382L120.428 90.5522ZM136.213 96.1762L141.838 90.5522H130.59" fill="#1C1E21"/>
<path fill-rule="evenodd" clip-rule="evenodd" d="M98.7 117.796L111.843 130.938L124.803 117.978C125.193 117.588 125.825 117.588 126.216 117.978L136.214 127.976L149.888 114.301C150.263 113.926 150.928 113.926 151.302 114.301L156.439 119.438V111.582C156.349 111.536 156.259 111.489 156.189 111.416L150.589 105.822L136.909 119.497C136.719 119.677 136.469 119.787 136.199 119.787C135.929 119.787 135.679 119.677 135.489 119.487L125.489 109.487L112.529 122.447C112.339 122.637 112.079 122.737 111.819 122.737C111.549 122.737 111.299 122.627 111.109 122.437L97.969 109.297L90.409 116.847V124.617L97.249 117.767C97.639 117.377 98.269 117.377 98.659 117.767" fill="#131416"/>
<path fill-rule="evenodd" clip-rule="evenodd" d="M98.7 128.396L111.843 141.539L124.803 128.579C125.193 128.189 125.825 128.189 126.216 128.579L136.214 138.579L149.888 124.909C150.278 124.519 150.911 124.519 151.302 124.909L156.439 130.049V122.199C156.349 122.159 156.259 122.109 156.189 122.039L150.589 116.449L136.909 130.129C136.519 130.519 135.879 130.519 135.489 130.129L125.489 120.139L112.529 133.099C112.329 133.299 112.069 133.399 111.819 133.399C111.559 133.399 111.309 133.299 111.109 133.109L97.979 119.949L90.419 127.499V135.279L97.269 128.429C97.639 128.059 98.309 128.059 98.679 128.429L98.7 128.396ZM94.539 144.579H101.409L97.969 141.149" fill="#1C1E21"/>
<path fill-rule="evenodd" clip-rule="evenodd" d="M144.666 90.5522L136.921 98.2972C136.741 98.4772 136.481 98.5872 136.221 98.5872C135.961 98.5872 135.701 98.4772 135.511 98.2872L127.771 90.5372H123.271L112.561 101.247C112.381 101.437 112.121 101.537 111.861 101.537C111.601 101.537 111.341 101.427 111.161 101.237L100.461 90.5372H95.591L90.471 95.6572V103.427L97.321 96.5772C97.701 96.1972 98.361 96.1972 98.741 96.5772L111.891 109.717L124.851 96.7572C125.241 96.3672 125.871 96.3672 126.261 96.7572L136.261 106.757L149.931 93.0872C150.311 92.7072 150.971 92.7072 151.351 93.0872L156.491 98.2272V90.5472H144.7L144.666 90.5522Z" fill="#131416"/>
<path fill-rule="evenodd" clip-rule="evenodd" d="M156.44 144.552V143.382C156.35 143.336 156.263 143.29 156.19 143.216L150.595 137.622L143.665 144.552H156.439H156.44ZM163.343 98.5522C163.343 100.758 165.137 102.552 167.343 102.552C169.549 102.552 171.343 100.758 171.343 98.5522C171.343 96.3462 169.549 94.5522 167.343 94.5522C165.137 94.5522 163.343 96.3462 163.343 98.5522ZM98.64 172.052H105.64V160.052H98.64" fill="#1C1E21"/>
<path fill-rule="evenodd" clip-rule="evenodd" d="M161.052 169.078H152.052C151.499 169.078 151.052 168.631 151.052 168.078V166.078C151.052 165.526 151.499 165.078 152.052 165.078H161.052C161.604 165.078 162.052 165.526 162.052 166.078V168.078C162.052 168.631 161.604 169.078 161.052 169.078ZM148.052 168.078C148.052 168.631 147.604 169.078 147.052 169.078H138.052C137.499 169.078 137.052 168.631 137.052 168.078V166.078C137.052 165.526 137.499 165.078 138.052 165.078H147.052C147.604 165.078 148.052 165.526 148.052 166.078V168.078ZM131.64 172.053H164.64V163.053H131.64V172.053ZM169.94 172.053H184.64V160.053H166.64V172.053H169.94ZM123.64 172.053H129.64V160.053H107.64V172.053H120.64" fill="#26282C"/>
<path fill-rule="evenodd" clip-rule="evenodd" d="M30.176 172.052H34.176V168.052H30.176V172.052ZM53.94 172.052H76.176V168.052H36.176V172.052H53.94ZM30.176 166.052H34.176V162.052H30.176" fill="#1C1E21"/>
<path fill-rule="evenodd" clip-rule="evenodd" d="M70.176 162.052H36.176V166.052H76.176V162.052" fill="#26282C"/>
<path fill-rule="evenodd" clip-rule="evenodd" d="M26.176 156.052H23.176V160.052H27.176V156.052H26.176ZM63.176 160.052H69.176V156.052H29.176V160.052H35.176H63.176ZM31.176 154.052V150.052H27.176V154.052H28.176" fill="#1C1E21"/>
<path fill-rule="evenodd" clip-rule="evenodd" d="M33.176 150.052V154.052H73.176V150.052H52.94" fill="#26282C"/>
<path fill-rule="evenodd" clip-rule="evenodd" d="M194.306 16.5542C201.576 5.04425 218.519 10.3742 218.519 22.7562C217.249 34.8462 205.059 33.3462 201.129 32.5382C200.419 32.3922 199.909 31.7682 199.909 31.0402V28.1902C199.909 27.1672 200.889 26.4502 201.879 26.7302C205.719 27.8122 208.649 26.8832 208.649 23.3722C208.649 19.7692 203.059 18.5792 200.229 21.3992C199.639 21.9892 198.729 22.0692 198.099 21.5392L194.589 18.5492C194.009 18.0592 193.879 17.2092 194.279 16.5692L194.306 16.5542ZM205.639 46.6692C202.709 46.6692 200.369 44.3292 200.369 41.4092C200.369 38.4392 202.709 36.0392 205.629 36.0392C208.609 36.0392 210.999 38.4392 210.999 41.4092C210.999 44.3392 208.609 46.6792 205.629 46.6792L205.639 46.6692ZM203.019 57.0692C210.419 57.6692 217.279 55.4392 222.659 51.3592C223.109 51.0192 223.679 50.8692 224.229 50.9692L235 52.9482C236.593 53.2482 237.855 51.6182 237.18 50.1482L232.36 39.7082C232.14 39.2282 232.124 38.6882 232.3 38.1882C233.585 34.5882 234.175 30.6682 233.89 26.5682C232.917 12.5182 221.552 1.09825 207.512 0.0782463C189.962 -1.20175 175.462 13.3982 176.892 30.9782C178.022 44.7882 189.195 55.9582 203.006 57.0682" fill="#0E0F10"/>
<path fill-rule="evenodd" clip-rule="evenodd" d="M329.73 172.052H290.937C288.51 172.052 286.537 170.078 286.537 167.652C286.537 165.226 288.511 163.252 290.937 163.252H305.937C307.812 163.252 309.337 161.727 309.337 159.852V155.052C309.337 148.987 314.272 144.052 320.337 144.052H322.63C324.34 144.052 325.73 142.662 325.73 140.952C325.73 139.242 324.34 137.852 322.63 137.852H292.32C291.04 137.852 289.82 137.288 288.98 136.305C288.13 135.313 287.773 134.051 287.976 132.752C288.306 130.642 290.243 129.052 292.486 129.052H308.522C310.394 129.052 311.919 127.522 311.922 125.642C311.927 119.912 316.592 115.252 322.322 115.252H334.22C343.595 115.252 351.22 122.878 351.22 132.252V155.052C351.22 162.826 345.95 169.602 338.4 171.528C338.34 171.542 338.282 171.563 338.227 171.588C337.562 171.896 336.857 172.052 336.137 172.052H329.73ZM297.84 144.419C298.472 143.589 298.862 142.559 298.862 141.429V139.859H301.418V141.429C301.418 143.089 300.075 144.429 298.425 144.429H297.839L297.84 144.419ZM290.673 139.939C290.629 139.789 290.753 139.659 290.906 139.699C291.366 139.809 291.84 139.869 292.321 139.869H295.421C296.221 139.869 296.871 140.519 296.871 141.319V141.329C296.871 142.649 296.091 143.899 294.841 144.299C292.791 144.949 290.911 143.429 290.911 141.469C290.911 140.949 290.841 140.449 290.701 139.969L290.673 139.939ZM286.301 172.059H275.931C274.151 172.059 272.431 171.779 270.811 171.269C272.781 167.319 273.901 162.879 273.901 158.169V138.039H285.501C287.381 138.039 288.901 139.569 288.901 141.449C288.901 144.199 291.141 146.429 293.881 146.429C294.011 146.429 294.141 146.399 294.271 146.389C294.341 146.409 294.401 146.429 294.471 146.429H298.451C301.201 146.429 303.441 144.189 303.441 141.429V139.859H322.651C323.261 139.859 323.751 140.359 323.751 140.959C323.751 141.569 323.261 142.059 322.651 142.059H320.361C313.191 142.059 307.361 147.899 307.361 155.059V159.859C307.361 160.639 306.731 161.259 305.961 161.259H290.961C287.431 161.259 284.561 164.129 284.561 167.659C284.561 169.369 285.241 170.919 286.331 172.059H286.301ZM268.931 170.539C263.051 167.869 258.931 161.939 258.931 155.069V147.769C258.931 147.029 259.531 146.429 260.271 146.429C262.981 146.429 265.371 144.279 265.281 141.569C265.211 139.639 266.761 138.049 268.681 138.049H271.901V158.169C271.901 162.619 270.831 166.819 268.951 170.539H268.931ZM237.491 172.069C234.921 172.069 232.861 169.859 233.111 167.229C233.331 164.949 235.391 163.269 237.691 163.269H248.301C250.181 163.269 251.701 161.749 251.701 159.869V155.069C251.701 151.559 253.361 148.439 255.931 146.419C256.001 146.419 256.061 146.409 256.131 146.399C256.201 146.409 256.251 146.439 256.321 146.439H256.951V155.079C256.951 160.389 259.151 165.189 262.681 168.639C263.971 169.899 263.111 172.089 261.311 172.089H237.511L237.491 172.069ZM264.251 138.369C263.631 139.269 263.271 140.349 263.281 141.519C263.301 143.159 261.881 144.439 260.251 144.439H259.721C260.341 143.629 260.721 142.629 260.741 141.539C260.771 139.639 262.211 138.059 264.111 138.059C264.281 138.059 264.361 138.239 264.271 138.379L264.251 138.369ZM271.901 125.789V128.499H271.401C270.701 128.499 270.121 127.929 270.121 127.219C270.121 126.519 270.701 125.949 271.401 125.949C271.591 125.949 271.751 125.889 271.901 125.799V125.789ZM252.761 141.299C252.761 140.319 253.361 139.429 254.261 139.049C255.131 138.689 255.921 138.129 256.551 137.389C257.721 136.029 258.231 134.229 257.951 132.449C257.631 130.379 256.201 128.669 254.311 127.839C253.401 127.439 252.781 126.579 252.781 125.579V124.959C252.781 119.859 256.921 115.709 262.031 115.709H266.591C269.541 115.709 271.931 118.109 271.931 121.049V124.119C271.781 124.029 271.621 123.969 271.431 123.969C269.401 123.969 267.791 125.829 268.221 127.939C268.541 129.469 269.961 130.529 271.521 130.529H271.931V136.089H264.161C261.221 136.089 258.651 138.449 258.761 141.379C258.831 143.169 257.321 144.619 255.521 144.469C253.951 144.339 252.801 142.919 252.801 141.339L252.761 141.299ZM251.891 137.539H249.861C249.161 137.539 248.591 136.969 248.591 136.269V130.569C248.591 129.869 249.171 129.299 249.871 129.299H251.751C253.861 129.299 255.671 130.789 255.981 132.769C256.171 133.989 255.841 135.169 255.041 136.099C254.251 137.019 253.111 137.549 251.911 137.549L251.891 137.539ZM265.491 113.559V113.699H262C260.886 113.699 259.813 113.869 258.8 114.169C258.79 114.149 258.784 114.129 258.78 114.109C258.674 113.759 258.726 113.379 258.92 113.069C259.11 112.759 259.413 112.559 259.77 112.489C260.5 112.359 261.252 112.299 262 112.299H264.2C264.905 112.299 265.478 112.869 265.478 113.579L265.491 113.559ZM284.361 113.699V113.559C284.361 112.859 284.941 112.289 285.641 112.289H287.841C288.591 112.289 289.341 112.359 290.071 112.489C290.431 112.549 290.731 112.759 290.921 113.069C291.121 113.379 291.171 113.759 291.061 114.119L291.031 114.239C289.961 113.899 288.821 113.719 287.641 113.719H284.371L284.361 113.699ZM273.911 110.159V110.129C273.911 109.359 274.441 108.629 275.211 108.499C276.191 108.339 277.041 109.099 277.041 110.049V113.289C275.321 113.289 273.921 111.899 273.921 110.169L273.911 110.159ZM286.551 136.159C286.221 136.099 285.871 136.059 285.521 136.059H273.9V130.509H278.14C279.7 130.509 281.124 129.449 281.44 127.919C281.87 125.809 280.262 123.959 278.23 123.959H276.755C276.202 123.959 275.755 124.409 275.755 124.959C275.755 125.519 276.202 125.959 276.755 125.959H278.229C278.939 125.959 279.509 126.539 279.509 127.239C279.509 127.939 278.939 128.519 278.229 128.519H273.899V121.049C273.899 118.099 276.289 115.709 279.239 115.709H287.629C292.729 115.709 296.869 119.849 296.869 124.959V125.639C296.869 126.439 296.219 127.089 295.419 127.089H292.499C289.279 127.089 286.489 129.409 286.009 132.479C285.809 133.749 286.009 135.029 286.529 136.169L286.551 136.159ZM294.391 115.969C298.431 116.969 301.441 120.609 301.441 124.949V127.079H298.891V124.949C298.891 121.279 297.121 118.029 294.401 115.979L294.391 115.969ZM300.811 115.279H312.821C313.701 115.279 314.161 116.339 313.541 116.969C311.321 119.209 309.951 122.279 309.941 125.669C309.941 126.449 309.321 127.089 308.551 127.089H303.451V124.959C303.451 121.849 302.171 119.029 300.121 116.989C299.491 116.369 299.941 115.289 300.831 115.289L300.811 115.279ZM249.561 102.999C248.881 101.409 250.341 99.7792 252.001 100.279C253.731 100.799 255.561 101.079 257.461 101.079H276.661C287.161 101.079 295.661 92.5692 295.661 82.0792V74.2792C295.661 69.7492 291.991 66.0792 287.461 66.0792H276.661C276.111 66.0792 275.661 66.5292 275.661 67.0792C275.661 67.6292 276.111 68.0792 276.661 68.0792H287.461C290.891 68.0792 293.661 70.8592 293.661 74.2792V82.0792C293.661 91.4692 286.051 99.0792 276.661 99.0792H257.461C248.071 99.0792 240.461 91.4692 240.461 82.0792V74.2792C240.461 70.8592 243.241 68.0792 246.661 68.0792H265.101C265.651 68.0792 266.101 67.6292 266.101 67.0792C266.101 66.5292 265.651 66.0792 265.101 66.0792H248.741C248.411 66.0792 248.141 65.8092 248.141 65.4792C248.141 56.0892 255.751 48.4792 265.141 48.4792H313.641C322.551 48.4792 329.951 54.9492 331.451 63.4292C327.011 65.1892 323.851 69.5192 323.851 74.5892V88.5892C323.851 95.2192 329.221 100.589 335.851 100.589H337.301C342.001 100.589 344.181 106.509 340.541 109.479C337.621 111.859 333.901 113.289 329.841 113.289H293.071C293.011 112.849 292.861 112.409 292.621 112.019C292.141 111.229 291.331 110.679 290.421 110.519C289.581 110.369 288.711 110.289 287.841 110.289H285.641C283.931 110.289 282.541 111.609 282.391 113.289H279.041V110.149C279.041 108.449 277.891 106.909 276.231 106.569C273.941 106.099 271.921 107.849 271.921 110.059V110.189C271.921 111.919 270.521 113.309 268.801 113.309H267.481C267.341 111.639 265.941 110.319 264.231 110.319H262C261.135 110.319 260.266 110.399 259.418 110.549C258.721 110.669 258.091 111.026 257.614 111.539C254.019 109.749 251.144 106.729 249.548 103.039L249.561 102.999ZM270.381 44.4792H327.491C334.621 44.4792 341.081 48.4092 344.371 54.7392C344.621 55.2192 345.201 55.3992 345.681 55.1792C345.701 55.1792 345.711 55.1792 345.721 55.1692C346.211 54.9192 346.401 54.3092 346.151 53.8192C345.871 53.2792 345.561 52.7492 345.241 52.2292C344.571 51.1792 346.031 50.1092 346.851 51.0492C349.171 53.7292 350.751 57.0692 351.281 60.7392C351.421 61.7192 350.641 62.5792 349.661 62.5792H343.881C343.661 62.5792 343.451 62.5992 343.231 62.6192C343.041 62.6092 342.841 62.5892 342.651 62.5892H335.891C335.521 62.5892 335.161 62.6092 334.801 62.6392C334.021 62.7092 333.301 62.2492 333.101 61.4992C330.841 52.8792 323.001 46.4992 313.681 46.4992H270.4C269.11 46.4992 269.044 44.5192 270.335 44.4992H270.375L270.381 44.4792ZM359.631 74.5792V88.5792C359.631 94.0992 355.151 98.5792 349.631 98.5792H349.251C352.491 96.4292 354.631 92.7492 354.631 88.5792C354.631 88.0292 354.181 87.5792 353.631 87.5792C353.081 87.5792 352.631 88.0292 352.631 88.5792C352.631 94.0992 348.151 98.5792 342.631 98.5792H335.871C330.361 98.5792 325.871 94.0992 325.871 88.5792V74.5792C325.871 69.0692 330.361 64.5792 335.871 64.5792H342.641C345.751 64.5792 348.631 65.9892 350.541 68.4392C350.871 68.8592 351.461 68.9392 351.901 68.6392C351.921 68.6292 351.941 68.6292 351.951 68.6192C352.391 68.2892 352.471 67.6592 352.131 67.2192C351.321 66.1792 350.351 65.2992 349.281 64.5892H349.661C355.171 64.5892 359.661 69.0792 359.661 74.5892L359.631 74.5792ZM198.731 187.909H195.321C194.621 187.909 194.051 187.339 194.051 186.629C194.051 185.929 194.621 185.359 195.331 185.359H198.751C199.461 185.359 200.031 185.929 200.031 186.639C200.031 187.349 199.461 187.919 198.761 187.919L198.731 187.909ZM184.651 170.059C184.651 171.169 183.761 172.059 182.651 172.059H168.651C167.551 172.059 166.651 171.169 166.651 170.059V162.059C166.651 160.959 167.551 160.059 168.651 160.059H182.651C183.761 160.059 184.651 160.959 184.651 162.059V170.059ZM164.651 159.059C164.651 160.169 163.761 161.059 162.651 161.059H133.651C132.551 161.059 131.651 160.169 131.651 159.059C131.651 158.509 131.211 158.059 130.651 158.059H97.651C97.101 158.059 96.651 158.509 96.651 159.059V172.059H90.951V157.059C90.951 155.409 92.291 154.059 93.951 154.059H164.951C166.611 154.059 167.951 155.409 167.951 157.059V158.059H165.651C165.101 158.059 164.651 158.509 164.651 159.059ZM162.651 172.059H133.651C132.551 172.059 131.651 171.169 131.651 170.059V165.059C131.651 163.959 132.551 163.059 133.651 163.059H162.651C163.761 163.059 164.651 163.959 164.651 165.059V170.059C164.651 171.169 163.761 172.059 162.651 172.059ZM129.651 170.059C129.651 171.169 128.761 172.059 127.651 172.059H109.651C108.551 172.059 107.651 171.169 107.651 170.059V162.059C107.651 160.959 108.551 160.059 109.651 160.059H127.651C128.761 160.059 129.651 160.959 129.651 162.059V170.059ZM103.651 172.059H100.651C99.551 172.059 98.651 171.169 98.651 170.059V162.059C98.651 160.959 99.551 160.059 100.651 160.059H103.651C104.761 160.059 105.651 160.959 105.651 162.059V170.059C105.651 171.169 104.761 172.059 103.651 172.059ZM175.951 155.059V158.059H169.951V155.059C169.951 153.409 171.291 152.059 172.951 152.059C174.611 152.059 175.951 153.409 175.951 155.059ZM82.951 146.059V88.0592C82.951 85.8492 84.741 84.0592 86.951 84.0592H171.951C174.161 84.0592 175.951 85.8492 175.951 88.0592V146.059C175.951 148.269 174.161 150.059 171.951 150.059H86.951C84.741 150.059 82.951 148.269 82.951 146.059ZM88.951 172.059H82.951V155.059C82.951 153.409 84.291 152.059 85.951 152.059C87.611 152.059 88.951 153.409 88.951 155.059V172.059ZM76.951 150.059H75.181V149.059C75.181 148.509 74.731 148.059 74.181 148.059H57.94C55.73 148.059 53.94 146.269 53.94 144.059V88.0592C53.94 85.8492 55.73 84.0592 57.94 84.0592H76.94C79.148 84.0592 80.94 85.8492 80.94 88.0592V146.059C80.94 148.269 79.148 150.059 76.94 150.059H76.951ZM79.571 172.059C78.801 172.059 78.191 171.449 78.191 170.679V161.059C78.191 160.509 77.741 160.059 77.191 160.059H72.571C71.801 160.059 71.191 159.449 71.191 158.679V157.439C71.191 156.679 71.801 156.059 72.571 156.059H74.191C74.741 156.059 75.191 155.619 75.191 155.059V152.059H77.951C79.601 152.059 80.951 153.409 80.951 155.059V170.679C80.951 171.449 80.331 172.059 79.571 172.059V172.059ZM76.191 165.059H36.191V164.059C36.191 162.959 37.081 162.059 38.191 162.059H74.191C75.291 162.059 76.191 162.959 76.191 164.059V165.059ZM76.191 172.059H36.17V168.059H76.17V172.059H76.191ZM29.191 160.059V156.059H69.191V160.059H29.191ZM34.191 165.059H30.191V164.059C30.191 162.959 31.081 162.059 32.191 162.059C33.291 162.059 34.191 162.959 34.191 164.059V165.059ZM30.191 172.059H34.191V168.059H30.191V172.059ZM28.191 154.059H27.191V150.059H31.191V152.059C31.191 153.169 30.291 154.059 29.191 154.059H28.191ZM27.191 160.059H23.191V156.059H27.191V160.059ZM33.191 150.059H73.191V152.059C73.191 153.169 72.291 154.059 71.191 154.059H35.191C34.081 154.059 33.191 153.169 33.191 152.059V150.059ZM401.011 172.059H348.891C347.081 172.059 346.221 169.879 347.511 168.619C351.071 165.139 353.221 160.309 353.221 155.059V132.259C353.221 124.459 348.481 117.749 341.741 114.829C340.331 114.219 340.031 112.339 341.261 111.409C344.431 109.009 346.831 105.629 348.001 101.729C348.211 101.029 348.871 100.569 349.601 100.569C356.221 100.569 361.601 95.1992 361.601 88.5692V74.5692C361.601 69.2992 358.181 64.8292 353.451 63.2192C353.311 51.7492 343.951 42.4692 332.461 42.4692H270.351C267.941 42.4692 265.921 44.1892 265.451 46.4692H265.121C254.631 46.4692 246.121 54.9792 246.121 65.4692V66.0892C241.841 66.3592 238.431 69.9192 238.431 74.2692V82.0692C238.431 88.3392 241.491 93.8892 246.181 97.3492C246.581 104.359 250.771 110.349 256.751 113.299C256.691 113.749 256.731 114.219 256.861 114.669C256.891 114.749 256.911 114.829 256.941 114.909C253.281 116.759 250.751 120.559 250.751 124.939V127.279H249.851C248.041 127.279 246.581 128.749 246.581 130.549V136.249C246.581 138.059 248.051 139.529 249.861 139.529H250.771V141.449C250.771 143.389 251.901 145.059 253.521 145.879C251.171 148.239 249.711 151.489 249.711 155.069V159.869C249.711 160.639 249.081 161.269 248.311 161.269H237.791C234.191 161.269 231.081 164.129 231.121 167.739C231.131 168.789 231.391 169.769 231.851 170.639C232.191 171.289 231.681 172.069 230.947 172.069H190.677C188.467 172.069 186.677 170.279 186.677 168.069V159.069C186.677 158.519 186.227 158.069 185.677 158.069H179.977C178.867 158.069 177.977 157.169 177.977 156.069V85.0692C177.977 83.4092 176.631 82.0692 174.977 82.0692H143C142.11 82.0692 141.663 80.9892 142.293 80.3592L159.543 63.1092C159.933 62.7192 159.933 62.0892 159.543 61.6992C159.153 61.3092 158.516 61.3092 158.126 61.6992L146.423 73.4092C140.873 78.9592 133.347 82.0692 125.503 82.0692C117.653 82.0692 110.133 78.9592 104.583 73.4092L92.88 61.6782C92.49 61.2882 91.858 61.2882 91.467 61.6782C91.077 62.0682 91.077 62.7002 91.467 63.0912L108.717 80.3382C109.347 80.9682 108.9 82.0482 108.01 82.0482H54.94C53.282 82.0482 51.94 83.3982 51.94 85.0482V142.048C51.94 145.368 49.252 148.048 45.94 148.048H26.175C25.623 148.048 25.175 148.498 25.175 149.048V152.668C25.175 153.438 24.557 154.048 23.795 154.048H22.175C21.623 154.048 21.175 154.498 21.175 155.048V161.048C21.175 161.608 21.623 162.048 22.175 162.048H23.175C25.935 162.048 28.175 164.288 28.175 167.048C28.175 169.808 25.935 172.048 23.175 172.048H1C0.448 172.048 0 172.498 0 173.048C0 173.608 0.448 174.048 1 174.048H266.796C261.812 181.048 253.641 185.618 244.416 185.618H203.042C202.397 185.618 201.782 185.318 201.42 184.788C200.834 183.928 199.85 183.348 198.725 183.348H190.185C189.631 183.348 189.185 183.798 189.185 184.348C189.185 184.908 189.631 185.348 190.185 185.348H190.755C191.459 185.348 192.031 185.928 192.031 186.628C192.031 187.338 191.461 187.908 190.761 187.908H190.191C189.641 187.908 189.191 188.358 189.191 188.908C189.191 189.458 189.641 189.908 190.191 189.908H198.731C199.861 189.908 200.841 189.338 201.431 188.468C201.801 187.938 202.411 187.628 203.061 187.628H244.441C254.841 187.628 263.991 182.218 269.241 174.058H401C401.552 174.058 402 173.618 402 173.058C402 172.508 401.552 172.058 401 172.058L401.011 172.059Z" fill="#0E0F10"/>
<path fill-rule="evenodd" clip-rule="evenodd" d="M346.037 59.4182C346.137 59.8882 346.553 60.2082 347.014 60.2082C347.067 60.2082 347.122 60.2002 347.177 60.1902C347.193 60.1902 347.209 60.1902 347.225 60.1862C347.765 60.0692 348.108 59.5362 347.992 58.9962C347.902 58.5862 347.802 58.1802 347.69 57.7782C347.54 57.2462 346.99 56.9342 346.458 57.0842C346.444 57.0882 346.434 57.0992 346.42 57.1042C345.914 57.2692 345.62 57.7992 345.764 58.3142C345.866 58.6802 345.957 59.0472 346.037 59.4192V59.4182ZM370.115 134.609C370.32 134.599 370.525 134.589 370.727 134.589C372.85 134.589 374.891 135.429 376.405 136.949C378.065 138.609 378.913 140.899 378.735 143.239C378.483 146.559 376.168 149.409 372.975 150.349L360.311 154.049C359.901 154.169 359.621 153.949 359.521 153.849C359.421 153.749 359.201 153.469 359.321 153.059L363.021 140.399C363.951 137.209 366.811 134.889 370.131 134.639L370.115 134.609ZM357.4 152.468C357.108 153.465 357.373 154.498 358.106 155.232C358.639 155.77 359.354 156.058 360.086 156.058C360.348 156.058 360.612 156.02 360.87 155.945L373.534 152.253C377.524 151.089 380.414 147.523 380.729 143.383C380.949 140.463 379.889 137.597 377.819 135.526C375.739 133.454 372.879 132.39 369.959 132.616C365.819 132.931 362.249 135.823 361.089 139.81L357.389 152.473L357.4 152.468ZM154.14 95.9382L151.548 93.3482C151.024 92.8232 150.168 92.8232 149.643 93.3482L137.167 105.823C136.641 106.349 135.787 106.349 135.262 105.823L126.462 97.0252C125.936 96.4992 125.082 96.4992 124.557 97.0252L112.797 108.785C112.27 109.312 111.417 109.312 110.89 108.785L98.946 96.8432C98.422 96.3192 97.566 96.3192 97.041 96.8432L92.741 101.143C91.891 101.993 90.441 101.393 90.441 100.193V96.2282C90.441 95.8732 90.581 95.5302 90.841 95.2782L95.171 90.9482C95.421 90.6942 95.771 90.5522 96.121 90.5522H99.881C100.241 90.5522 100.581 90.6942 100.841 90.9472L111.151 101.257C111.341 101.447 111.591 101.547 111.861 101.547C112.131 101.547 112.381 101.437 112.571 101.247L122.891 90.9372C123.141 90.6772 123.491 90.5372 123.841 90.5372H127.231C127.591 90.5372 127.931 90.6772 128.181 90.9272L135.531 98.2772C135.721 98.4572 135.971 98.5672 136.241 98.5672C136.511 98.5672 136.761 98.4572 136.951 98.2772L144.301 90.9272C144.561 90.6672 144.901 90.5272 145.261 90.5272H155.131C155.881 90.5272 156.481 91.1272 156.481 91.8772V94.9682C156.481 96.1682 155.031 96.7732 154.181 95.9242L154.14 95.9382ZM154.14 106.538L151.548 103.948C151.024 103.423 150.168 103.423 149.643 103.948L137.167 116.423C136.641 116.95 135.787 116.95 135.262 116.423L126.462 107.625C125.938 107.1 125.082 107.1 124.557 107.625L112.797 119.385C112.27 119.912 111.417 119.912 110.89 119.385L98.946 107.442C98.422 106.917 97.566 106.917 97.041 107.442L92.741 111.742C91.891 112.592 90.441 111.992 90.441 110.792V106.83C90.441 106.473 90.581 106.13 90.841 105.877L97.051 99.6672C97.581 99.1372 98.431 99.1372 98.961 99.6672L111.151 111.857C111.341 112.037 111.591 112.147 111.861 112.147C112.131 112.147 112.381 112.037 112.571 111.847L124.581 99.8372C125.111 99.3072 125.961 99.3072 126.491 99.8372L135.291 108.637C135.821 109.157 136.671 109.157 137.201 108.637L149.671 96.1572C150.201 95.6272 151.051 95.6272 151.581 96.1572L156.221 100.797C156.301 100.867 156.391 100.917 156.471 100.957V105.557C156.471 106.757 155.021 107.357 154.171 106.507L154.14 106.538ZM154.14 117.138L151.548 114.548C151.024 114.023 150.168 114.023 149.643 114.548L137.167 127.023C136.641 127.549 135.787 127.549 135.262 127.023L126.462 118.225C125.936 117.699 125.082 117.699 124.557 118.225L112.797 129.985C112.27 130.511 111.417 130.511 110.89 129.985L98.946 118.042C98.42 117.516 97.566 117.516 97.041 118.042L92.741 122.342C91.891 123.192 90.441 122.59 90.441 121.39V117.43C90.441 117.073 90.581 116.73 90.841 116.477L97.051 110.267C97.581 109.737 98.431 109.737 98.961 110.267L111.151 122.457C111.341 122.637 111.591 122.747 111.861 122.747C112.131 122.747 112.381 122.637 112.571 122.447L124.581 110.437C125.111 109.907 125.961 109.907 126.491 110.437L135.541 119.477C135.731 119.657 135.981 119.767 136.251 119.767C136.521 119.767 136.771 119.657 136.961 119.467L149.691 106.747C150.221 106.217 151.071 106.217 151.601 106.747L156.241 111.387C156.321 111.457 156.411 111.507 156.491 111.557V116.157C156.491 117.357 155.041 117.957 154.191 117.107L154.14 117.138ZM154.14 127.738L151.548 125.148C151.022 124.622 150.168 124.622 149.643 125.148L137.167 137.623C136.641 138.149 135.787 138.149 135.262 137.623L126.462 128.825C125.936 128.298 125.082 128.298 124.557 128.825L112.797 140.585C112.27 141.112 111.417 141.112 110.89 140.585L98.946 128.642C98.422 128.118 97.566 128.118 97.041 128.642L92.741 132.942C91.891 133.792 90.441 133.192 90.441 131.992V128.03C90.441 127.672 90.581 127.33 90.841 127.077L97.051 120.867C97.581 120.337 98.431 120.337 98.961 120.867L111.151 133.057C111.351 133.247 111.601 133.347 111.861 133.347C112.121 133.347 112.371 133.247 112.571 133.047L124.581 121.037C125.111 120.507 125.961 120.507 126.491 121.037L135.291 129.837C135.821 130.357 136.671 130.357 137.201 129.837L149.671 117.357C150.201 116.827 151.051 116.827 151.581 117.357L156.221 121.997C156.301 122.067 156.391 122.117 156.471 122.157V126.757C156.471 127.957 155.021 128.557 154.171 127.707L154.14 127.738ZM154.14 138.338L151.548 135.748C151.024 135.223 150.168 135.223 149.643 135.748L141.233 144.158C140.98 144.411 140.637 144.552 140.28 144.552H132.15C131.79 144.552 131.45 144.412 131.196 144.158L126.462 139.424C125.938 138.9 125.082 138.9 124.557 139.424L119.824 144.158C119.571 144.411 119.228 144.552 118.87 144.552H104.815C104.458 144.552 104.115 144.412 103.863 144.158L98.946 139.242C98.422 138.717 97.566 138.717 97.041 139.242L92.131 144.158C91.881 144.411 91.541 144.552 91.181 144.552H90.451V138.629C90.451 138.279 90.591 137.939 90.851 137.679L97.061 131.479C97.591 130.959 98.441 130.959 98.971 131.479L111.161 143.669C111.351 143.859 111.601 143.969 111.871 143.969C112.141 143.969 112.391 143.869 112.581 143.679L124.591 131.679C125.121 131.149 125.971 131.149 126.501 131.679L135.301 140.479C135.831 141.009 136.681 141.009 137.211 140.479L149.691 128.009C150.221 127.489 151.071 127.489 151.601 128.009L156.241 132.649C156.321 132.729 156.401 132.769 156.491 132.819V137.419C156.491 138.619 155.041 139.219 154.191 138.369L154.14 138.338ZM156.44 144.552H146.92C145.72 144.552 145.118 143.102 145.966 142.252L149.643 138.576C150.169 138.049 151.023 138.049 151.548 138.576L156.188 143.216C156.263 143.291 156.351 143.336 156.438 143.382V144.552H156.44ZM124.557 142.252C125.083 141.726 125.937 141.726 126.462 142.252C127.312 143.102 126.71 144.552 125.51 144.552C124.31 144.552 123.708 143.102 124.557 142.252ZM96.857 142.252L97.041 142.07C97.571 141.543 98.421 141.543 98.951 142.07L99.141 142.252C99.991 143.102 99.391 144.552 98.191 144.552H97.831C96.631 144.552 96.031 143.102 96.881 142.252H96.857ZM90.44 91.9002C90.44 91.1562 91.042 90.5522 91.786 90.5522H92.73L90.44 92.8422V91.9002ZM118.13 92.8522L112.796 98.1852C112.27 98.7112 111.416 98.7112 110.89 98.1852L105.557 92.8522C104.707 92.0022 105.309 90.5522 106.51 90.5522H117.176C118.376 90.5522 118.976 92.0022 118.129 92.8522H118.13ZM139.538 92.8522L137.168 95.2222C136.641 95.7502 135.788 95.7502 135.262 95.2222L132.89 92.8522C132.042 92.0022 132.643 90.5522 133.843 90.5522H138.585C139.785 90.5522 140.387 92.0022 139.538 92.8522V92.8522ZM158.438 145.205V89.9002C158.438 89.1562 157.836 88.5522 157.092 88.5522H89.786C89.042 88.5522 88.439 89.1562 88.439 89.9002V145.205C88.439 145.949 89.039 146.552 89.779 146.552H157.079C157.819 146.552 158.419 145.949 158.419 145.205H158.438ZM167.343 94.5522C169.549 94.5522 171.343 96.3462 171.343 98.5522C171.343 100.758 169.549 102.552 167.343 102.552C165.137 102.552 163.343 100.758 163.343 98.5522C163.343 96.3462 165.137 94.5522 167.343 94.5522ZM167.343 104.552C170.653 104.552 173.343 101.862 173.343 98.5522C173.343 95.2422 170.653 92.5522 167.343 92.5522C164.033 92.5522 161.343 95.2422 161.343 98.5522C161.343 101.862 164.033 104.552 167.343 104.552ZM167.343 109.552C169.549 109.552 171.343 111.346 171.343 113.552C171.343 115.758 169.549 117.552 167.343 117.552C165.137 117.552 163.343 115.758 163.343 113.552C163.343 111.346 165.137 109.552 167.343 109.552ZM167.343 119.552C170.653 119.552 173.343 116.862 173.343 113.552C173.343 110.242 170.653 107.552 167.343 107.552C164.033 107.552 161.343 110.242 161.343 113.552C161.343 116.862 164.033 119.552 167.343 119.552ZM138.053 169.078H147.053C147.603 169.078 148.053 168.631 148.053 168.078V166.078C148.053 165.526 147.603 165.078 147.053 165.078H138.053C137.499 165.078 137.053 165.526 137.053 166.078V168.078C137.053 168.631 137.499 169.078 138.053 169.078ZM152.053 169.078H161.053C161.603 169.078 162.053 168.631 162.053 168.078V166.078C162.053 165.526 161.603 165.078 161.053 165.078H152.053C151.499 165.078 151.053 165.526 151.053 166.078V168.078C151.053 168.631 151.499 169.078 152.053 169.078ZM253.506 19.0802H254.016C254.568 19.0802 255.016 19.5272 255.016 20.0802V20.5902C255.016 21.1432 255.464 21.5902 256.016 21.5902C256.569 21.5902 257.016 21.1432 257.016 20.5902V20.0802C257.016 19.5272 257.464 19.0802 258.016 19.0802H258.526C259.078 19.0802 259.526 18.6332 259.526 18.0802C259.526 17.5272 259.078 17.0802 258.526 17.0802H258.016C257.464 17.0802 257.016 16.6332 257.016 16.0802V15.5702C257.016 15.0182 256.569 14.5702 256.016 14.5702C255.464 14.5702 255.016 15.0182 255.016 15.5702V16.0802C255.016 16.6332 254.568 17.0802 254.016 17.0802H253.506C252.954 17.0802 252.506 17.5272 252.506 18.0802C252.506 18.6332 252.954 19.0802 253.506 19.0802ZM119.129 11.1902H119.639C120.189 11.1902 120.639 11.6382 120.639 12.1902V12.7002C120.639 13.2542 121.089 13.7002 121.639 13.7002C122.189 13.7002 122.639 13.2542 122.639 12.7002V12.1902C122.639 11.6382 123.089 11.1902 123.639 11.1902H124.149C124.699 11.1902 125.149 10.7442 125.149 10.1902C125.149 9.63824 124.699 9.19024 124.149 9.19024H123.639C123.089 9.19024 122.639 8.74424 122.639 8.19024V7.68024C122.639 7.13024 122.189 6.68024 121.639 6.68024C121.089 6.68024 120.639 7.13024 120.639 7.68024V8.19024C120.639 8.74424 120.189 9.19024 119.639 9.19024H119.129C118.579 9.19024 118.129 9.63824 118.129 10.1902C118.129 10.7442 118.579 11.1902 119.129 11.1902ZM158 20.2632C158.256 20.2632 158.512 20.1652 158.707 19.9702L159.89 18.7862C160.28 18.3962 160.28 17.7632 159.89 17.3722C159.5 16.9822 158.866 16.9822 158.476 17.3722L157.293 18.5562C156.903 18.9462 156.903 19.5792 157.293 19.9702C157.487 20.1652 157.743 20.2632 157.999 20.2632H158ZM152.079 26.1782C152.329 26.1782 152.589 26.0812 152.779 25.8862L153.959 24.7022C154.349 24.3122 154.349 23.6792 153.959 23.2882C153.569 22.8982 152.929 22.8982 152.539 23.2882L151.349 24.4722C150.959 24.8622 150.959 25.4952 151.349 25.8862C151.539 26.0812 151.799 26.1792 152.059 26.1792L152.079 26.1782ZM158.449 25.8892C158.639 26.0892 158.899 26.1892 159.149 26.1892C159.409 26.1892 159.659 26.0992 159.859 25.8992C160.249 25.5092 160.249 24.8792 159.859 24.4892L158.679 23.3092C158.289 22.9192 157.659 22.9192 157.259 23.3092C156.869 23.6992 156.869 24.3392 157.259 24.7292L158.439 25.9192L158.449 25.8892ZM152.529 19.9792C152.719 20.1792 152.979 20.2792 153.229 20.2792C153.479 20.2792 153.739 20.1792 153.929 19.9892C154.319 19.5992 154.319 18.9692 153.929 18.5792L152.749 17.3992C152.359 17.0092 151.719 17.0092 151.329 17.3992C150.939 17.7892 150.939 18.4292 151.329 18.8192L152.509 19.9992L152.529 19.9792ZM148.009 39.8292C148.839 39.8292 149.519 40.5092 149.519 41.3392C149.519 42.1792 148.839 42.8492 148.009 42.8492C147.179 42.8492 146.499 42.1792 146.499 41.3392C146.499 40.5092 147.169 39.8292 148.009 39.8292ZM148.009 44.8492C149.939 44.8492 151.519 43.2792 151.519 41.3392C151.519 39.4092 149.939 37.8292 148.009 37.8292C146.069 37.8292 144.499 39.4092 144.499 41.3392C144.499 43.2792 146.069 44.8492 148.009 44.8492ZM308.4 81.7182C310.87 81.7182 312.9 79.6982 312.9 77.2182C312.9 74.7482 310.87 72.7182 308.4 72.7182C305.92 72.7182 303.9 74.7482 303.9 77.2182C303.9 79.6982 305.92 81.7182 308.4 81.7182Z" fill="#0E0F10"/>
<path opacity="0.3" fill-rule="evenodd" clip-rule="evenodd" d="M108.56 200.562H126.472C132.522 200.562 137.472 195.612 137.472 189.562C137.472 183.512 132.522 178.564 126.472 178.564H108.56C102.51 178.564 97.56 183.514 97.56 189.564C97.56 195.614 102.51 200.562 108.56 200.562Z" fill="#141414"/>
</svg>
