<svg width="236" height="124" viewBox="0 0 236 124" fill="none" xmlns="http://www.w3.org/2000/svg">
<path fill-rule="evenodd" clip-rule="evenodd" d="M148.108 115.769C148.55 115.769 148.908 116.128 148.908 116.569C148.908 117.011 148.55 117.369 148.108 117.369H144.908C144.467 117.369 144.108 117.011 144.108 116.569C144.108 116.128 144.467 115.769 144.908 115.769H148.108ZM155.308 115.769H152.108C151.667 115.769 151.308 116.128 151.308 116.569C151.308 117.011 151.667 117.369 152.108 117.369H155.308C155.75 117.369 156.108 117.011 156.108 116.569C156.108 116.128 155.75 115.769 155.308 115.769ZM140.908 115.769H137.708C137.267 115.769 136.908 116.128 136.908 116.569C136.908 117.011 137.267 117.369 137.708 117.369H140.908C141.35 117.369 141.708 117.011 141.708 116.569C141.708 116.128 141.35 115.769 140.908 115.769ZM133.708 115.769H130.508C130.067 115.769 129.708 116.128 129.708 116.569C129.708 117.011 130.067 117.369 130.508 117.369H133.708C134.15 117.369 134.508 117.011 134.508 116.569C134.508 116.128 134.15 115.769 133.708 115.769ZM190.395 100.456C189.954 100.456 189.595 100.815 189.595 101.256V104.456C189.595 104.898 189.954 105.256 190.395 105.256C190.837 105.256 191.195 104.898 191.195 104.456V101.256C191.195 100.815 190.837 100.456 190.395 100.456ZM184.108 115.769H180.908C180.467 115.769 180.108 116.128 180.108 116.569C180.108 117.011 180.467 117.369 180.908 117.369H184.108C184.55 117.369 184.908 117.011 184.908 116.569C184.908 116.128 184.55 115.769 184.108 115.769ZM190.395 114.856C189.954 114.856 189.595 115.215 189.595 115.656V115.769H188.108C187.667 115.769 187.308 116.128 187.308 116.569C187.308 117.011 187.667 117.369 188.108 117.369H190.395C190.837 117.369 191.195 117.011 191.195 116.569V115.656C191.195 115.215 190.837 114.856 190.395 114.856V114.856ZM190.395 107.656C189.954 107.656 189.595 108.015 189.595 108.456V111.656C189.595 112.098 189.954 112.456 190.395 112.456C190.837 112.456 191.195 112.098 191.195 111.656V108.456C191.195 108.015 190.837 107.656 190.395 107.656ZM162.508 115.769H159.308C158.867 115.769 158.508 116.128 158.508 116.569C158.508 117.011 158.867 117.369 159.308 117.369H162.508C162.95 117.369 163.308 117.011 163.308 116.569C163.308 116.128 162.95 115.769 162.508 115.769ZM169.708 115.769H166.508C166.067 115.769 165.708 116.128 165.708 116.569C165.708 117.011 166.067 117.369 166.508 117.369H169.708C170.15 117.369 170.508 117.011 170.508 116.569C170.508 116.128 170.15 115.769 169.708 115.769ZM176.908 115.769H173.708C173.267 115.769 172.908 116.128 172.908 116.569C172.908 117.011 173.267 117.369 173.708 117.369H176.908C177.35 117.369 177.708 117.011 177.708 116.569C177.708 116.128 177.35 115.769 176.908 115.769Z" fill="#0E0F10"/>
<path fill-rule="evenodd" clip-rule="evenodd" d="M121.862 117.701C121.238 117.076 121.238 116.063 121.862 115.439L123.559 113.741C124.184 113.116 124.184 112.103 123.559 111.479L122.428 110.347C121.803 109.723 120.79 109.723 120.165 110.347L118.468 112.044C117.843 112.669 116.83 112.669 116.206 112.044L114.509 110.347C113.883 109.723 112.87 109.723 112.246 110.347L111.114 111.479C110.49 112.103 110.49 113.116 111.114 113.741L112.811 115.439C113.436 116.063 113.436 117.076 112.811 117.701L111.114 119.399C110.49 120.023 110.49 121.036 111.114 121.661L112.246 122.792C112.87 123.417 113.883 123.417 114.509 122.792L116.206 121.095C116.83 120.47 117.843 120.47 118.468 121.095L120.165 122.792C120.79 123.417 121.803 123.417 122.428 122.792L123.559 121.661C124.184 121.036 124.184 120.023 123.559 119.399L121.862 117.701Z" fill="#ED4245"/>
<path fill-rule="evenodd" clip-rule="evenodd" d="M86.565 115.769H89.765C90.2066 115.769 90.565 116.128 90.565 116.569C90.565 117.011 90.2066 117.369 89.765 117.369H86.565C86.1234 117.369 85.765 117.011 85.765 116.569C85.765 116.128 86.1234 115.769 86.565 115.769ZM79.365 115.769H82.565C83.0066 115.769 83.365 116.128 83.365 116.569C83.365 117.011 83.0066 117.369 82.565 117.369H79.365C78.9234 117.369 78.565 117.011 78.565 116.569C78.565 116.128 78.9234 115.769 79.365 115.769ZM93.765 115.769H96.965C97.4066 115.769 97.765 116.128 97.765 116.569C97.765 117.011 97.4066 117.369 96.965 117.369H93.765C93.3234 117.369 92.965 117.011 92.965 116.569C92.965 116.128 93.3234 115.769 93.765 115.769ZM100.965 115.769H104.165C104.607 115.769 104.965 116.128 104.965 116.569C104.965 117.011 104.607 117.369 104.165 117.369H100.965C100.523 117.369 100.165 117.011 100.165 116.569C100.165 116.128 100.523 115.769 100.965 115.769ZM44.2779 100.456C44.7195 100.456 45.0779 100.815 45.0779 101.256V104.456C45.0779 104.898 44.7195 105.256 44.2779 105.256C43.8363 105.256 43.4779 104.898 43.4779 104.456V101.256C43.4779 100.815 43.8363 100.456 44.2779 100.456ZM50.565 115.769H53.765C54.2066 115.769 54.565 116.128 54.565 116.569C54.565 117.011 54.2066 117.369 53.765 117.369H50.565C50.1234 117.369 49.765 117.011 49.765 116.569C49.765 116.128 50.1234 115.769 50.565 115.769ZM44.2779 114.856C44.7195 114.856 45.0779 115.215 45.0779 115.656V115.769H46.5651C47.0067 115.769 47.3651 116.128 47.3651 116.569C47.3651 117.011 47.0067 117.369 46.5651 117.369H44.2779C43.8363 117.369 43.4779 117.011 43.4779 116.569V115.656C43.4779 115.215 43.8363 114.856 44.2779 114.856V114.856ZM44.2779 107.656C44.7195 107.656 45.0779 108.015 45.0779 108.456V111.656C45.0779 112.098 44.7195 112.456 44.2779 112.456C43.8363 112.456 43.4779 112.098 43.4779 111.656V108.456C43.4779 108.015 43.8363 107.656 44.2779 107.656ZM72.165 115.769H75.365C75.8066 115.769 76.165 116.128 76.165 116.569C76.165 117.011 75.8066 117.369 75.365 117.369H72.165C71.7234 117.369 71.365 117.011 71.365 116.569C71.365 116.128 71.7234 115.769 72.165 115.769ZM64.965 115.769H68.165C68.6066 115.769 68.965 116.128 68.965 116.569C68.965 117.011 68.6066 117.369 68.165 117.369H64.965C64.5234 117.369 64.165 117.011 64.165 116.569C64.165 116.128 64.5234 115.769 64.965 115.769ZM57.765 115.769H60.965C61.4066 115.769 61.765 116.128 61.765 116.569C61.765 117.011 61.4066 117.369 60.965 117.369H57.765C57.3234 117.369 56.965 117.011 56.965 116.569C56.965 116.128 57.3234 115.769 57.765 115.769Z" fill="#0E0F10"/>
<path fill-rule="evenodd" clip-rule="evenodd" d="M216.732 26.1276L221.407 29.1284V17.3868C221.407 15.6196 219.974 14.1868 218.207 14.1868H211.807C210.039 14.1868 208.607 15.6196 208.607 17.3868V20.9116L211.261 22.6148C211.632 22.854 211.74 23.3484 211.502 23.7204L215.627 26.3684C215.866 25.9964 216.361 25.8892 216.732 26.1276" fill="#1C1E21"/>
<path fill-rule="evenodd" clip-rule="evenodd" d="M190.42 11.1377L153.834 34.6241V40.7233L189.988 17.5137C190.251 17.3441 190.589 17.3441 190.852 17.5137L227.007 40.7233V34.6241L215.868 27.4737C215.496 27.2353 215.388 26.7401 215.627 26.3689L211.502 23.7201C211.263 24.0921 210.768 24.2001 210.397 23.9609L190.42 11.1377Z" fill="#131416"/>
<path fill-rule="evenodd" clip-rule="evenodd" d="M161.62 76.7201C161.62 76.2785 161.979 75.9201 162.42 75.9201V72.5865C160.655 72.5865 159.22 71.1513 159.22 69.3865C159.22 67.9009 160.244 66.6585 161.62 66.3009V52.5865C161.62 52.1449 161.979 51.7865 162.42 51.7865H181.62C182.062 51.7865 182.42 52.1449 182.42 52.5865V88.5865H227.007V80.5865V42.6241L190.42 19.1377L153.834 42.6241V80.5865V88.5865H161.62V76.7201Z" fill="#1C1E21"/>
<path fill-rule="evenodd" clip-rule="evenodd" d="M204.82 72.587H217.62V63.787H204.82V72.587Z" fill="#131416"/>
<path fill-rule="evenodd" clip-rule="evenodd" d="M190.42 72.587H203.22V63.787H190.42V72.587Z" fill="#131416"/>
<path fill-rule="evenodd" clip-rule="evenodd" d="M204.82 62.187H217.62V53.387H204.82V62.187Z" fill="#131416"/>
<path fill-rule="evenodd" clip-rule="evenodd" d="M190.42 62.187H203.22V53.387H190.42V62.187Z" fill="#131416"/>
<path fill-rule="evenodd" clip-rule="evenodd" d="M162.42 75.9201C162.862 75.9201 163.22 76.2785 163.22 76.7201V88.5865H180.82V53.3865H163.22V66.3009C164.596 66.6585 165.62 67.9009 165.62 69.3865C165.62 71.1513 164.185 72.5865 162.42 72.5865V75.9201Z" fill="#26282C"/>
<path fill-rule="evenodd" clip-rule="evenodd" d="M164.02 69.3869C164.02 68.5045 163.303 67.7869 162.42 67.7869C161.538 67.7869 160.82 68.5045 160.82 69.3869C160.82 70.2693 161.538 70.9869 162.42 70.9869C163.303 70.9869 164.02 70.2693 164.02 69.3869Z" fill="#26282C"/>
<path fill-rule="evenodd" clip-rule="evenodd" d="M71.1119 26.1276L75.7863 29.1284V14.1868H62.9863V20.9116L65.6407 22.6148C66.0119 22.854 66.1199 23.3484 65.8815 23.7204L70.0071 26.3684C70.2455 25.9964 70.7407 25.8892 71.1119 26.1276Z" fill="#1C1E21"/>
<path fill-rule="evenodd" clip-rule="evenodd" d="M41.3428 13.3571L8.2132 34.6235V40.7235L44.3676 17.5139C44.6308 17.3443 44.9684 17.3443 45.2316 17.5139L81.3868 40.7235V34.6235L70.2476 27.4739C69.8764 27.2347 69.7684 26.7403 70.0068 26.3683L65.8812 23.7203C65.6428 24.0915 65.1476 24.2003 64.7764 23.9611L48.2572 13.3571C46.1508 12.0051 43.4492 12.0051 41.3428 13.3571" fill="#26282C"/>
<path fill-rule="evenodd" clip-rule="evenodd" d="M14.6131 44.4537C14.6131 44.0121 14.9715 43.6537 15.4131 43.6537H26.6131C27.0547 43.6537 27.4131 44.0121 27.4131 44.4537V55.6537C27.4131 56.0953 27.0547 56.4537 26.6131 56.4537H15.4131C14.9715 56.4537 14.6131 56.0953 14.6131 55.6537V44.4537ZM62.9867 56.4537C62.5451 56.4537 62.1867 56.0953 62.1867 55.6537V44.4537C62.1867 44.0121 62.5451 43.6537 62.9867 43.6537H74.1867C74.6283 43.6537 74.9867 44.0121 74.9867 44.4537V55.6537C74.9867 56.0953 74.6283 56.4537 74.1867 56.4537H62.9867ZM26.3995 70.1873C26.3995 60.0409 34.6539 51.7873 44.7995 51.7873C54.9459 51.7873 63.1995 60.0409 63.1995 70.1873V88.5873H81.3867V80.5873V42.6241L44.7995 19.1377L8.21313 42.6241V80.5873V88.5873H26.3995V70.1873Z" fill="#36393E"/>
<path fill-rule="evenodd" clip-rule="evenodd" d="M61.5998 70.1869C61.5998 61.1933 54.491 53.8493 45.5998 53.4277V88.5869H61.5998V70.1869ZM43.9998 53.4275C35.1086 53.8491 27.9998 61.1939 27.9998 70.1867V88.5867H43.9998V53.4275Z" fill="#1C1E21"/>
<path fill-rule="evenodd" clip-rule="evenodd" d="M16.213 54.854H25.813V50.854H16.213V54.854Z" fill="#36393E"/>
<path fill-rule="evenodd" clip-rule="evenodd" d="M16.213 49.254H25.813V45.254H16.213V49.254Z" fill="#1C1E21"/>
<path fill-rule="evenodd" clip-rule="evenodd" d="M63.786 54.854H73.386V50.854H63.786V54.854Z" fill="#36393E"/>
<path fill-rule="evenodd" clip-rule="evenodd" d="M63.786 49.254H73.386V45.254H63.786V49.254Z" fill="#1C1E21"/>
<path fill-rule="evenodd" clip-rule="evenodd" d="M89.6694 27.067H90.0774C90.519 27.067 90.8774 27.4254 90.8774 27.867V28.275C90.8774 28.7174 91.2358 29.075 91.6774 29.075C92.119 29.075 92.4774 28.7174 92.4774 28.275V27.867C92.4774 27.4254 92.8358 27.067 93.2774 27.067H93.6854C94.127 27.067 94.4854 26.7086 94.4854 26.267C94.4854 25.8254 94.127 25.467 93.6854 25.467H93.2774C92.8358 25.467 92.4774 25.1094 92.4774 24.667V24.259C92.4774 23.8174 92.119 23.459 91.6774 23.459C91.2358 23.459 90.8774 23.8174 90.8774 24.259V24.667C90.8774 25.1094 90.519 25.467 90.0774 25.467H89.6694C89.2278 25.467 88.8694 25.8254 88.8694 26.267C88.8694 26.7086 89.2278 27.067 89.6694 27.067ZM230.404 20.995C231.071 20.995 231.612 21.5358 231.612 22.203C231.612 22.6446 231.971 23.003 232.412 23.003C232.854 23.003 233.212 22.6446 233.212 22.203C233.212 21.5358 233.753 20.995 234.42 20.995C234.862 20.995 235.22 20.6366 235.22 20.195C235.22 19.7534 234.862 19.395 234.42 19.395C233.753 19.395 233.212 18.8542 233.212 18.187C233.212 17.7454 232.854 17.387 232.412 17.387C231.971 17.387 231.612 17.7454 231.612 18.187C231.612 18.8542 231.071 19.395 230.404 19.395C229.963 19.395 229.604 19.7534 229.604 20.195C229.604 20.6366 229.963 20.995 230.404 20.995ZM109.633 56.4537C109.837 56.4537 110.042 56.3753 110.198 56.2193L111.145 55.2729C111.457 54.9601 111.457 54.4537 111.145 54.1417C110.833 53.8289 110.326 53.8289 110.013 54.1417L109.067 55.0881C108.754 55.4009 108.754 55.9065 109.067 56.2193C109.223 56.3753 109.428 56.4537 109.633 56.4537ZM104.899 61.1869C105.104 61.1869 105.309 61.1085 105.465 60.9525L106.412 60.0061C106.724 59.6941 106.724 59.1869 106.412 58.8749C106.099 58.5621 105.593 58.5621 105.281 58.8749L104.334 59.8213C104.021 60.1333 104.021 60.6397 104.334 60.9525C104.49 61.1085 104.695 61.1869 104.899 61.1869ZM110.014 60.9525C110.17 61.1085 110.374 61.1869 110.579 61.1869C110.784 61.1869 110.989 61.1085 111.145 60.9525C111.458 60.6397 111.458 60.1341 111.145 59.8213L110.198 58.8749C109.886 58.5621 109.38 58.5621 109.067 58.8749C108.754 59.1869 108.754 59.6933 109.067 60.0061L110.014 60.9525ZM105.281 56.2193C105.437 56.3753 105.641 56.4537 105.846 56.4537C106.051 56.4537 106.256 56.3753 106.412 56.2193C106.725 55.9065 106.725 55.4001 106.412 55.0881L105.465 54.1417C105.153 53.8289 104.645 53.8289 104.333 54.1417C104.021 54.4537 104.021 54.9609 104.333 55.2729L105.281 56.2193ZM218.42 1.59976C219.087 1.59976 219.628 2.14136 219.628 2.80776C219.628 3.47336 219.087 4.01576 218.42 4.01576C217.754 4.01576 217.212 3.47336 217.212 2.80776C217.212 2.14136 217.754 1.59976 218.42 1.59976V1.59976ZM218.42 5.61576C219.968 5.61576 221.228 4.35576 221.228 2.80776C221.228 1.25976 219.968 -0.000244141 218.42 -0.000244141C216.871 -0.000244141 215.612 1.25976 215.612 2.80776C215.612 4.35576 216.871 5.61576 218.42 5.61576ZM192.82 63.7869H200.82C202.146 63.7869 203.22 64.8613 203.22 66.1869V70.1869C203.22 71.5125 202.146 72.5869 200.82 72.5869H192.82C191.495 72.5869 190.42 71.5125 190.42 70.1869V66.1869C190.42 64.8613 191.495 63.7869 192.82 63.7869V63.7869ZM192.82 53.3869H200.82C202.146 53.3869 203.22 54.4613 203.22 55.7869V59.7869C203.22 61.1125 202.146 62.1869 200.82 62.1869H192.82C191.495 62.1869 190.42 61.1125 190.42 59.7869V55.7869C190.42 54.4613 191.495 53.3869 192.82 53.3869ZM207.22 63.7869H215.22C216.546 63.7869 217.62 64.8613 217.62 66.1869V70.1869C217.62 71.5125 216.546 72.5869 215.22 72.5869H207.22C205.895 72.5869 204.82 71.5125 204.82 70.1869V66.1869C204.82 64.8613 205.895 63.7869 207.22 63.7869ZM207.22 53.3869H215.22C216.546 53.3869 217.62 54.4613 217.62 55.7869V59.7869C217.62 61.1125 216.546 62.1869 215.22 62.1869H207.22C205.895 62.1869 204.82 61.1125 204.82 59.7869V55.7869C204.82 54.4613 205.895 53.3869 207.22 53.3869ZM188.82 54.1869V71.7869C188.82 73.1125 189.895 74.1869 191.22 74.1869H216.82C218.146 74.1869 219.22 73.1125 219.22 71.7869V54.1869C219.22 52.8613 218.146 51.7869 216.82 51.7869H191.22C189.895 51.7869 188.82 52.8613 188.82 54.1869" fill="#0E0F10"/>
<path fill-rule="evenodd" clip-rule="evenodd" d="M227.007 34.624C227.007 37.2592 224.092 38.852 221.874 37.428L190.852 17.5136C190.589 17.344 190.252 17.344 189.988 17.5136L158.966 37.428C156.748 38.852 153.833 37.2592 153.833 34.624L190.42 11.1376L210.396 23.9608C210.768 24.2 211.263 24.092 211.502 23.72C211.74 23.3488 211.632 22.8536 211.26 22.6152L209.71 21.62C209.023 21.1784 208.607 20.4176 208.607 19.6V17.3872C208.607 15.62 210.04 14.1872 211.807 14.1872H218.207C219.974 14.1872 221.407 15.62 221.407 17.3872V24.736C221.407 26.6344 219.308 27.7808 217.71 26.756L216.732 26.1272C216.361 25.8888 215.866 25.9968 215.627 26.3688C215.388 26.7408 215.496 27.2352 215.868 27.4736L227.007 34.624ZM164.02 69.3871C164.02 70.2695 163.303 70.9871 162.42 70.9871C161.538 70.9871 160.82 70.2695 160.82 69.3871C160.82 68.5047 161.538 67.7872 162.42 67.7872C163.303 67.7872 164.02 68.5047 164.02 69.3871ZM227.007 80.5872V85.3872C227.007 87.1544 225.574 88.5872 223.807 88.5872H183.22C182.778 88.5872 182.42 88.2288 182.42 87.7872V52.5872C182.42 52.1448 182.062 51.7872 181.62 51.7872H162.42C161.978 51.7872 161.62 52.1448 161.62 52.5872V66.3007C159.747 66.7879 158.527 68.9128 159.652 71.0632C160.156 72.0248 161.198 72.5871 162.284 72.5871C163.764 72.5871 165.155 71.6479 165.516 70.2119C165.978 68.3775 164.844 66.7231 163.22 66.3007V54.1871C163.22 53.7447 163.578 53.3871 164.02 53.3871H180.02C180.462 53.3871 180.82 53.7447 180.82 54.1871V87.7872C180.82 88.2288 180.462 88.5872 180.02 88.5872H164.02C163.578 88.5872 163.22 88.2288 163.22 87.7872V75.1192C163.22 74.6768 162.862 74.3192 162.42 74.3192C161.978 74.3192 161.62 74.6768 161.62 75.1192V87.7872C161.62 88.2288 161.262 88.5872 160.82 88.5872H157.033C155.266 88.5872 153.833 87.1544 153.833 85.3872V80.5872V46.8479C153.833 45.2135 154.665 43.6912 156.04 42.8088L187.827 22.404C189.407 21.3896 191.433 21.3896 193.013 22.404L224.8 42.8088C226.175 43.6912 227.007 45.2135 227.007 46.8479V80.5872ZM234.42 88.5872H233.407C230.756 88.5872 228.607 86.4384 228.607 83.7872V81.3872V42.1871V34.188C228.607 33.9152 228.468 33.6608 228.239 33.5136L224.036 30.816C223.395 30.4048 223.007 29.6944 223.007 28.932V15.7872C223.007 14.02 221.574 12.5872 219.807 12.5872H210.207C208.44 12.5872 207.007 14.02 207.007 15.7872C207.007 17.5576 205.048 18.6272 203.559 17.6712L190.852 9.51355C190.589 9.34395 190.252 9.34395 189.988 9.51355L152.601 33.5136C152.372 33.6608 152.233 33.9144 152.233 34.1872V42.1871V81.3872V83.7872C152.233 86.4384 150.084 88.5872 147.433 88.5872H141.62C141.178 88.5872 140.82 88.9448 140.82 89.3872C140.82 89.8288 141.178 90.1872 141.62 90.1872H234.42C234.862 90.1872 235.22 89.8288 235.22 89.3872C235.22 88.9448 234.862 88.5872 234.42 88.5872V88.5872ZM16.2128 49.2536H25.8128V45.2536H16.2128V49.2536ZM16.2128 54.8535H25.8128V50.8535H16.2128V54.8535ZM26.6128 43.6535H15.4128C14.9712 43.6535 14.6128 44.012 14.6128 44.4536V55.6535C14.6128 56.0951 14.9712 56.4536 15.4128 56.4536H26.6128C27.0552 56.4536 27.4128 56.0951 27.4128 55.6535V44.4536C27.4128 44.012 27.0552 43.6535 26.6128 43.6535ZM63.7864 54.8535H73.3864V50.8535H63.7864V54.8535ZM63.7864 49.2536H73.3864V45.2536H63.7864V49.2536ZM62.9864 56.4536H74.1864C74.628 56.4536 74.9864 56.0951 74.9864 55.6535V44.4536C74.9864 44.012 74.628 43.6535 74.1864 43.6535H62.9864C62.5448 43.6535 62.1864 44.012 62.1864 44.4536V55.6535C62.1864 56.0951 62.5448 56.4536 62.9864 56.4536V56.4536Z" fill="#0E0F10"/>
<path fill-rule="evenodd" clip-rule="evenodd" d="M81.3866 36.0264C81.3866 38.056 79.1418 39.2824 77.4346 38.1856L45.2322 17.5136C44.969 17.344 44.6314 17.344 44.3682 17.5136L12.1658 38.1856C10.4578 39.2824 8.21295 38.056 8.21295 36.0264C8.21295 35.1528 8.65775 34.3392 9.39295 33.8664L41.3426 13.3576C43.449 12.0048 46.1506 12.0048 48.257 13.3576L64.7762 23.9608C65.1474 24.2 65.6426 24.092 65.8818 23.7208V23.72C66.1202 23.3488 66.0122 22.8536 65.6402 22.6152L64.3826 21.8072C63.513 21.2488 62.9866 20.2864 62.9866 19.2536V15.7872C62.9866 14.9032 63.7034 14.1872 64.5866 14.1872H74.1866C75.0706 14.1872 75.7866 14.9032 75.7866 15.7872V23.5736C75.7866 25.9744 73.1322 27.4248 71.1122 26.1272C70.7402 25.8888 70.2458 25.996 70.0066 26.3688C69.7682 26.7408 69.8762 27.2352 70.2482 27.4736L80.2066 33.8664C80.9418 34.3392 81.3866 35.1528 81.3866 36.0264ZM81.3866 80.5872V86.1871C81.3866 87.5127 80.3121 88.5872 78.9865 88.5872H65.6002C64.2746 88.5872 63.2002 87.5127 63.2002 86.1871V70.6392C63.2002 60.6752 55.4674 52.1768 45.5098 51.8008C35.0426 51.4048 26.4002 59.8055 26.4002 70.1871V86.1871C26.4002 87.5127 25.3258 88.5872 24.0002 88.5872H10.613C9.28735 88.5872 8.21295 87.5127 8.21295 86.1871V80.5872V48.1959C8.21295 44.7239 9.98015 41.4904 12.9026 39.6144L44.8002 19.1376L76.6978 39.6144C79.6202 41.4904 81.3866 44.7239 81.3866 48.1959V80.5872ZM59.2002 86.9855H48.0002C46.6746 86.9855 45.6002 85.9111 45.6002 84.5855V57.2151C45.6002 55.0631 47.685 53.5168 49.741 54.1496C56.6002 56.2616 61.6002 62.6439 61.6002 70.1871V84.5855C61.6002 85.9111 60.5258 86.9855 59.2002 86.9855V86.9855ZM41.6002 86.9855H30.4002C29.0746 86.9855 28.0002 85.9111 28.0002 84.5855V70.1871C28.0002 62.6439 33.0002 56.2616 39.8586 54.1496C41.9154 53.5168 44.0002 55.0631 44.0002 57.2151V84.5855C44.0002 85.9111 42.9258 86.9855 41.6002 86.9855V86.9855ZM131.195 88.5872H87.7866C85.1362 88.5872 82.9865 86.4383 82.9865 83.7871V81.3872V42.1871V35.936C82.9865 34.5736 82.2938 33.3056 81.1474 32.5696L78.8577 31.1C77.9409 30.5112 77.3866 29.4968 77.3866 28.4072V13.3872C77.3866 12.9448 77.029 12.5872 76.5866 12.5872H62.1866C61.745 12.5872 61.3866 12.9448 61.3866 13.3872V16.956C61.3866 18.2216 59.9874 18.9864 58.9226 18.3024L45.2322 9.51355C44.969 9.34395 44.6314 9.34395 44.3682 9.51355L6.98095 33.5136C6.75215 33.6608 6.61295 33.9144 6.61295 34.1872V42.1871V81.3872V83.7871C6.61295 86.4383 4.46415 88.5872 1.81295 88.5872H0.800153C0.357753 88.5872 0.000152588 88.9448 0.000152588 89.3872C0.000152588 89.8288 0.357753 90.1871 0.800153 90.1871H131.195C131.637 90.1871 131.995 89.8288 131.995 89.3872C131.995 88.9448 131.637 88.5872 131.195 88.5872V88.5872Z" fill="#0E0F10"/>
</svg>
