<svg width="232" height="113" viewBox="0 0 232 113" fill="none" xmlns="http://www.w3.org/2000/svg">
<path fill-rule="evenodd" clip-rule="evenodd" d="M25.6833 17.7454H22.3609C15.3849 17.7454 9.62649 23.0448 8.85529 29.8406H16.0481C16.6537 24.2161 20.5137 19.5437 25.6833 17.7454V17.7454ZM15.9607 58.5283V57.4581H8.76065V58.5283C8.76065 66.0539 14.8615 72.1762 22.3607 72.1762H25.6838C20.0446 70.2149 15.9607 64.8328 15.9607 58.5283" fill="#1C1E21"/>
<path fill-rule="evenodd" clip-rule="evenodd" d="M74.152 34.2834H87.7136V31.3932C87.7136 23.8676 81.6128 17.7454 74.1136 17.7454H25.6832C20.5136 19.5437 16.6536 24.2153 16.048 29.8406H19.68C20.1216 29.8406 20.48 30.2003 20.48 30.6434C20.48 31.0874 20.1216 31.4462 19.68 31.4462H8.00001C4.47041 31.4462 1.60001 34.3275 1.60001 37.8688V49.4293C1.60001 52.9706 4.47041 55.8519 8.00001 55.8519H19.68C20.1216 55.8519 20.48 56.2115 20.48 56.6547C20.48 57.0978 20.1216 57.4575 19.68 57.4575H15.9608V58.5285C15.9608 64.833 20.0448 70.2143 25.684 72.1763H74.1136C80.9408 72.1763 86.592 67.0977 87.5536 60.5106C85.3888 61.702 82.9072 62.382 80.2688 62.382H64.9088C56.5272 62.382 49.7088 55.5396 49.7088 47.1285V40.8665C49.7088 37.2361 52.652 34.2834 56.2688 34.2834H64.9088C65.3512 34.2834 65.7088 34.6431 65.7088 35.0862H73.352C73.352 34.6431 73.7104 34.2834 74.152 34.2834Z" fill="#26282C"/>
<path fill-rule="evenodd" clip-rule="evenodd" d="M57.229 47.1285V40.8665C57.229 38.7511 58.3794 36.8966 60.081 35.889H56.269C53.5338 35.889 51.309 38.1217 51.309 40.8665V47.1285C51.309 54.6541 57.4098 60.7764 64.909 60.7764H66.9522C61.3122 58.8151 57.229 53.433 57.229 47.1285Z" fill="#26282C"/>
<path fill-rule="evenodd" clip-rule="evenodd" d="M11.2001 34.6578C8.99047 34.6578 7.20007 36.4553 7.20007 38.6719V48.6269C7.20007 50.8442 8.99047 52.6409 11.2001 52.6409H16.4801C17.3641 52.6409 18.0801 51.9224 18.0801 51.0353V36.2635C18.0801 35.3772 17.3641 34.6578 16.4801 34.6578H11.2001Z" fill="#1C1E21"/>
<path fill-rule="evenodd" clip-rule="evenodd" d="M86.0145 54.9576H83.1937C81.9001 54.9576 80.8425 53.8963 80.8425 52.5981C80.8425 51.3008 81.9001 50.2395 83.1937 50.2395H86.0145C87.3073 50.2395 88.3649 51.3008 88.3649 52.5981C88.3649 53.8963 87.3073 54.9576 86.0145 54.9576ZM74.7561 54.9576H70.0537C68.7609 54.9576 67.7033 53.8963 67.7033 52.5981C67.7033 51.3008 68.7609 50.2395 70.0537 50.2395H74.7561C76.0489 50.2395 77.1073 51.3008 77.1073 52.5981C77.1073 53.8963 76.0489 54.9576 74.7561 54.9576ZM88.9089 35.8891H74.1521C73.7105 35.8891 73.3521 35.5295 73.3521 35.0863H65.7089C65.7089 35.5295 65.3505 35.8891 64.9089 35.8891H60.0809C58.3801 36.8967 57.2289 38.7512 57.2289 40.8666V47.1286C57.2289 53.4331 61.3129 58.8152 66.9521 60.7764H80.2689C87.7681 60.7764 93.8689 54.6542 93.8689 47.1286V40.8666C93.8689 38.1218 91.6441 35.8891 88.9089 35.8891" fill="#2F3237"/>
<path fill-rule="evenodd" clip-rule="evenodd" d="M93.8688 47.1285C93.8688 54.6662 87.78 60.7764 80.2688 60.7764H66.952H64.9088C57.3976 60.7764 51.3088 54.6662 51.3088 47.1285V40.8665C51.3088 38.1177 53.5296 35.8891 56.2688 35.8891H60.0816H64.9088C65.3512 35.8891 65.7088 35.5294 65.7088 35.0862C65.7088 34.6431 65.3512 34.2834 64.9088 34.2834H56.2688C52.6456 34.2834 49.7088 37.2306 49.7088 40.8665V47.1285C49.7088 55.5533 56.5144 62.382 64.9088 62.382H80.2688C82.3384 62.382 84.312 61.9638 86.1112 61.2083C86.7448 60.9426 87.3872 61.5118 87.2032 62.1757C85.6104 67.9343 80.3528 72.1764 74.1136 72.1764H25.684H22.3608C18.3088 72.1764 14.6656 70.3893 12.1712 67.5586C8.9752 63.9307 11.1872 58.1672 15.9608 57.4575H19.68C20.1216 57.4575 20.48 57.0979 20.48 56.6547C20.48 56.2116 20.1216 55.8519 19.68 55.8519H8C4.4656 55.8519 1.6 52.977 1.6 49.4294V37.8688C1.6 34.322 4.4656 31.4463 8 31.4463H19.68C20.1216 31.4463 20.48 31.0874 20.48 30.6435C20.48 30.2003 20.1216 29.8406 19.68 29.8406H16.048H10.7928C9.736 29.8406 8.9664 28.8299 9.2448 27.8063C10.8176 22.0164 16.0992 17.7454 22.3608 17.7454H25.6832H74.1136C81.6248 17.7454 87.7136 23.8556 87.7136 31.3933V32.6778C87.7136 33.5641 86.9976 34.2834 86.1136 34.2834H74.152C73.7104 34.2834 73.352 34.6431 73.352 35.0862C73.352 35.5294 73.7104 35.8891 74.152 35.8891H88.9088C91.648 35.8891 93.8688 38.1177 93.8688 40.8665V47.1285ZM89.3136 34.3043V31.3933C89.3136 22.9822 82.4952 16.1398 74.1136 16.1398H22.3608C14.4888 16.1398 7.9968 22.177 7.2368 29.88C3.1824 30.2669 0 33.7006 0 37.8688V49.4294C0 53.5719 3.1424 56.9903 7.1608 57.4134V58.5285C7.1608 66.9388 13.9792 73.782 22.3608 73.782H74.1136C82.2048 73.782 88.82 67.3996 89.2704 59.3915C93.0208 56.6114 95.4688 52.1565 95.4688 47.1285V40.8665C95.4688 37.3735 92.7424 34.5162 89.3136 34.3043V34.3043Z" fill="#0E0F10"/>
<path fill-rule="evenodd" clip-rule="evenodd" d="M74.7563 50.2391H70.0539C68.7611 50.2391 67.7035 51.3005 67.7035 52.5978C67.7035 53.896 68.7611 54.9573 70.0539 54.9573H74.7563C76.0491 54.9573 77.1067 53.896 77.1067 52.5978C77.1067 51.3005 76.0491 50.2391 74.7563 50.2391ZM86.0146 50.2391H83.1938C81.9002 50.2391 80.8426 51.3005 80.8426 52.5978C80.8426 53.896 81.9002 54.9573 83.1938 54.9573H86.0146C87.3074 54.9573 88.365 53.896 88.365 52.5978C88.365 51.3005 87.3074 50.2391 86.0146 50.2391Z" fill="#1C1E21"/>
<path fill-rule="evenodd" clip-rule="evenodd" d="M112.443 45.419H111.235V44.2068C111.235 43.7628 110.877 43.404 110.435 43.404C109.993 43.404 109.635 43.7628 109.635 44.2068V45.419H108.427C107.985 45.419 107.627 45.7787 107.627 46.2218C107.627 46.665 107.985 47.0247 108.427 47.0247H109.635V48.2369C109.635 48.6801 109.993 49.0397 110.435 49.0397C110.877 49.0397 111.235 48.6801 111.235 48.2369V47.0247H112.443C112.885 47.0247 113.243 46.665 113.243 46.2218C113.243 45.7787 112.885 45.419 112.443 45.419ZM106.797 22.9312L105.851 23.8809C105.538 24.1948 105.538 24.703 105.851 25.0161C106.007 25.1726 106.212 25.2513 106.417 25.2513C106.621 25.2513 106.826 25.1726 106.982 25.0161L107.929 24.0663C108.241 23.7524 108.241 23.2451 107.929 22.9312C107.616 22.6173 107.11 22.6173 106.797 22.9312ZM102.065 27.681L101.118 28.6308C100.805 28.9447 100.805 29.4528 101.118 29.7659C101.274 29.9225 101.479 30.0012 101.684 30.0012C101.889 30.0012 102.093 29.9225 102.249 29.7659L103.196 28.8162C103.509 28.5023 103.509 27.9949 103.196 27.681C102.883 27.3671 102.377 27.3671 102.065 27.681ZM106.982 27.681C106.669 27.3671 106.164 27.3671 105.851 27.681C105.538 27.9949 105.538 28.5023 105.851 28.8162L106.797 29.7659C106.953 29.9225 107.158 30.0012 107.363 30.0012C107.568 30.0012 107.772 29.9225 107.928 29.7659C108.241 29.4528 108.241 28.9447 107.928 28.6308L106.982 27.681ZM102.249 22.9312C101.936 22.6173 101.431 22.6173 101.118 22.9312C100.805 23.2451 100.805 23.7524 101.118 24.0663L102.064 25.0161C102.22 25.1726 102.425 25.2513 102.63 25.2513C102.835 25.2513 103.04 25.1726 103.196 25.0161C103.508 24.703 103.508 24.1948 103.196 23.8809L102.249 22.9312ZM140.352 9.14061C139.686 9.14061 139.144 8.5963 139.144 7.92836C139.144 7.25961 139.686 6.71611 140.352 6.71611C141.018 6.71611 141.56 7.25961 141.56 7.92836C141.56 8.5963 141.018 9.14061 140.352 9.14061ZM140.352 5.11047C138.804 5.11047 137.544 6.37491 137.544 7.92836C137.544 9.48181 138.804 10.7462 140.352 10.7462C141.901 10.7462 143.16 9.48181 143.16 7.92836C143.16 6.37491 141.901 5.11047 140.352 5.11047Z" fill="#0E0F10"/>
<path fill-rule="evenodd" clip-rule="evenodd" d="M209.226 6.1018C203.651 3.16028 197.352 1.60522 191.009 1.60522C169.395 1.60522 151.809 19.2527 151.809 40.9433C151.809 52.2453 156.59 62.4411 164.219 69.6231C166.494 66.065 169.446 62.9974 172.88 60.593C167.613 55.6958 164.308 48.7017 164.308 40.9433C164.308 26.1682 176.286 14.1476 191.009 14.1476C205.733 14.1476 217.711 26.1682 217.711 40.9433C217.711 48.7017 214.406 55.6958 209.138 60.5938C212.572 62.9982 215.525 66.065 217.799 69.6231C225.429 62.4411 230.209 52.2453 230.209 40.9433C230.209 33.0901 227.911 25.5091 223.562 19.0191C223.319 18.6571 223.413 18.1697 223.766 17.9193C222.12 15.5654 220.233 13.3954 218.135 11.4502C217.977 11.6212 217.763 11.7119 217.547 11.7119C217.359 11.7119 217.169 11.6453 217.017 11.5096C216.179 10.7638 215.3 10.046 214.403 9.37489C214.054 9.11477 213.981 8.62425 214.231 8.27021C212.971 7.36624 211.66 6.5297 210.298 5.77506C210.088 6.158 209.614 6.30652 209.226 6.1018" fill="#131416"/>
<path fill-rule="evenodd" clip-rule="evenodd" d="M165.425 70.7097C172.297 76.6666 181.238 80.2817 191.01 80.2817C200.782 80.2817 209.722 76.6658 216.594 70.7097C214.345 67.1203 211.374 64.0463 207.899 61.6804C203.294 65.4641 197.412 67.7393 191.01 67.7393C184.608 67.7393 178.726 65.4649 174.122 61.6812C170.646 64.0463 167.674 67.1211 165.425 70.7097" fill="#26282C"/>
<path fill-rule="evenodd" clip-rule="evenodd" d="M175.94 35.984C177.806 35.984 179.318 37.5021 179.318 39.3743C179.318 41.2464 177.806 42.7646 175.94 42.7646C174.074 42.7646 172.562 41.2464 172.562 39.3743C172.562 37.5021 174.074 35.984 175.94 35.984ZM206.349 35.984C208.214 35.984 209.727 37.5021 209.727 39.3743C209.727 41.2464 208.214 42.7646 206.349 42.7646C204.482 42.7646 202.97 41.2464 202.97 39.3743C202.97 37.5021 204.482 35.984 206.349 35.984ZM191.01 66.1338C204.85 66.1338 216.111 54.8333 216.111 40.9438C216.111 27.0534 204.85 15.7538 191.01 15.7538C177.169 15.7538 165.908 27.0534 165.908 40.9438C165.908 54.8333 177.169 66.1338 191.01 66.1338Z" fill="#1C1E21"/>
<path fill-rule="evenodd" clip-rule="evenodd" d="M175.94 42.7644C177.806 42.7644 179.318 41.2463 179.318 39.3741C179.318 37.502 177.806 35.9838 175.94 35.9838C174.074 35.9838 172.562 37.502 172.562 39.3741C172.562 41.2463 174.074 42.7644 175.94 42.7644ZM206.349 42.7644C208.214 42.7644 209.727 41.2463 209.727 39.3741C209.727 37.502 208.214 35.9838 206.349 35.9838C204.482 35.9838 202.97 37.502 202.97 39.3741C202.97 41.2463 204.482 42.7644 206.349 42.7644ZM214.403 9.37503C215.301 10.0462 216.18 10.7639 217.017 11.5097C217.17 11.6454 217.358 11.712 217.547 11.712C217.763 11.712 217.977 11.6213 218.134 11.4503C218.138 11.4471 218.142 11.4455 218.146 11.4415C218.439 11.1099 218.409 10.6025 218.078 10.3087C217.208 9.53318 216.293 8.78576 215.358 8.08731C215.005 7.82238 214.503 7.89624 214.239 8.25189C214.235 8.25751 214.235 8.26393 214.231 8.27035C213.982 8.6244 214.054 9.11492 214.403 9.37503" fill="#0E0F10"/>
<path fill-rule="evenodd" clip-rule="evenodd" d="M191.009 67.7393C197.412 67.7393 203.293 65.4649 207.899 61.6804C211.373 64.0463 214.345 67.1203 216.594 70.7097C209.722 76.6666 200.781 80.2817 191.009 80.2817C181.237 80.2817 172.297 76.6666 165.425 70.7097C167.674 67.1211 170.645 64.0463 174.121 61.6812C178.726 65.4649 184.608 67.7393 191.009 67.7393ZM191.009 15.7537C204.85 15.7537 216.111 27.0541 216.111 40.9437C216.111 54.8332 204.85 66.1336 191.009 66.1336C177.169 66.1336 165.908 54.8332 165.908 40.9437C165.908 27.0541 177.169 15.7537 191.009 15.7537V15.7537ZM224.889 18.1236C224.643 17.7551 224.146 17.658 223.779 17.9052C223.774 17.9092 223.771 17.9149 223.766 17.9189C223.413 18.1702 223.319 18.6567 223.562 19.0195C227.91 25.5087 230.209 33.0905 230.209 40.9437C230.209 50.0629 227.097 58.4635 221.885 65.1406C220.069 67.4679 216.573 67.614 214.597 65.4215C213.543 64.2518 212.405 63.1608 211.193 62.1589C210.167 61.3103 210.048 59.7537 210.933 58.7582C215.647 53.4556 218.299 46.2696 217.6 38.4774C216.437 25.5031 205.862 15.1211 192.913 14.2147C177.333 13.1245 164.308 25.536 164.308 40.9437C164.308 47.7764 166.872 54.0175 171.082 58.755C171.969 59.7513 171.853 61.3079 170.826 62.1581C169.614 63.16 168.476 64.251 167.421 65.4215C165.445 67.614 161.949 67.4679 160.133 65.1406C154.922 58.4635 151.809 50.0629 151.809 40.9437C151.809 19.2524 169.394 1.60563 191.009 1.60563C197.352 1.60563 203.651 3.16069 209.226 6.10221C209.614 6.30693 210.088 6.15841 210.297 5.77547C210.3 5.77145 210.304 5.76904 210.306 5.76503C210.512 5.37245 210.361 4.88675 209.97 4.68042C204.167 1.61848 197.61 0 191.009 0C167.476 0 148.533 20.0977 150.327 44.0875C151.825 64.1057 167.929 80.2664 187.877 81.7693C211.782 83.57 231.809 64.5601 231.809 40.9437C231.809 32.7694 229.417 24.8785 224.889 18.1236" fill="#0E0F10"/>
<path fill-rule="evenodd" clip-rule="evenodd" d="M39.4685 39.6354C37.4885 39.6354 35.8685 41.2611 35.8685 43.2481C35.8685 45.235 37.4885 46.8607 39.4685 46.8607C41.4485 46.8607 43.0685 45.235 43.0685 43.2481C43.0685 41.2611 41.4485 39.6354 39.4685 39.6354ZM195.986 47.3899C194.69 46.4073 193.165 45.8606 191.611 45.7466C191.552 45.7418 191.493 45.7418 191.434 45.7385C191.284 45.7305 191.134 45.7225 190.985 45.7225C190.835 45.7225 190.686 45.7305 190.536 45.7385C190.477 45.7418 190.418 45.7418 190.358 45.7466C188.805 45.8606 187.279 46.4073 185.984 47.3899C185.631 47.6573 185.562 48.1606 185.829 48.5139C185.986 48.7234 186.225 48.8326 186.467 48.8326C186.635 48.8326 186.805 48.7796 186.949 48.6704C186.953 48.6672 186.958 48.6648 186.962 48.6616L186.971 48.6744L187.02 48.6375C187.902 47.9792 188.914 47.5698 189.958 47.4068C190.037 47.3948 190.116 47.3964 190.194 47.3867C190.457 47.3554 190.72 47.3281 190.985 47.3281C191.25 47.3281 191.513 47.3554 191.775 47.3867C191.854 47.3964 191.933 47.3948 192.011 47.4068C193.054 47.5698 194.067 47.9792 194.95 48.6375L194.998 48.6744L195.007 48.6616C195.011 48.6648 195.017 48.6672 195.021 48.6704C195.165 48.7796 195.334 48.8326 195.502 48.8326C195.745 48.8326 195.984 48.7234 196.141 48.5139C196.408 48.1606 196.338 47.6573 195.986 47.3899V47.3899ZM151.227 105.065H148.027C147.585 105.065 147.227 105.424 147.227 105.867C147.227 106.311 147.585 106.67 148.027 106.67H151.227C151.669 106.67 152.027 106.311 152.027 105.867C152.027 105.424 151.669 105.065 151.227 105.065ZM158.427 105.065H155.227C154.785 105.065 154.427 105.424 154.427 105.867C154.427 106.311 154.785 106.67 155.227 106.67H158.427C158.869 106.67 159.227 106.311 159.227 105.867C159.227 105.424 158.869 105.065 158.427 105.065ZM144.027 105.065H140.827C140.385 105.065 140.027 105.424 140.027 105.867C140.027 106.311 140.385 106.67 140.827 106.67H144.027C144.469 106.67 144.827 106.311 144.827 105.867C144.827 105.424 144.469 105.065 144.027 105.065ZM136.827 105.065H133.627C133.185 105.065 132.827 105.424 132.827 105.867C132.827 106.311 133.185 106.67 133.627 106.67H136.827C137.269 106.67 137.627 106.311 137.627 105.867C137.627 105.424 137.269 105.065 136.827 105.065ZM193.514 89.6978C193.073 89.6978 192.714 90.0574 192.714 90.5006V93.7118C192.714 94.155 193.073 94.5147 193.514 94.5147C193.956 94.5147 194.314 94.155 194.314 93.7118V90.5006C194.314 90.0574 193.956 89.6978 193.514 89.6978ZM187.227 105.065H184.027C183.585 105.065 183.227 105.424 183.227 105.867C183.227 106.311 183.585 106.67 184.027 106.67H187.227C187.669 106.67 188.027 106.311 188.027 105.867C188.027 105.424 187.669 105.065 187.227 105.065ZM193.514 104.148C193.073 104.148 192.714 104.508 192.714 104.951V105.064H191.227C190.785 105.064 190.427 105.424 190.427 105.867C190.427 106.31 190.785 106.67 191.227 106.67H193.514C193.956 106.67 194.314 106.31 194.314 105.867V104.951C194.314 104.508 193.956 104.148 193.514 104.148V104.148ZM193.514 96.9231C193.073 96.9231 192.714 97.2828 192.714 97.7259V100.937C192.714 101.38 193.073 101.74 193.514 101.74C193.956 101.74 194.314 101.38 194.314 100.937V97.7259C194.314 97.2828 193.956 96.9231 193.514 96.9231ZM165.627 105.065H162.427C161.985 105.065 161.627 105.424 161.627 105.867C161.627 106.311 161.985 106.67 162.427 106.67H165.627C166.069 106.67 166.427 106.311 166.427 105.867C166.427 105.424 166.069 105.065 165.627 105.065ZM172.827 105.065H169.627C169.185 105.065 168.827 105.424 168.827 105.867C168.827 106.311 169.185 106.67 169.627 106.67H172.827C173.269 106.67 173.627 106.311 173.627 105.867C173.627 105.424 173.269 105.065 172.827 105.065ZM180.027 105.065H176.827C176.385 105.065 176.027 105.424 176.027 105.867C176.027 106.311 176.385 106.67 176.827 106.67H180.027C180.469 106.67 180.827 106.311 180.827 105.867C180.827 105.424 180.469 105.065 180.027 105.065Z" fill="#0E0F10"/>
<path fill-rule="evenodd" clip-rule="evenodd" d="M124.981 107.003C124.356 106.376 124.356 105.36 124.981 104.732L126.678 103.029C127.303 102.402 127.303 101.386 126.678 100.759L125.547 99.6234C124.922 98.9956 123.909 98.9956 123.283 99.6234L121.587 101.326C120.962 101.953 119.949 101.953 119.324 101.326L117.627 99.6234C117.002 98.9956 115.989 98.9956 115.364 99.6234L114.233 100.759C113.608 101.386 113.608 102.402 114.233 103.029L115.93 104.732C116.555 105.36 116.555 106.376 115.93 107.003L114.233 108.706C113.608 109.333 113.608 110.349 114.233 110.977L115.364 112.112C115.989 112.739 117.002 112.739 117.627 112.112L119.324 110.409C119.949 109.781 120.962 109.781 121.587 110.409L123.283 112.112C123.909 112.739 124.922 112.739 125.547 112.112L126.678 110.977C127.303 110.349 127.303 109.333 126.678 108.706L124.981 107.003Z" fill="#ED4245"/>
<path fill-rule="evenodd" clip-rule="evenodd" d="M89.6837 105.065H92.8837C93.3253 105.065 93.6837 105.424 93.6837 105.867C93.6837 106.311 93.3253 106.67 92.8837 106.67H89.6837C89.2421 106.67 88.8837 106.311 88.8837 105.867C88.8837 105.424 89.2421 105.065 89.6837 105.065ZM82.4837 105.065H85.6837C86.1253 105.065 86.4837 105.424 86.4837 105.867C86.4837 106.311 86.1253 106.67 85.6837 106.67H82.4837C82.0421 106.67 81.6837 106.311 81.6837 105.867C81.6837 105.424 82.0421 105.065 82.4837 105.065ZM96.8837 105.065H100.084C100.525 105.065 100.884 105.424 100.884 105.867C100.884 106.311 100.525 106.67 100.084 106.67H96.8837C96.4421 106.67 96.0837 106.311 96.0837 105.867C96.0837 105.424 96.4421 105.065 96.8837 105.065ZM104.084 105.065H107.284C107.725 105.065 108.084 105.424 108.084 105.867C108.084 106.311 107.725 106.67 107.284 106.67H104.084C103.642 106.67 103.284 106.311 103.284 105.867C103.284 105.424 103.642 105.065 104.084 105.065ZM47.3966 89.6978C47.8382 89.6978 48.1966 90.0574 48.1966 90.5006V93.7118C48.1966 94.155 47.8382 94.5147 47.3966 94.5147C46.955 94.5147 46.5966 94.155 46.5966 93.7118V90.5006C46.5966 90.0574 46.955 89.6978 47.3966 89.6978ZM53.6837 105.065H56.8837C57.3253 105.065 57.6837 105.424 57.6837 105.867C57.6837 106.311 57.3253 106.67 56.8837 106.67H53.6837C53.2421 106.67 52.8837 106.311 52.8837 105.867C52.8837 105.424 53.2421 105.065 53.6837 105.065ZM47.3966 104.148C47.8382 104.148 48.1966 104.508 48.1966 104.951V105.064H49.6838C50.1254 105.064 50.4838 105.424 50.4838 105.867C50.4838 106.31 50.1254 106.67 49.6838 106.67H47.3966C46.955 106.67 46.5966 106.31 46.5966 105.867V104.951C46.5966 104.508 46.955 104.148 47.3966 104.148V104.148ZM47.3966 96.9231C47.8382 96.9231 48.1966 97.2828 48.1966 97.7259V100.937C48.1966 101.38 47.8382 101.74 47.3966 101.74C46.955 101.74 46.5966 101.38 46.5966 100.937V97.7259C46.5966 97.2828 46.955 96.9231 47.3966 96.9231ZM75.2837 105.065H78.4837C78.9253 105.065 79.2837 105.424 79.2837 105.867C79.2837 106.311 78.9253 106.67 78.4837 106.67H75.2837C74.8421 106.67 74.4837 106.311 74.4837 105.867C74.4837 105.424 74.8421 105.065 75.2837 105.065ZM68.0837 105.065H71.2837C71.7253 105.065 72.0837 105.424 72.0837 105.867C72.0837 106.311 71.7253 106.67 71.2837 106.67H68.0837C67.6421 106.67 67.2837 106.311 67.2837 105.867C67.2837 105.424 67.6421 105.065 68.0837 105.065ZM60.8837 105.065H64.0837C64.5253 105.065 64.8837 105.424 64.8837 105.867C64.8837 106.311 64.5253 106.67 64.0837 106.67H60.8837C60.4421 106.67 60.0837 106.311 60.0837 105.867C60.0837 105.424 60.4421 105.065 60.8837 105.065Z" fill="#0E0F10"/>
</svg>
