<svg width="249" height="195" viewBox="0 0 249 195" fill="none" xmlns="http://www.w3.org/2000/svg">
<path fill-rule="evenodd" clip-rule="evenodd" d="M54.7881 16.884H122.308C150.537 16.884 173.42 39.768 173.42 67.996C173.42 81.083 184.029 91.693 197.116 91.693H197.119C225.526 91.693 248.554 114.72 248.554 143.127V143.13C248.554 171.537 225.526 194.565 197.119 194.565H171.121H56.2861C40.4011 194.565 27.5251 181.689 27.5251 165.805V165.803C27.5251 149.919 40.4011 137.042 56.2861 137.042H59.0401C68.3291 137.042 75.8591 129.512 75.8591 120.224C75.8591 110.935 68.3291 103.405 59.0401 103.405H54.7881C30.8961 103.405 11.5271 84.036 11.5271 60.144C11.5271 36.252 30.8961 16.884 54.7881 16.884" fill="#141414" fill-opacity="0.3"/>
<path fill-rule="evenodd" clip-rule="evenodd" d="M106.439 18.9578C106.274 19.6278 106.822 20.2608 107.509 20.1918L114.234 19.5208C114.268 19.5178 114.301 19.5168 114.335 19.5168C114.835 19.5168 115.266 19.8908 115.327 20.3978L115.831 24.6398C115.965 25.7618 117.566 25.8358 117.802 24.7308L119.649 16.0948C119.787 15.4498 119.275 14.8508 118.617 14.8868L112.672 15.2078C112.15 15.2448 111.71 14.8708 111.63 14.3638L110.825 9.19979C110.657 8.12079 109.127 8.05379 108.866 9.11379L106.439 18.9578Z" fill="#1F2225"/>
<path fill-rule="evenodd" clip-rule="evenodd" d="M168.582 99.816L172.321 96.077L169.956 93.712L166.217 97.451L168.582 99.816Z" fill="#1C1E21"/>
<path fill-rule="evenodd" clip-rule="evenodd" d="M99.2026 163.777C99.0926 163.1 99.1176 162.41 99.2716 161.739L97.1646 163.846C97.8346 163.692 98.5256 163.668 99.2026 163.777ZM119.324 153.665L121.12 151.869C118.896 152.109 116.776 152.805 114.856 153.897L117.681 156.723L119.324 155.079C118.933 154.688 118.933 154.056 119.324 153.665" fill="#1C1E21"/>
<path fill-rule="evenodd" clip-rule="evenodd" d="M103.88 155.875C104.227 156.222 104.227 156.783 103.88 157.13L103.194 157.816C103.864 157.661 104.554 157.637 105.232 157.747C104.976 156.172 105.433 154.509 106.609 153.274C106.585 153.255 106.555 153.246 106.532 153.224C106.186 152.877 106.186 152.315 106.532 151.969L121.627 136.874L120.136 135.384L79.7634 175.757C79.3084 176.212 79.0574 176.817 79.0574 177.462C79.0574 178.004 79.2434 178.512 79.5694 178.932L102.626 155.875C102.972 155.528 103.533 155.528 103.88 155.875ZM91.3027 181.409L88.9507 179.057C88.5837 179.367 88.2227 179.686 87.8797 180.03L84.2527 183.656L85.0877 184.491C85.7227 185.125 86.6217 185.321 87.4307 185.099L90.9067 181.624C91.0197 181.511 91.1577 181.448 91.3027 181.409V181.409ZM164.962 96.1956L168.701 92.4576L167.587 91.3426C167.434 91.1896 167.26 91.0706 167.081 90.9666C166.075 91.4906 164.967 91.7246 163.86 91.6606L162.143 93.3776L164.962 96.1956ZM87.2124 173.798L80.8034 180.207L82.9984 182.402L87.7864 177.614C87.1104 176.445 86.9164 175.082 87.2124 173.798V173.798ZM122.904 149.992C122.937 149.992 122.969 149.988 123.001 149.988L124.879 148.11C122.224 148.4 119.711 149.318 117.52 150.807C119.241 150.273 121.05 149.991 122.904 149.992V149.992ZM170.878 102.112L172.912 100.078C173.367 99.6226 173.618 99.0166 173.618 98.3726C173.618 98.0566 173.556 97.7506 173.441 97.4656L169.836 101.071L170.878 102.112ZM93.1729 169.806C93.0629 169.129 93.0879 168.439 93.2419 167.769L91.1359 169.874C91.8059 169.72 92.4959 169.696 93.1729 169.806" fill="#1C1E21"/>
<path fill-rule="evenodd" clip-rule="evenodd" d="M113.041 152.36L113.874 151.528C117.291 148.11 121.835 146.227 126.667 146.228C126.701 146.228 126.733 146.223 126.766 146.223L128.872 144.118L122.882 138.129L109.225 151.786C110.509 151.49 111.873 151.684 113.041 152.36V152.36ZM106.533 153.224C106.555 153.246 106.585 153.255 106.61 153.275C106.639 153.244 106.659 153.206 106.69 153.175C107.412 152.453 108.296 152 109.224 151.787L122.882 138.129L121.627 136.874L106.533 151.969C106.186 152.316 106.186 152.877 106.533 153.224V153.224ZM88.6016 171.264C89.3236 170.542 90.2076 170.089 91.1366 169.874L93.2416 167.769C93.4556 166.84 93.9096 165.956 94.6306 165.235C95.3526 164.514 96.2366 164.06 97.1646 163.846L99.2716 161.739C99.4856 160.811 99.9396 159.927 100.661 159.205C101.383 158.484 102.267 158.031 103.195 157.817L103.881 157.13C104.227 156.784 104.227 156.222 103.881 155.875C103.534 155.529 102.973 155.529 102.626 155.875L79.5696 178.932C79.6326 179.012 79.6906 179.095 79.7636 179.167L80.8036 180.207L87.2126 173.798C87.4266 172.87 87.8796 171.987 88.6016 171.264" fill="#1C1E21"/>
<path fill-rule="evenodd" clip-rule="evenodd" d="M113.873 151.529L113.04 152.361C113.429 152.586 113.802 152.843 114.134 153.175L114.856 153.898C116.776 152.805 118.895 152.11 121.12 151.87L123.001 149.989C122.969 149.989 122.936 149.993 122.904 149.993C121.05 149.992 119.241 150.274 117.52 150.808C119.711 149.319 122.224 148.401 124.878 148.111L126.766 146.224C126.732 146.224 126.7 146.229 126.667 146.229C121.835 146.228 117.29 148.111 113.873 151.529ZM88.9512 179.058L88.6012 178.708C88.2692 178.376 88.0112 178.003 87.7862 177.615L82.9982 182.403L84.2532 183.657L87.8792 180.031C88.2222 179.687 88.5832 179.368 88.9512 179.058V179.058ZM90.9063 181.624L87.4303 185.1C87.8213 184.993 88.1923 184.798 88.4973 184.491L89.2863 183.703C89.6773 183.312 90.3093 183.312 90.7003 183.703L92.1483 182.255L91.3023 181.409C91.1583 181.448 91.0193 181.511 90.9063 181.624" fill="#1C1E21"/>
<path fill-rule="evenodd" clip-rule="evenodd" d="M166.217 97.45L169.956 93.711L168.701 92.457L164.963 96.195L166.217 97.45Z" fill="#1C1E21"/>
<path fill-rule="evenodd" clip-rule="evenodd" d="M167.081 90.967C166.16 90.439 164.965 90.558 164.178 91.343L163.861 91.66C164.967 91.725 166.075 91.49 167.081 90.967ZM169.836 101.071L173.44 97.4665C173.321 97.1715 173.144 96.8995 172.912 96.6675L172.321 96.0765L168.582 99.8155L169.836 101.071Z" fill="#1C1E21"/>
<path fill-rule="evenodd" clip-rule="evenodd" d="M114.716 97.384C115.107 96.993 115.739 96.993 116.13 97.384C116.521 97.775 116.521 98.407 116.13 98.798L107.071 107.857C106.679 108.248 106.464 108.77 106.464 109.324C106.464 109.878 106.679 110.4 107.071 110.791L112.623 116.343C113.014 116.734 113.014 117.366 112.623 117.757C112.428 117.952 112.172 118.05 111.916 118.05C111.66 118.05 111.404 117.952 111.209 117.757L105.657 112.205C104.887 111.436 104.464 110.413 104.464 109.324C104.464 108.236 104.887 107.212 105.657 106.443L114.716 97.384ZM118.705 93.395L119.326 92.774C119.716 92.383 120.349 92.383 120.74 92.774C121.131 93.164 121.131 93.797 120.74 94.188L120.119 94.809C119.924 95.004 119.668 95.102 119.412 95.102C119.156 95.102 118.9 95.004 118.705 94.809C118.314 94.418 118.314 93.785 118.705 93.395V93.395ZM161.419 108.599C160.65 109.368 159.626 109.792 158.537 109.792C157.449 109.792 156.425 109.368 155.656 108.599C154.886 107.829 154.462 106.806 154.462 105.717C154.462 104.628 154.886 103.605 155.656 102.835C157.245 101.247 159.829 101.247 161.419 102.835C163.007 104.424 163.007 107.01 161.419 108.599V108.599ZM128.367 131.813C128.367 130.724 128.791 129.7 129.561 128.931C130.33 128.161 131.354 127.738 132.442 127.738C133.531 127.738 134.554 128.161 135.324 128.931C136.912 130.52 136.912 133.106 135.324 134.695C134.529 135.488 133.486 135.886 132.442 135.886C131.399 135.886 130.355 135.488 129.561 134.695C128.791 133.925 128.367 132.902 128.367 131.813ZM102.63 115.049L117.237 129.656L143.023 103.87C143.414 103.48 144.047 103.48 144.437 103.87C144.828 104.261 144.828 104.894 144.437 105.284L118.651 131.071L133.184 145.604L172.363 106.425L157.83 91.892L149.198 100.524C149.003 100.719 148.747 100.817 148.491 100.817C148.235 100.817 147.979 100.719 147.784 100.524C147.393 100.133 147.393 99.5 147.784 99.11L156.416 90.478L141.808 75.871C138.652 72.715 133.516 72.715 130.359 75.871L102.63 103.6C99.4733 106.756 99.4733 111.893 102.63 115.049V115.049Z" fill="#26282C"/>
<path fill-rule="evenodd" clip-rule="evenodd" d="M157.83 91.8918L149.198 100.524C149.003 100.719 148.747 100.817 148.491 100.817C148.235 100.817 147.979 100.719 147.784 100.524L144.437 103.871C144.828 104.261 144.828 104.894 144.437 105.285L118.651 131.071L133.184 145.604L172.363 106.425L157.83 91.8918Z" fill="#2F3237"/>
<path fill-rule="evenodd" clip-rule="evenodd" d="M185.357 131.052L182.44 133.969C182.245 134.164 181.989 134.262 181.733 134.262C181.477 134.262 181.221 134.164 181.026 133.969C180.635 133.578 180.635 132.946 181.026 132.555L183.943 129.638C184.335 129.246 184.55 128.725 184.55 128.17C184.55 127.616 184.335 127.095 183.943 126.703L182.608 125.368C182.218 124.978 182.218 124.345 182.608 123.954C182.999 123.564 183.632 123.564 184.023 123.954L185.357 125.289C186.127 126.059 186.55 127.081 186.55 128.17C186.55 129.259 186.127 130.282 185.357 131.052V131.052ZM188.384 122.447L173.777 107.839L134.598 147.018L149.206 161.625C152.362 164.781 157.499 164.781 160.655 161.625L188.384 133.896C191.541 130.74 191.541 125.603 188.384 122.447" fill="#26282C"/>
<path fill-rule="evenodd" clip-rule="evenodd" d="M157.07 104.249C156.261 105.059 156.261 106.375 157.07 107.185C157.854 107.968 159.221 107.968 160.005 107.185C160.814 106.375 160.814 105.059 160.005 104.249C159.6 103.845 159.069 103.643 158.537 103.643C158.006 103.643 157.474 103.845 157.07 104.249ZM133.91 130.345C133.518 129.953 132.996 129.738 132.442 129.738C131.888 129.738 131.367 129.953 130.975 130.345C130.166 131.155 130.166 132.471 130.975 133.281C131.784 134.089 133.1 134.089 133.91 133.281C134.719 132.471 134.719 131.155 133.91 130.345Z" fill="#1C1E21"/>
<path fill-rule="evenodd" clip-rule="evenodd" d="M217.31 116.527H210.488C209.936 116.527 209.488 116.974 209.488 117.527C209.488 118.08 209.936 118.527 210.488 118.527H217.31C217.862 118.527 218.31 118.08 218.31 117.527C218.31 116.974 217.862 116.527 217.31 116.527ZM206.443 95.5842C206.557 95.5842 206.672 95.5642 206.785 95.5232L213.195 93.1902C213.714 93.0022 213.982 92.4282 213.793 91.9092C213.604 91.3902 213.029 91.1242 212.511 91.3122L206.101 93.6452C205.582 93.8332 205.315 94.4072 205.503 94.9262C205.651 95.3322 206.035 95.5842 206.443 95.5842ZM199.378 69.2585L194.152 73.6435C193.729 73.9975 193.673 74.6285 194.028 75.0515C194.226 75.2875 194.51 75.4085 194.795 75.4085C195.022 75.4085 195.25 75.3315 195.437 75.1745L200.663 70.7895C201.086 70.4355 201.142 69.8045 200.787 69.3815C200.432 68.9575 199.8 68.9045 199.378 69.2585ZM176.448 60.3005C176.605 60.3915 176.778 60.4345 176.947 60.4345C177.293 60.4345 177.629 60.2555 177.814 59.9345L181.225 54.0265C181.501 53.5485 181.338 52.9365 180.859 52.6605C180.381 52.3835 179.769 52.5485 179.493 53.0265L176.082 58.9345C175.806 59.4125 175.969 60.0245 176.448 60.3005V60.3005ZM154.883 52.4509C154.942 52.4609 155 52.4659 155.058 52.4659C155.534 52.4659 155.956 52.1249 156.042 51.6399L157.226 44.9219C157.322 44.3779 156.959 43.8599 156.415 43.7629C155.868 43.6689 155.352 44.0309 155.257 44.5749L154.072 51.2919C153.976 51.8359 154.339 52.3549 154.883 52.4509V52.4509ZM131.934 182.604C131.387 182.506 130.871 182.871 130.775 183.415L129.591 190.132C129.495 190.676 129.858 191.195 130.402 191.291C130.461 191.301 130.519 191.306 130.577 191.306C131.053 191.306 131.475 190.965 131.56 190.48L132.745 183.762C132.841 183.218 132.478 182.7 131.934 182.604V182.604ZM130.401 43.7634C129.857 43.8594 129.494 44.3784 129.59 44.9224L130.775 51.6394C130.86 52.1244 131.282 52.4664 131.758 52.4664C131.816 52.4664 131.874 52.4614 131.933 52.4514C132.477 52.3544 132.84 51.8364 132.744 51.2924L131.56 44.5744C131.464 44.0314 130.946 43.6684 130.401 43.7634V43.7634ZM154.883 182.604C154.339 182.7 153.976 183.218 154.072 183.762L155.257 190.48C155.342 190.965 155.764 191.306 156.24 191.306C156.298 191.306 156.356 191.301 156.415 191.291C156.959 191.195 157.322 190.676 157.226 190.132L156.042 183.415C155.946 182.871 155.429 182.505 154.883 182.604V182.604ZM177.814 175.12C177.537 174.641 176.925 174.477 176.448 174.754C175.969 175.03 175.806 175.641 176.082 176.12L179.493 182.027C179.678 182.349 180.014 182.527 180.36 182.527C180.529 182.527 180.702 182.484 180.859 182.393C181.337 182.117 181.501 181.506 181.225 181.027L177.814 175.12ZM195.437 159.879C195.015 159.525 194.384 159.578 194.028 160.002C193.673 160.425 193.729 161.056 194.152 161.41L199.378 165.795C199.565 165.952 199.793 166.029 200.02 166.029C200.305 166.029 200.589 165.908 200.787 165.672C201.142 165.249 201.086 164.618 200.663 164.264L195.437 159.879ZM213.195 141.863L206.785 139.53C206.268 139.342 205.693 139.608 205.503 140.128C205.315 140.646 205.582 141.22 206.101 141.409L212.511 143.742C212.624 143.783 212.739 143.802 212.853 143.802C213.261 143.802 213.645 143.55 213.793 143.144C213.982 142.626 213.714 142.051 213.195 141.863V141.863ZM43.1318 150.336C43.1318 150.889 43.5798 151.336 44.1318 151.336H74.4488C76.5708 151.336 78.6058 150.493 80.1058 148.993L100.06 129.039C101.878 127.223 104.835 127.223 106.656 129.042C107.677 130.064 108.166 131.473 107.985 132.94C107.852 134.015 107.297 134.996 106.53 135.763L98.2128 144.078C97.8218 144.469 97.8218 145.102 98.2128 145.492C98.6038 145.883 99.2368 145.883 99.6268 145.492L107.888 137.232C109.055 136.065 109.865 134.547 109.999 132.902C110.165 130.862 109.424 128.919 107.956 127.517C105.305 124.982 101.037 125.234 98.4438 127.828L79.2778 146.993C77.7778 148.493 75.7428 149.336 73.6208 149.336H44.1318C43.5798 149.336 43.1318 149.783 43.1318 150.336V150.336ZM74.6401 170.397H17.8581C17.3061 170.397 16.8581 170.844 16.8581 171.397C16.8581 171.95 17.3061 172.397 17.8581 172.397H74.6401C75.1921 172.397 75.6401 171.95 75.6401 171.397C75.6401 170.844 75.1921 170.397 74.6401 170.397ZM119.326 92.7736L118.705 93.3946C118.314 93.7856 118.314 94.4186 118.705 94.8086C118.9 95.0036 119.156 95.1016 119.412 95.1016C119.668 95.1016 119.924 95.0036 120.119 94.8086L120.74 94.1876C121.131 93.7966 121.131 93.1646 120.74 92.7736C120.349 92.3826 119.717 92.3826 119.326 92.7736V92.7736ZM114.716 97.384L105.811 106.288C105.114 106.986 104.598 107.876 104.49 108.857C104.35 110.117 104.778 111.326 105.657 112.205L111.209 117.757C111.404 117.952 111.66 118.05 111.916 118.05C112.172 118.05 112.428 117.952 112.623 117.757C113.014 117.366 113.014 116.734 112.623 116.343L107.071 110.791C106.679 110.4 106.464 109.878 106.464 109.324C106.464 108.77 106.679 108.248 107.071 107.857L116.13 98.798C116.521 98.407 116.521 97.775 116.13 97.384C115.739 96.993 115.107 96.993 114.716 97.384V97.384ZM184.023 123.954C183.632 123.563 183 123.563 182.609 123.954C182.218 124.345 182.218 124.977 182.609 125.368L183.943 126.703C184.335 127.095 184.551 127.616 184.551 128.17C184.551 128.725 184.335 129.246 183.943 129.638L181.026 132.555C180.636 132.945 180.636 133.578 181.026 133.969C181.222 134.164 181.478 134.262 181.733 134.262C181.989 134.262 182.245 134.164 182.44 133.969L185.357 131.052C186.127 130.282 186.551 129.259 186.551 128.17C186.551 127.081 186.127 126.058 185.357 125.289L184.023 123.954Z" fill="#1F2225"/>
<path fill-rule="evenodd" clip-rule="evenodd" d="M188.385 133.896L160.656 161.625C157.494 164.788 152.368 164.788 149.206 161.625L136.013 148.432C135.232 147.652 135.232 146.385 136.013 145.604L172.364 109.253C173.144 108.472 174.411 108.472 175.192 109.253L188.385 122.447C191.547 125.609 191.547 130.735 188.385 133.896ZM121.48 133.9C119.918 132.337 119.918 129.805 121.48 128.243L144.438 105.285C144.828 104.894 144.828 104.261 144.438 103.871C144.047 103.48 143.414 103.48 143.024 103.871L118.652 128.243C117.871 129.024 116.605 129.024 115.823 128.243L102.63 115.049C99.4688 111.888 99.4688 106.762 102.63 103.6L130.36 75.8707C133.517 72.7147 138.653 72.7147 141.809 75.8707L155.002 89.0637C155.783 89.8447 155.783 91.1117 155.002 91.8917L147.784 99.1097C147.394 99.4997 147.394 100.133 147.784 100.524C147.98 100.719 148.236 100.817 148.491 100.817C148.747 100.817 149.003 100.719 149.198 100.524L155.002 94.7207C156.564 93.1587 159.097 93.1587 160.659 94.7207L169.535 103.597C171.097 105.159 171.097 107.692 169.535 109.253L136.013 142.776C134.451 144.338 131.919 144.338 130.357 142.776L121.48 133.9ZM163.861 91.6607L164.178 91.3427C164.965 90.5577 166.16 90.4387 167.081 90.9667C167.261 91.0707 167.434 91.1897 167.588 91.3427L168.701 92.4577L169.956 93.7107L172.322 96.0767L172.912 96.6667C173.144 96.8997 173.322 97.1707 173.441 97.4657C173.556 97.7497 173.618 98.0567 173.618 98.3727C173.618 99.0167 173.367 99.6227 172.912 100.078L172.293 100.698C171.511 101.479 170.245 101.479 169.464 100.698L163.558 94.7917C162.777 94.0107 162.777 92.7447 163.558 91.9627L163.861 91.6607ZM174.202 101.617L174.204 101.615C174.929 100.889 175.456 99.9617 175.583 98.9437C175.756 97.5557 175.293 96.2197 174.326 95.2527L169.002 89.9287C167.279 88.2067 164.487 88.2067 162.764 89.9287C161.641 91.0527 159.819 91.0527 158.696 89.9287L143.223 74.4567C139.286 70.5207 132.882 70.5207 128.946 74.4567L115.88 87.5227C114.049 89.3537 110.986 88.9887 109.637 86.7787L97.8608 67.4857C97.7178 67.2517 97.4848 67.0867 97.2168 67.0287C96.9478 66.9727 96.6688 67.0257 96.4418 67.1817L86.3308 74.1027C82.8508 76.4847 78.0638 74.6277 77.0998 70.5227L65.3688 20.5337C64.8428 18.2937 67.8958 17.0837 69.0478 19.0767L88.9198 53.4668C89.0578 53.7068 89.2888 53.8778 89.5588 53.9408C89.8288 54.0018 90.1118 53.9507 90.3418 53.7977L103.391 45.0617C105.177 43.8647 107.606 44.8818 108.007 46.9948L112.507 70.7127C112.61 71.2547 113.131 71.6097 113.676 71.5087C114.219 71.4057 114.575 70.8827 114.472 70.3397L108.844 40.6787C108.781 40.3487 108.557 40.0727 108.248 39.9427C107.938 39.8127 107.584 39.8467 107.305 40.0337L97.2188 46.7868C93.3748 49.3598 88.1558 48.1468 85.8418 44.1418L60.6228 0.499748C60.3748 0.0707478 59.8488 -0.112252 59.3888 0.0707478C58.9278 0.253748 58.6698 0.746748 58.7828 1.22875L77.4878 80.9307C77.5638 81.2517 77.7918 81.5157 78.0998 81.6347C78.4078 81.7527 78.7538 81.7127 79.0268 81.5267L94.0938 71.2117C95.5118 70.2417 97.4538 70.6577 98.3498 72.1247L109.19 89.8847C110.153 91.4617 109.91 93.4917 108.605 94.7977L101.45 101.953C99.5938 103.809 98.3788 106.265 98.2688 108.888C98.1488 111.748 99.2068 114.455 101.216 116.463L113.773 129.021C116.507 131.754 116.507 136.187 113.773 138.92L92.0988 160.594C90.5058 162.188 88.3728 163.196 86.1198 163.208C84.6318 163.216 82.9898 162.814 81.5218 161.516C81.1078 161.151 80.4758 161.189 80.1098 161.603C79.7438 162.017 79.7828 162.649 80.1978 163.014C82.1018 164.698 84.1838 165.227 86.0518 165.227C86.5908 165.227 87.0998 165.173 87.5938 165.1L78.4718 174.221C77.7468 174.946 77.2208 175.874 77.0938 176.891C76.9208 178.28 77.3838 179.616 78.3498 180.582L83.5508 185.783C84.2758 186.507 85.2018 187.034 86.2188 187.162C87.6068 187.336 88.9448 186.874 89.9118 185.906L90.6998 185.118C91.0908 184.728 91.0908 184.094 90.7008 183.704H90.6998C90.3098 183.313 89.6768 183.313 89.2858 183.704L88.4978 184.492C88.1918 184.798 87.8208 184.994 87.4308 185.1C86.6218 185.322 85.7228 185.125 85.0878 184.492L84.2528 183.657L82.9988 182.403L80.8028 180.208L79.7638 179.167C79.6908 179.095 79.6328 179.012 79.5698 178.932C79.2438 178.512 79.0578 178.004 79.0578 177.462C79.0578 176.818 79.3088 176.212 79.7638 175.757L118.016 137.506C119.187 136.334 121.087 136.334 122.259 137.506L126.75 141.998C127.922 143.169 127.922 145.069 126.75 146.24L123.001 149.989L121.12 151.87L119.324 153.666C118.933 154.056 118.933 154.689 119.324 155.08C119.715 155.47 120.347 155.47 120.738 155.08L125.336 150.483C128.069 147.749 132.502 147.749 135.235 150.483L147.792 163.04C149.76 165.007 152.345 165.992 154.931 165.992C157.516 165.992 160.101 165.007 162.07 163.04L189.799 135.31C191.809 133.301 192.866 130.594 192.747 127.735C192.637 125.112 191.422 122.655 189.565 120.798L174.202 105.435C173.147 104.381 173.147 102.671 174.202 101.617V101.617Z" fill="#1F2225"/>
<path fill-rule="evenodd" clip-rule="evenodd" d="M160.005 107.185C159.221 107.968 157.854 107.968 157.07 107.185C156.261 106.375 156.261 105.059 157.07 104.249C157.474 103.845 158.006 103.643 158.537 103.643C159.069 103.643 159.6 103.845 160.005 104.249C160.814 105.059 160.814 106.375 160.005 107.185ZM161.419 102.835C159.829 101.248 157.245 101.248 155.656 102.835C154.886 103.605 154.462 104.628 154.462 105.717C154.462 106.806 154.886 107.83 155.656 108.599C156.425 109.369 157.449 109.792 158.537 109.792C159.626 109.792 160.65 109.369 161.419 108.599C163.007 107.01 163.007 104.424 161.419 102.835V102.835ZM133.91 133.281C133.1 134.09 131.784 134.09 130.975 133.281C130.166 132.471 130.166 131.155 130.975 130.345C131.367 129.954 131.888 129.738 132.442 129.738C132.996 129.738 133.518 129.954 133.91 130.345C134.719 131.155 134.719 132.471 133.91 133.281ZM132.442 127.738C131.354 127.738 130.33 128.162 129.561 128.931C128.791 129.701 128.367 130.724 128.367 131.813C128.367 132.902 128.791 133.926 129.561 134.695C130.355 135.489 131.399 135.886 132.442 135.886C133.486 135.886 134.529 135.489 135.324 134.695C136.912 133.106 136.912 130.52 135.324 128.931C134.555 128.162 133.531 127.738 132.442 127.738V127.738ZM118.75 165.235C117.478 166.506 115.407 166.506 114.134 165.235L108.104 159.206C106.832 157.933 106.832 155.862 108.104 154.589C108.741 153.953 109.577 153.635 110.413 153.635C111.248 153.635 112.084 153.954 112.72 154.589L118.75 160.62C120.022 161.892 120.022 163.963 118.75 165.235V165.235ZM112.72 171.264C111.447 172.536 109.376 172.535 108.104 171.264L102.075 165.235C100.803 163.963 100.803 161.892 102.075 160.62C102.711 159.984 103.547 159.666 104.383 159.666C105.218 159.666 106.054 159.984 106.69 160.62L112.72 166.649C113.993 167.922 113.993 169.992 112.72 171.264V171.264ZM106.69 177.295C105.418 178.566 103.348 178.566 102.075 177.295L96.0445 171.264C94.7725 169.992 94.7725 167.922 96.0445 166.649C97.3175 165.377 99.3885 165.378 100.661 166.649L106.69 172.678C107.963 173.951 107.963 176.022 106.69 177.295V177.295ZM100.661 183.324C99.3885 184.594 97.3175 184.595 96.0445 183.324L90.0155 177.295C88.7435 176.022 88.7435 173.951 90.0155 172.678C90.6515 172.043 91.4875 171.724 92.3235 171.724C93.1585 171.724 93.9945 172.043 94.6305 172.678L100.661 178.709C101.934 179.981 101.934 182.051 100.661 183.324V183.324ZM117.682 156.723L114.856 153.898L114.134 153.175C113.803 152.843 113.429 152.586 113.041 152.361C111.873 151.685 110.509 151.491 109.225 151.787C108.296 152.001 107.412 152.454 106.69 153.175C106.66 153.207 106.64 153.244 106.61 153.275C105.434 154.509 104.977 156.172 105.232 157.748C104.555 157.637 103.865 157.662 103.195 157.817C102.267 158.031 101.383 158.484 100.661 159.206C99.9395 159.927 99.4855 160.811 99.2715 161.739C99.1175 162.41 99.0925 163.1 99.2025 163.777C98.5255 163.668 97.8345 163.692 97.1645 163.846C96.2365 164.06 95.3525 164.514 94.6305 165.235C93.9095 165.957 93.4565 166.84 93.2415 167.769C93.0875 168.439 93.0625 169.13 93.1725 169.806C92.4965 169.696 91.8055 169.72 91.1365 169.875C90.2075 170.089 89.3235 170.543 88.6015 171.264C87.8795 171.987 87.4265 172.871 87.2125 173.798C86.9165 175.083 87.1105 176.446 87.7865 177.615C88.0115 178.004 88.2695 178.377 88.6015 178.709L88.9515 179.058L91.3025 181.41L92.1485 182.256L94.6305 184.738C95.6565 185.764 97.0045 186.277 98.3525 186.277C99.7005 186.277 101.049 185.764 102.075 184.738C103.318 183.496 103.796 181.782 103.533 180.167C103.815 180.213 104.098 180.248 104.383 180.248C105.73 180.248 107.079 179.735 108.104 178.709C109.348 177.465 109.826 175.752 109.563 174.136C109.844 174.182 110.128 174.217 110.412 174.217C111.76 174.217 113.108 173.705 114.134 172.678C115.377 171.436 115.855 169.722 115.592 168.107C115.874 168.153 116.157 168.188 116.442 168.188C117.79 168.188 119.138 167.675 120.164 166.649C122.216 164.597 122.216 161.257 120.164 159.206L117.682 156.723ZM74.6401 162.239C74.0881 162.239 73.6401 162.686 73.6401 163.239V164.805C73.6401 165.358 74.0881 165.805 74.6401 165.805C75.1921 165.805 75.6401 165.358 75.6401 164.805V163.239C75.6401 162.686 75.1921 162.239 74.6401 162.239Z" fill="#1F2225"/>
<path fill-rule="evenodd" clip-rule="evenodd" d="M44.3594 70.6917L34.3034 68.4177C33.8084 68.3057 33.3074 68.5837 33.1394 69.0637L30.7064 76.0287C30.2774 77.2547 28.8124 77.7537 27.7244 77.0437L13.4774 67.7357C12.5064 67.1017 13.2124 65.6007 14.3194 65.9427L26.0474 69.5687C26.5474 69.7227 27.0774 69.4687 27.2714 68.9857L29.7404 62.8327C30.1904 61.7117 31.5224 61.2417 32.5754 61.8327L45.0694 68.8437C46.0754 69.4087 45.4844 70.9457 44.3594 70.6917V70.6917ZM58.4784 75.0577C58.6564 74.5947 58.4674 74.0697 58.0344 73.8267L30.5734 58.4167C30.3224 58.2747 30.0224 58.2497 29.7524 58.3457C29.4804 58.4407 29.2634 58.6487 29.1564 58.9157L26.1014 66.5307C25.9074 67.0147 25.3754 67.2677 24.8784 67.1137L1.29541 59.8227C0.81841 59.6757 0.30641 59.9017 0.0944096 60.3537C-0.11759 60.8047 0.0354096 61.3427 0.45341 61.6157L29.8384 80.8147C30.0034 80.9217 30.1934 80.9777 30.3854 80.9777C30.4944 80.9777 30.6034 80.9597 30.7084 80.9237C30.9994 80.8247 31.2284 80.5977 31.3294 80.3077L34.4394 71.4077C34.6064 70.9277 35.1074 70.6497 35.6034 70.7617L57.3244 75.6747C57.8084 75.7847 58.2994 75.5227 58.4784 75.0577" fill="#1F2225"/>
<path fill-rule="evenodd" clip-rule="evenodd" d="M84.2949 100.133C83.7429 100.133 83.2949 100.58 83.2949 101.133C83.2949 101.967 82.6189 102.643 81.7849 102.643C81.2319 102.643 80.7849 103.09 80.7849 103.643C80.7849 104.195 81.2319 104.643 81.7849 104.643C82.6189 104.643 83.2949 105.319 83.2949 106.153C83.2949 106.705 83.7429 107.153 84.2949 107.153C84.8469 107.153 85.2949 106.705 85.2949 106.153C85.2949 105.319 85.9709 104.643 86.8049 104.643C87.3579 104.643 87.8049 104.195 87.8049 103.643C87.8049 103.09 87.3579 102.643 86.8049 102.643C85.9709 102.643 85.2949 101.967 85.2949 101.133C85.2949 100.58 84.8469 100.133 84.2949 100.133ZM29.6426 117.747H29.1326C28.5806 117.747 28.1326 117.3 28.1326 116.747V116.237C28.1326 115.684 27.6846 115.237 27.1326 115.237C26.5796 115.237 26.1326 115.684 26.1326 116.237V116.747C26.1326 117.3 25.6846 117.747 25.1326 117.747H24.6226C24.0706 117.747 23.6226 118.194 23.6226 118.747C23.6226 119.3 24.0706 119.747 24.6226 119.747H25.1326C25.6846 119.747 26.1326 120.195 26.1326 120.747V121.258C26.1326 121.81 26.5796 122.258 27.1326 122.258C27.6846 122.258 28.1326 121.81 28.1326 121.258V120.747C28.1326 120.195 28.5806 119.747 29.1326 119.747H29.6426C30.1946 119.747 30.6426 119.3 30.6426 118.747C30.6426 118.194 30.1946 117.747 29.6426 117.747ZM146.507 32.6335C147.341 32.6335 148.017 33.3095 148.017 34.1435C148.017 34.6965 148.465 35.1435 149.017 35.1435C149.569 35.1435 150.017 34.6965 150.017 34.1435C150.017 33.3095 150.693 32.6335 151.527 32.6335C152.079 32.6335 152.527 32.1855 152.527 31.6335C152.527 31.0815 152.079 30.6335 151.527 30.6335C150.693 30.6335 150.017 29.9575 150.017 29.1235C150.017 28.5715 149.569 28.1235 149.017 28.1235C148.465 28.1235 148.017 28.5715 148.017 29.1235C148.017 29.9575 147.341 30.6335 146.507 30.6335C145.955 30.6335 145.507 31.0815 145.507 31.6335C145.507 32.1855 145.955 32.6335 146.507 32.6335ZM58.8179 88.8303L57.6349 90.0133C57.2439 90.4033 57.2439 91.0363 57.6349 91.4273C57.8299 91.6223 58.0859 91.7203 58.3419 91.7203C58.5979 91.7203 58.8539 91.6223 59.0489 91.4273L60.2319 90.2443C60.6229 89.8533 60.6229 89.2213 60.2319 88.8303C59.8409 88.4393 59.2089 88.4393 58.8179 88.8303ZM51.7187 97.3439C51.9137 97.5389 52.1697 97.6369 52.4257 97.6369C52.6817 97.6369 52.9377 97.5389 53.1327 97.3439L54.3157 96.1599C54.7067 95.7699 54.7067 95.1369 54.3157 94.7459C53.9257 94.3559 53.2917 94.3559 52.9017 94.7459L51.7187 95.9299C51.3277 96.3209 51.3277 96.9529 51.7187 97.3439ZM59.5249 97.6369C59.7809 97.6369 60.0369 97.5389 60.2319 97.3439C60.6229 96.9529 60.6229 96.3209 60.2319 95.9299L59.0489 94.7459C58.6579 94.3559 58.0249 94.3559 57.6349 94.7459C57.2439 95.1369 57.2439 95.7699 57.6349 96.1599L58.8179 97.3439C59.0129 97.5389 59.2689 97.6369 59.5249 97.6369ZM52.9018 91.427C53.0968 91.622 53.3528 91.72 53.6088 91.72C53.8648 91.72 54.1208 91.622 54.3158 91.427C54.7068 91.036 54.7068 90.404 54.3158 90.013L53.1328 88.83C52.7418 88.44 52.1088 88.44 51.7188 88.83C51.3278 89.221 51.3278 89.854 51.7188 90.244L52.9018 91.427ZM40.6714 40.196C41.5044 40.196 42.1814 40.873 42.1814 41.706C42.1814 42.538 41.5044 43.216 40.6714 43.216C39.8384 43.216 39.1614 42.538 39.1614 41.706C39.1614 40.873 39.8384 40.196 40.6714 40.196ZM40.6714 45.216C42.6074 45.216 44.1814 43.641 44.1814 41.706C44.1814 39.771 42.6074 38.196 40.6714 38.196C38.7364 38.196 37.1614 39.771 37.1614 41.706C37.1614 43.641 38.7364 45.216 40.6714 45.216Z" fill="#1F2225"/>
</svg>
