<svg width="376" height="162" viewBox="0 0 376 162" fill="none" xmlns="http://www.w3.org/2000/svg">
<path fill-rule="evenodd" clip-rule="evenodd" d="M115.176 78.9373H144.698C160.261 78.9373 172.993 66.2043 172.993 50.6423C172.993 35.0803 160.261 22.3473 144.698 22.3473H115.176C99.6142 22.3473 86.8812 35.0803 86.8812 50.6423C86.8812 66.2043 99.6142 78.9373 115.176 78.9373Z" fill="#141414" fill-opacity="0.3"/>
<path fill-rule="evenodd" clip-rule="evenodd" d="M372.215 68.1682C372.215 93.4672 351.706 113.976 326.407 113.976H290.311C285.931 113.976 282.381 117.526 282.381 121.906V121.909C282.381 126.289 285.931 129.839 290.311 129.839H337.649C345.585 129.839 352.018 136.272 352.018 144.208C352.018 152.143 345.585 158.576 337.649 158.576H56.0208C37.2148 158.576 21.9708 143.331 21.9708 124.526V124.518C21.9708 105.713 37.2148 90.4682 56.0208 90.4682H149.127C167.932 90.4682 183.176 75.2232 183.176 56.4182V56.4102C183.176 37.6052 198.422 22.3602 217.227 22.3602H326.407C351.706 22.3602 372.215 42.8692 372.215 68.1682" fill="#141414" fill-opacity="0.3"/>
<path fill-rule="evenodd" clip-rule="evenodd" d="M26.4081 150.731C25.6821 152.295 25.6501 154.097 26.3151 155.686L26.5081 155.993C26.5351 156.036 26.5591 156.081 26.5791 156.127C27.2851 157.756 28.6601 158.999 30.3531 159.536C30.9931 159.739 31.6541 159.833 32.3101 159.822C32.3621 152.179 29.0401 149.582 27.7541 148.872C27.2001 149.398 26.7371 150.023 26.4081 150.731" fill="#26282C"/>
<path fill-rule="evenodd" clip-rule="evenodd" d="M118.094 131.222L116.479 128.423C115.98 128.336 115.485 128.227 114.998 128.087C115.003 128.149 115.015 128.208 115.019 128.27L115.365 133.672C116.514 133.527 117.679 133.468 118.851 133.464C118.745 132.683 118.497 131.921 118.094 131.222" fill="#1C1E21"/>
<path fill-rule="evenodd" clip-rule="evenodd" d="M115.632 137.835L115.749 139.654C117.069 138.923 118.084 137.729 118.581 136.285C118.897 135.368 118.979 134.403 118.852 133.464C117.68 133.468 116.515 133.527 115.365 133.672L115.37 133.752C115.405 134.303 114.987 134.779 114.436 134.814L114.57 136.901C115.114 136.87 115.596 137.284 115.632 137.835Z" fill="#26282C"/>
<path fill-rule="evenodd" clip-rule="evenodd" d="M112.447 154.759C111.611 155.651 110.67 156.397 109.662 157.019H117.32C119.466 157.019 121.211 155.274 121.211 153.128C121.211 150.983 119.466 149.237 117.32 149.237H115.573C114.995 151.273 113.947 153.16 112.447 154.759ZM66.2636 135.649C66.5006 135.625 66.7416 135.611 66.9846 135.611H68.4416C71.5896 135.611 74.4636 136.779 76.6776 138.691L77.2216 135.156C77.0946 135.165 76.9686 135.176 76.8396 135.176C73.7796 135.176 71.2936 132.69 71.2936 129.633V126.826C71.2936 123.77 73.7796 121.283 76.8366 121.283C77.3886 121.283 77.8376 121.731 77.8376 122.283C77.8376 122.835 77.3916 123.283 76.8396 123.283C74.8826 123.283 73.2936 124.872 73.2936 126.826V127.47C74.1266 126.424 75.4026 125.744 76.8366 125.744H76.8386C78.7756 125.744 80.4186 126.981 81.0686 128.696C81.1686 128.663 81.2706 128.633 81.3826 128.633V126.719C81.3826 125.22 80.6386 123.896 79.5116 123.067C79.8556 122.171 80.2636 121.31 80.7406 120.493L80.2776 120.193C78.2286 118.864 76.3956 117.291 74.7976 115.523C71.0366 118.065 68.3486 122.101 67.6076 126.915L66.2636 135.649ZM71.2807 157.019H76.3667H85.2347C86.3677 157.019 87.4447 156.52 88.1887 155.651C88.9407 154.773 89.2557 153.657 89.0767 152.507C88.7857 150.643 87.0707 149.237 85.0857 149.237H80.0667C79.5137 149.237 79.0667 148.789 79.0667 148.237C79.0667 142.378 74.3007 137.611 68.4417 137.611H66.9847C64.2567 137.611 62.0377 139.831 62.0377 142.558V147.776C62.0377 152.873 66.1837 157.019 71.2807 157.019V157.019ZM130.562 96.3499C131.372 100.147 131.381 103.981 130.64 107.663L132.09 108.603C132.238 108.307 132.378 108.003 132.501 107.688L132.717 107.135C133.774 104.423 133.712 101.463 132.543 98.7989C132.012 97.5899 131.274 96.5169 130.382 95.5969C130.443 95.8479 130.508 96.0969 130.562 96.3499ZM105.087 74.0979C105.027 73.7689 105.041 73.5219 105.072 73.3679C105.091 73.2709 105.131 73.1809 105.177 73.0939C102.098 71.8259 98.8173 71.1609 95.4813 71.1609C94.7643 71.1609 94.0453 71.1999 93.3253 71.2599C93.3643 71.2989 93.4083 71.3309 93.4473 71.3699L96.3143 74.1989C99.1953 73.6889 102.161 73.6479 105.087 74.0979V74.0979ZM80.8534 118.165C74.1914 110.553 72.3264 99.6203 76.2804 90.1713C76.0904 90.3403 75.8574 90.4343 75.6194 90.4343C75.3654 90.4343 75.1114 90.3383 74.9164 90.1463C73.6614 88.9073 72.7154 87.4713 72.0774 85.9363C69.6934 90.9913 69.0264 96.6743 70.2194 102.268C71.6154 108.813 75.3854 114.432 80.8534 118.165" fill="#1C1E21"/>
<path fill-rule="evenodd" clip-rule="evenodd" d="M94.5238 93.9392C94.8798 93.3902 95.6198 93.2322 96.1688 93.5882C96.7178 93.9442 96.8758 94.6842 96.5198 95.2332C96.1638 95.7822 95.4238 95.9392 94.8748 95.5842C94.3258 95.2282 94.1678 94.4882 94.5238 93.9392ZM97.5178 95.8802C97.8738 95.3312 98.6138 95.1732 99.1628 95.5292C99.7108 95.8852 99.8688 96.6262 99.5128 97.1742C99.1568 97.7232 98.4168 97.8812 97.8678 97.5252C97.3188 97.1692 97.1618 96.4292 97.5178 95.8802ZM92.6448 96.4892C92.8708 97.5502 93.4918 98.4572 94.3938 99.0422L94.9078 99.3752C95.8098 99.9592 96.8898 100.156 97.9508 99.9312C99.0118 99.7052 99.9188 99.0832 100.503 98.1812L100.837 97.6672C101.421 96.7662 101.619 95.6852 101.393 94.6242C101.167 93.5632 100.545 92.6572 99.6438 92.0722L99.1288 91.7382C98.4508 91.2982 97.6888 91.0882 96.9358 91.0882C95.6088 91.0882 94.3078 91.7392 93.5338 92.9322L93.2008 93.4452C92.6158 94.3482 92.4188 95.4292 92.6448 96.4892V96.4892ZM125.325 78.532L129.168 72.08L124.829 73.84C124.389 74.017 123.904 73.981 123.496 73.738C123.088 73.495 122.824 73.086 122.771 72.615L122.069 66.315L116.196 68.697C115.756 68.874 115.27 68.838 114.862 68.595C114.454 68.352 114.19 67.943 114.137 67.471L113.618 62.817L107.075 73.801C107.227 74.349 108.166 76.427 113.959 79.878C119.751 83.327 122.058 83.184 122.63 83.056L123.54 81.528C123.822 81.053 124.436 80.898 124.911 81.18L125.672 79.903C125.198 79.62 125.042 79.007 125.325 78.532V78.532ZM76.8363 133.176C78.7933 133.176 80.3823 131.587 80.3823 129.633C80.3823 129.192 80.6723 128.829 81.0683 128.697C80.4193 126.981 78.7753 125.744 76.8383 125.744H76.8363C75.4023 125.744 74.1263 126.424 73.2933 127.47V129.633C73.2933 131.587 74.8823 133.176 76.8363 133.176" fill="#26282C"/>
<path fill-rule="evenodd" clip-rule="evenodd" d="M274.709 18.0862C274.648 18.0252 274.569 17.9962 274.49 17.9962C274.41 17.9962 274.331 18.0252 274.271 18.0862L270.229 22.1282C270.108 22.2492 270.108 22.4452 270.229 22.5662L274.271 26.6082C274.392 26.7292 274.588 26.7292 274.709 26.6082L278.751 22.5662C278.826 22.4912 278.842 22.4052 278.842 22.3472C278.842 22.2892 278.826 22.2032 278.751 22.1282L274.709 18.0862ZM298.495 18.0862C298.416 18.0072 298.324 17.9952 298.276 17.9952C298.217 17.9952 298.132 18.0112 298.057 18.0862L294.015 22.1282C293.939 22.2032 293.924 22.2892 293.924 22.3472C293.924 22.4052 293.939 22.4912 294.014 22.5652L298.057 26.6082C298.193 26.7442 298.319 26.7842 298.495 26.6082L302.537 22.5662C302.612 22.4912 302.627 22.4052 302.627 22.3472C302.627 22.2892 302.612 22.2032 302.537 22.1282L298.495 18.0862ZM250.485 26.6082C250.621 26.7442 250.748 26.7842 250.923 26.6082L254.965 22.5662C255.04 22.4912 255.056 22.4052 255.056 22.3472C255.056 22.2892 255.04 22.2032 254.965 22.1292L250.923 18.0862C250.844 18.0072 250.752 17.9952 250.704 17.9952C250.646 17.9952 250.56 18.0112 250.485 18.0862L246.443 22.1282C246.368 22.2032 246.352 22.2892 246.352 22.3472C246.352 22.4052 246.368 22.4912 246.443 22.5662L250.485 26.6082ZM308.48 98.7761H310.034H312.634C322.008 98.7761 329.634 91.1501 329.634 81.7761V80.4431H320.634V81.7761C320.634 89.6291 315.529 96.3331 308.48 98.7761ZM319.602 46.0427H328.543C326.128 39.5907 319.919 34.9767 312.634 34.9767H308.48C313.662 36.7727 317.78 40.8727 319.602 46.0427" fill="#1C1E21"/>
<path fill-rule="evenodd" clip-rule="evenodd" d="M270.686 98.7761L271.458 96.8631C271.754 96.1301 272.308 95.5551 273.016 95.2151C272.846 94.9131 272.688 94.6031 272.551 94.2791C271.577 91.9871 271.554 89.4541 272.487 87.1441C273.147 85.5091 274.249 84.1021 275.674 83.0751C276.122 82.7531 276.748 82.8541 277.069 83.3021C277.082 83.3191 277.083 83.3411 277.095 83.3591C277.884 82.9221 278.742 82.6191 279.632 82.4551C279.629 82.4321 279.616 82.4131 279.615 82.3891C279.58 81.8381 279.999 81.3621 280.55 81.3281C281.783 81.2541 282.989 81.4301 284.152 81.8301C284.16 81.4101 284.236 80.9901 284.398 80.5891C284.408 80.5641 284.419 80.5401 284.431 80.5161L284.432 80.5141C284.747 79.7251 285.41 79.0491 286.266 78.6861C286.871 78.4291 287.521 78.3591 288.156 78.4581C288.49 77.6441 289.064 76.9751 289.778 76.5731C290.561 76.1341 291.45 76.0601 292.216 76.3701L292.518 76.4921C293.286 76.8011 293.874 77.4721 294.131 78.3311C294.366 79.1151 294.314 79.9951 293.99 80.8131C295.28 81.7231 295.832 83.4291 295.216 84.9541C295.054 85.3551 294.818 85.7111 294.532 86.0181C298.987 88.0971 301.098 93.3331 299.237 97.9441C299.119 98.2361 298.967 98.5031 298.824 98.7761H305.543H308.48C315.529 96.3331 320.634 89.6291 320.634 81.7761V80.4431H315.985C315.433 80.4431 314.985 79.9951 314.985 79.4431C314.985 78.8901 315.433 78.4431 315.985 78.4431H330.585C334.997 78.4431 338.585 74.8541 338.585 70.4431V56.0431C338.585 51.6311 334.997 48.0431 330.585 48.0431H315.985C315.433 48.0431 314.985 47.5951 314.985 47.0431C314.985 46.4901 315.433 46.0431 315.985 46.0431H319.602C317.78 40.8721 313.663 36.7731 308.481 34.9761H247.943C238.704 34.9761 231.178 42.3881 230.963 51.5761H247.894C248.447 51.5761 248.894 52.0241 248.894 52.5761H258.449C258.449 52.0241 258.896 51.5761 259.449 51.5761H270.249C274.77 51.5761 278.449 55.2551 278.449 59.7761V67.5761C278.449 78.0521 269.926 86.5761 259.449 86.5761H240.249C236.951 86.5761 233.849 85.7291 231.143 84.2451C232.345 92.4501 239.409 98.7761 247.943 98.7761H263.743H270.686Z" fill="#26282C"/>
<path fill-rule="evenodd" clip-rule="evenodd" d="M269.048 59.7761V67.5761C269.048 75.4291 263.944 82.1321 256.895 84.5761H259.448C268.822 84.5761 276.448 76.9501 276.448 67.5761V59.7761C276.448 56.3571 273.667 53.5761 270.248 53.5761H265.482C267.609 54.8311 269.048 57.1411 269.048 59.7761" fill="#26282C"/>
<path fill-rule="evenodd" clip-rule="evenodd" d="M326.584 74.4426C329.346 74.4426 331.584 72.2036 331.584 69.4426V57.0426C331.584 54.2806 329.346 52.0426 326.584 52.0426H319.984C318.88 52.0426 317.984 52.9386 317.984 54.0426V72.4426C317.984 73.5466 318.88 74.4426 319.984 74.4426H326.584Z" fill="#1C1E21"/>
<path fill-rule="evenodd" clip-rule="evenodd" d="M255.956 74.3894C255.956 76.0054 254.634 77.3274 253.018 77.3274H247.14C245.523 77.3274 244.201 76.0054 244.201 74.3894C244.201 72.7734 245.523 71.4504 247.14 71.4504H253.018C254.634 71.4504 255.956 72.7734 255.956 74.3894V74.3894ZM230.128 74.3894C230.128 72.7734 231.451 71.4504 233.067 71.4504H236.593C238.21 71.4504 239.532 72.7734 239.532 74.3894C239.532 76.0054 238.21 77.3274 236.593 77.3274H233.067C231.451 77.3274 230.128 76.0054 230.128 74.3894ZM247.894 53.5764H229.449C226.03 53.5764 223.249 56.3574 223.249 59.7764V67.5764C223.249 76.9504 230.875 84.5764 240.249 84.5764H256.895C263.944 82.1324 269.049 75.4294 269.049 67.5764V59.7764C269.049 57.1404 267.61 54.8304 265.483 53.5764H259.449C258.896 53.5764 258.449 53.1284 258.449 52.5764H248.894C248.894 53.1284 248.447 53.5764 247.894 53.5764" fill="#2F3237"/>
<path fill-rule="evenodd" clip-rule="evenodd" d="M247.139 71.4504C245.523 71.4504 244.201 72.7734 244.201 74.3894C244.201 76.0054 245.523 77.3274 247.139 77.3274H253.017C254.633 77.3274 255.955 76.0054 255.955 74.3894C255.955 72.7734 254.633 71.4504 253.017 71.4504H247.139ZM233.066 77.3279H236.592C238.209 77.3279 239.531 76.0059 239.531 74.3899C239.531 72.7729 238.209 71.4509 236.592 71.4509H233.066C231.45 71.4509 230.128 72.7729 230.128 74.3899C230.128 76.0059 231.45 77.3279 233.066 77.3279V77.3279ZM232.742 140.576V131.218C229.6 133.157 227.494 136.62 227.494 140.576V145.376C227.494 147.251 225.969 148.776 224.095 148.776H213.294C210.868 148.776 208.894 150.75 208.894 153.176C208.894 155.602 210.868 157.576 213.294 157.576H243.307C237.056 154.462 232.742 148.021 232.742 140.576V140.576ZM237.115 113.976H227.094C224.668 113.976 222.694 115.95 222.694 118.376C222.694 120.802 224.668 122.776 227.094 122.776H233.55C234.268 119.686 235.468 116.729 237.115 113.976" fill="#1C1E21"/>
<path fill-rule="evenodd" clip-rule="evenodd" d="M254.681 152.897C254.872 152.423 255.119 151.989 255.404 151.59L255.167 151.494C254.388 151.18 253.777 150.58 253.449 149.806C253.12 149.032 253.112 148.176 253.427 147.397L253.627 146.9C253.943 146.119 254.542 145.509 255.316 145.18C256.09 144.852 256.945 144.844 257.725 145.159L259.785 145.99L268.108 125.375C266.251 125.367 264.49 124.551 263.274 123.13C262.056 121.707 261.523 119.826 261.812 117.967C262.292 114.894 265.079 112.576 268.298 112.576H273.276L276.493 104.606L272.394 102.952C271.684 102.665 271.126 102.134 270.782 101.458L270.668 101.412L270.706 101.319C270.697 101.3 270.684 101.283 270.676 101.264C270.608 101.105 270.563 100.94 270.522 100.776H263.743C254.579 100.776 245.841 105.221 240.368 112.665C236.688 117.67 234.743 123.587 234.743 129.776V140.576C234.743 149.95 242.368 157.576 251.743 157.576H254.652C254.066 156.062 254.07 154.41 254.681 152.897V152.897ZM285.734 111.163C285.735 110.234 285.847 109.332 286.042 108.462L284.322 107.767L282.381 112.576H282.846H284.334C285.105 112.576 285.733 111.942 285.734 111.163V111.163ZM274.103 130.407C274.616 130.614 274.863 131.197 274.656 131.709L268.573 146.776H281.749C282.52 146.776 283.148 146.148 283.148 145.376V140.575C283.148 133.407 288.98 127.575 296.148 127.575H298.442C299.048 127.575 299.542 127.082 299.542 126.475C299.542 125.869 299.048 125.376 298.442 125.376H282.845H276.134L274.103 130.407ZM338.824 125.886L335.131 138.549V138.55C335.011 138.96 335.232 139.238 335.333 139.339C335.434 139.44 335.714 139.662 336.122 139.541L348.786 135.847C351.979 134.916 354.295 132.062 354.547 128.745C354.725 126.406 353.876 124.113 352.218 122.454C350.704 120.941 348.662 120.101 346.539 120.101C346.336 120.101 346.132 120.109 345.927 120.125C342.61 120.377 339.756 122.692 338.824 125.886Z" fill="#26282C"/>
<path fill-rule="evenodd" clip-rule="evenodd" d="M311.949 157.576C312.671 157.576 313.374 157.42 314.039 157.113C314.095 157.087 314.152 157.067 314.211 157.052C321.761 155.125 327.033 148.35 327.033 140.576V117.776C327.033 108.402 319.407 100.776 310.033 100.776H305.542H298.134C297.877 100.776 297.625 100.796 297.373 100.815C296.235 102.024 294.816 102.915 293.251 103.383C293.525 104.12 293.525 104.919 293.229 105.653L292.425 107.644C291.93 108.869 290.747 109.614 289.502 109.614C289.11 109.614 288.712 109.54 288.327 109.385L287.925 109.222C287.804 109.852 287.734 110.501 287.734 111.165C287.732 113.046 286.206 114.576 284.333 114.576H282.845H268.297C266.055 114.576 264.117 116.166 263.788 118.275C263.586 119.575 263.942 120.837 264.792 121.829C265.634 122.812 266.852 123.376 268.134 123.376H282.845H298.442C300.152 123.376 301.542 124.767 301.542 126.476C301.542 128.185 300.152 129.576 298.442 129.576H296.149C290.083 129.576 285.149 134.511 285.149 140.576V145.376C285.149 147.251 283.623 148.776 281.749 148.776H267.766L267.615 149.152L269.675 149.983C271.284 150.633 272.065 152.472 271.415 154.081L271.215 154.578C270.72 155.803 269.537 156.548 268.291 156.548C267.899 156.548 267.502 156.474 267.117 156.319H267.116L266.881 156.224C266.813 156.674 266.699 157.119 266.532 157.554C266.605 157.558 266.675 157.576 266.749 157.576H305.542H311.949ZM291.769 78.3464L291.466 78.2244C291.192 78.1154 290.904 78.2344 290.757 78.3164C290.467 78.4794 290.219 78.7694 290.054 79.1164L292.156 79.9654C292.278 79.6014 292.31 79.2224 292.214 78.9054C292.166 78.7444 292.044 78.4574 291.769 78.3464Z" fill="#1C1E21"/>
<path fill-rule="evenodd" clip-rule="evenodd" d="M276.842 84.6975C275.724 85.5035 274.859 86.6085 274.341 87.8935C273.608 89.7075 273.626 91.6975 274.391 93.4975C274.628 94.0575 274.936 94.5725 275.293 95.0455C275.38 95.0725 275.469 95.0885 275.555 95.1225L279.606 96.7585L284.687 84.1735L283.872 83.8445C282.846 83.4305 281.773 83.2555 280.675 83.3235C280.149 83.3595 279.7 82.9715 279.632 82.4555C278.741 82.6195 277.884 82.9225 277.094 83.3595C277.373 83.8015 277.272 84.3875 276.842 84.6975V84.6975ZM297.382 97.1956C298.893 93.4516 297.077 89.1756 293.333 87.6636L292.517 87.3346L290.305 92.8156C290.294 92.9006 290.29 92.9876 290.257 93.0686L287.483 99.9386L291.488 101.556C291.572 101.59 291.645 101.639 291.725 101.679C294.182 101.29 296.385 99.6656 297.382 97.1956" fill="#131416"/>
<path fill-rule="evenodd" clip-rule="evenodd" d="M270.264 125.376L261.639 146.739L265.76 148.402L272.802 130.96C273.009 130.449 273.588 130.2 274.103 130.407L276.135 125.376H270.264Z" fill="#1C1E21"/>
<path fill-rule="evenodd" clip-rule="evenodd" d="M280.224 112.576L282.467 107.019L278.348 105.355L275.432 112.576H280.224Z" fill="#1C1E21"/>
<path fill-rule="evenodd" clip-rule="evenodd" d="M264.639 156.917C264.832 156.439 264.922 155.94 264.941 155.44L257.34 152.372C257.01 152.739 256.731 153.162 256.535 153.646C256.098 154.728 256.109 155.916 256.565 156.99C257.022 158.064 257.869 158.896 258.952 159.334C261.185 160.235 263.737 159.151 264.639 156.917" fill="#131416"/>
<path fill-rule="evenodd" clip-rule="evenodd" d="M285.582 99.171L290.563 86.831L286.443 85.168L281.461 97.507L285.582 99.171Z" fill="#1C1E21"/>
<path fill-rule="evenodd" clip-rule="evenodd" d="M270.781 101.458C270.757 101.411 270.727 101.368 270.705 101.319L270.668 101.412L270.781 101.458ZM185.176 139.576C187.933 139.576 190.176 137.333 190.176 134.576V124.576H176.176V134.576C176.176 137.333 178.419 139.576 181.176 139.576H185.176ZM159.543 139.576C162.3 139.576 164.543 137.333 164.543 134.576V129.576H153.543V134.576C153.543 137.333 155.786 139.576 158.543 139.576H159.543Z" fill="#26282C"/>
<path fill-rule="evenodd" clip-rule="evenodd" d="M148.696 157.576H152.696V150.576H148.696V157.576Z" fill="#1C1E21"/>
<path fill-rule="evenodd" clip-rule="evenodd" d="M190.692 157.576H194.692V150.576H190.692V157.576Z" fill="#1C1E21"/>
<path fill-rule="evenodd" clip-rule="evenodd" d="M56.3026 157.387V155.95C56.3026 155.381 55.8406 154.918 55.2716 154.918H54.0796C53.5916 154.918 53.1746 154.566 53.0936 154.085C52.8936 152.901 51.8406 152.008 50.6446 152.008H48.5006C47.1296 152.008 46.0136 153.124 46.0136 154.495V157.387C46.0136 157.49 46.1006 157.576 46.2026 157.576H50.6136H56.1136C56.2146 157.576 56.3026 157.488 56.3026 157.387V157.387ZM17.3564 157.387V157.116C17.3564 155.92 16.3834 154.947 15.1874 154.947C13.9864 154.947 13.0134 155.92 13.0134 157.116V157.387C13.0134 157.488 13.1024 157.576 13.2024 157.576H17.1674C17.2694 157.576 17.3564 157.49 17.3564 157.387Z" fill="#26282C"/>
<path fill-rule="evenodd" clip-rule="evenodd" d="M6.69031 157.576H1.00031C0.447305 157.576 0.000305176 158.024 0.000305176 158.576C0.000305176 159.128 0.447305 159.576 1.00031 159.576H6.69031C7.24231 159.576 7.69031 159.128 7.69031 158.576C7.69031 158.024 7.24231 157.576 6.69031 157.576ZM314.211 157.052C314.151 157.067 314.094 157.087 314.039 157.113C313.374 157.42 312.67 157.576 311.949 157.576H305.542H266.749C266.674 157.576 266.605 157.558 266.532 157.554C266.698 157.119 266.813 156.674 266.881 156.224L267.116 156.319H267.117C267.502 156.474 267.899 156.548 268.291 156.548C269.537 156.548 270.719 155.803 271.214 154.578L271.415 154.081C272.065 152.471 271.284 150.633 269.674 149.983L267.614 149.152L267.766 148.776H281.749C283.623 148.776 285.149 147.251 285.149 145.376V140.576C285.149 134.51 290.083 129.576 296.149 129.576H298.442C300.151 129.576 301.542 128.185 301.542 126.476C301.542 124.767 300.151 123.376 298.442 123.376H282.845H268.133C266.852 123.376 265.634 122.812 264.792 121.829C263.942 120.837 263.586 119.574 263.788 118.275C264.117 116.166 266.055 114.576 268.297 114.576H282.845H284.333C286.206 114.576 287.732 113.046 287.733 111.165C287.734 110.501 287.804 109.852 287.924 109.222L288.327 109.385C288.712 109.54 289.109 109.614 289.502 109.614C290.747 109.614 291.93 108.869 292.424 107.644L293.229 105.653C293.525 104.919 293.524 104.12 293.251 103.383C294.816 102.915 296.235 102.024 297.373 100.815C297.625 100.796 297.877 100.776 298.133 100.776H305.542H310.033C319.407 100.776 327.033 108.402 327.033 117.776V140.576C327.033 148.35 321.76 155.125 314.211 157.052ZM255.915 149.64C255.631 149.525 255.408 149.306 255.289 149.024C255.169 148.742 255.166 148.43 255.281 148.145L255.482 147.648C255.718 147.061 256.388 146.776 256.976 147.013L268.925 151.838C269.512 152.075 269.797 152.745 269.56 153.333L269.359 153.83C269.123 154.416 268.454 154.701 267.865 154.465L255.915 149.64ZM263.374 158.573C262.086 159.594 260.315 159.942 258.812 159.275C257.795 158.824 257.001 158.018 256.565 156.99C256.108 155.916 256.098 154.728 256.535 153.646L256.541 153.631C256.853 152.866 257.773 152.547 258.54 152.856L263.737 154.955C264.532 155.276 264.948 156.186 264.614 156.975C264.37 157.552 263.975 158.096 263.374 158.573V158.573ZM274.104 130.407H274.103C273.588 130.2 273.008 130.449 272.802 130.96L266.591 146.343C266.132 147.48 264.837 148.031 263.7 147.571C262.562 147.112 262.012 145.817 262.471 144.679L269.139 128.163C269.818 126.479 271.453 125.376 273.27 125.376H276.134H282.845H298.442C299.048 125.376 299.542 125.869 299.542 126.476C299.542 127.082 299.048 127.576 298.442 127.576H296.149C288.969 127.576 283.149 133.396 283.149 140.576V145.376C283.149 146.149 282.522 146.776 281.749 146.776H271.057C269.869 146.776 269.058 145.574 269.503 144.473L274.656 131.709C274.863 131.197 274.616 130.614 274.104 130.407V130.407ZM254.68 152.897C254.069 154.41 254.065 156.062 254.651 157.576H251.742C242.353 157.576 234.742 149.965 234.742 140.576V129.776C234.742 123.587 236.687 117.67 240.367 112.665C245.84 105.221 254.579 100.776 263.742 100.776H270.522C270.562 100.941 270.607 101.105 270.675 101.264C270.683 101.283 270.696 101.3 270.705 101.32C270.726 101.366 270.754 101.408 270.778 101.453C271.103 102.079 271.57 102.619 272.225 102.884L274.772 103.912C275.722 104.296 276.181 105.377 275.798 106.326L273.275 112.576H268.297C265.079 112.576 262.291 114.894 261.812 117.968C261.522 119.826 262.055 121.707 263.273 123.13C264.489 124.551 266.251 125.367 268.107 125.375L259.785 145.99L257.831 145.202C257.213 144.952 256.528 144.852 255.878 144.999C254.834 145.236 254.015 145.939 253.627 146.9L253.47 147.288C253.221 147.907 253.119 148.592 253.267 149.243C253.503 150.288 254.207 151.107 255.167 151.494L255.403 151.59C255.119 151.99 254.872 152.423 254.68 152.897V152.897ZM239.795 157.576H213.294C210.723 157.576 208.66 155.36 208.916 152.737C209.138 150.451 211.193 148.776 213.489 148.776H224.094C225.972 148.776 227.494 147.254 227.494 145.376V140.576C227.494 137.372 228.876 134.49 231.07 132.481C231.708 131.897 232.742 132.366 232.742 133.23V140.576C232.742 146.801 235.757 152.323 240.399 155.786C241.166 156.358 240.752 157.576 239.795 157.576V157.576ZM232.773 122.776H227.094C224.523 122.776 222.46 120.56 222.715 117.937C222.938 115.651 224.993 113.976 227.289 113.976H235.411C236.159 113.976 236.646 114.769 236.296 115.43C235.187 117.531 234.328 119.738 233.735 122.022C233.62 122.464 233.23 122.776 232.773 122.776ZM287.714 99.358L292.283 87.92C292.412 87.597 292.779 87.441 293.101 87.571C296.599 88.983 298.668 92.781 297.648 96.413C296.831 99.322 294.433 101.249 291.724 101.679C291.645 101.639 291.571 101.589 291.488 101.555L288.063 100.173C287.742 100.043 287.586 99.678 287.714 99.358V99.358ZM288.503 86C289.641 86.459 290.19 87.754 289.731 88.892L285.582 99.171L281.461 97.507L285.61 87.228C286.07 86.091 287.365 85.54 288.503 86ZM290.054 79.116C290.219 78.769 290.467 78.48 290.757 78.317C290.904 78.234 291.192 78.115 291.466 78.224L291.769 78.346C292.044 78.458 292.166 78.744 292.214 78.905C292.31 79.222 292.278 79.602 292.156 79.965L290.054 79.116ZM292.542 82.278C293.299 82.583 293.667 83.448 293.36 84.207C293.212 84.574 292.93 84.861 292.566 85.015C292.203 85.17 291.8 85.174 291.433 85.026L287.07 83.265C286.704 83.117 286.417 82.835 286.262 82.471C286.107 82.107 286.104 81.704 286.252 81.337L286.253 81.335C286.401 80.969 286.683 80.682 287.047 80.527C287.233 80.448 287.429 80.408 287.626 80.408C287.814 80.408 288.001 80.445 288.18 80.517L292.542 82.278ZM273.142 101.097C272.858 100.983 272.636 100.764 272.516 100.482C272.396 100.2 272.393 99.888 272.508 99.604L273.312 97.612C273.427 97.327 273.646 97.105 273.928 96.985C274.072 96.924 274.224 96.893 274.376 96.893C274.521 96.893 274.667 96.921 274.806 96.977L290.739 103.41C291.024 103.525 291.246 103.743 291.366 104.026C291.486 104.308 291.489 104.619 291.374 104.904L290.57 106.895C290.333 107.482 289.662 107.766 289.076 107.53L273.142 101.097ZM279.057 112.576H277.993C276.768 112.576 275.932 111.337 276.391 110.2L277.515 107.416C277.974 106.278 279.269 105.728 280.407 106.187C281.544 106.646 282.095 107.941 281.635 109.079L280.66 111.494C280.396 112.148 279.762 112.576 279.057 112.576V112.576ZM286.042 108.462C285.847 109.329 285.735 110.227 285.733 111.152C285.732 111.934 285.115 112.576 284.333 112.576H282.845H282.38L283.627 109.488C284.011 108.538 285.092 108.078 286.042 108.462V108.462ZM247.942 98.776C240.952 98.776 234.947 94.531 232.343 88.486C231.661 86.902 233.135 85.277 234.787 85.774C236.517 86.295 238.35 86.576 240.248 86.576H259.448C269.941 86.576 278.448 78.07 278.448 67.576V59.776C278.448 55.247 274.777 51.576 270.248 51.576H259.448C258.896 51.576 258.448 52.024 258.448 52.576C258.448 53.128 258.896 53.576 259.448 53.576H265.482H270.248C273.672 53.576 276.448 56.352 276.448 59.776V67.576C276.448 76.965 268.837 84.576 259.448 84.576H256.895H240.248C230.859 84.576 223.248 76.965 223.248 67.576V59.776C223.248 56.352 226.024 53.576 229.448 53.576H247.894C248.446 53.576 248.893 53.128 248.894 52.576C248.894 52.024 248.446 51.576 247.894 51.576H233.156C231.919 51.576 230.979 50.465 231.177 49.244C232.487 41.166 239.499 34.976 247.942 34.976H308.481H312.633C318.695 34.976 324.013 38.171 327.019 42.962C327.859 44.3 326.908 46.043 325.328 46.043H319.601H315.984C315.432 46.043 314.984 46.49 314.984 47.043C314.984 47.595 315.432 48.043 315.984 48.043H330.585C335.003 48.043 338.585 51.624 338.585 56.043V70.443C338.585 74.861 335.003 78.443 330.585 78.443H315.984C315.432 78.443 314.984 78.89 314.984 79.443C314.984 79.995 315.432 80.443 315.984 80.443H320.633C326.603 81.327 329.371 88.51 325.374 93.031C322.259 96.554 317.706 98.776 312.633 98.776H310.033H308.48H305.542H298.823C298.966 98.503 299.118 98.237 299.236 97.945C301.097 93.333 298.986 88.097 294.531 86.018C294.817 85.711 295.053 85.355 295.215 84.954C295.831 83.429 295.279 81.723 293.989 80.813C294.314 79.995 294.365 79.115 294.13 78.331C293.873 77.472 293.285 76.802 292.517 76.492L292.215 76.37C291.449 76.06 290.56 76.135 289.777 76.573C289.064 76.975 288.489 77.644 288.155 78.458C287.521 78.359 286.87 78.429 286.265 78.686C285.409 79.05 284.746 79.725 284.431 80.514L284.43 80.516C284.419 80.54 284.407 80.564 284.398 80.589C284.235 80.99 284.159 81.41 284.151 81.83C282.988 81.43 281.782 81.254 280.549 81.328C279.998 81.363 279.579 81.838 279.614 82.389C279.615 82.413 279.628 82.432 279.631 82.455C279.701 82.976 280.158 83.367 280.69 83.323C281.444 83.26 283.103 83.702 284.028 83.973C284.384 84.077 284.569 84.466 284.43 84.81L279.841 96.177C279.711 96.498 279.346 96.653 279.024 96.524L275.555 95.123C275.469 95.088 275.38 95.073 275.293 95.046C274.936 94.572 274.628 94.057 274.391 93.498C273.423 91.22 273.65 88.639 275.081 86.496C275.574 85.756 276.304 85.224 276.948 84.609C277.287 84.285 277.348 83.763 277.094 83.36C277.083 83.341 277.081 83.32 277.068 83.302C276.747 82.854 276.121 82.753 275.673 83.075C274.248 84.102 273.146 85.509 272.486 87.144C271.553 89.454 271.576 91.988 272.55 94.28C272.687 94.603 272.845 94.913 273.015 95.215C272.307 95.555 271.753 96.13 271.458 96.863L270.685 98.776H263.742H247.942ZM246.442 22.566C246.367 22.491 246.352 22.406 246.352 22.347C246.352 22.289 246.367 22.203 246.442 22.128L250.485 18.086C250.56 18.011 250.645 17.995 250.704 17.995C250.752 17.995 250.844 18.007 250.923 18.086L254.965 22.129C255.04 22.203 255.055 22.289 255.055 22.347C255.055 22.406 255.04 22.491 254.964 22.566L250.923 26.608C250.747 26.784 250.621 26.744 250.485 26.609C250.485 26.608 250.484 26.608 250.484 26.608L246.442 22.566ZM189.692 148.576H153.695H147.695C146.039 148.576 144.695 147.233 144.695 145.576V144.576C144.695 142.919 146.039 141.576 147.695 141.576H158.543H159.543H181.176H185.176H195.692C197.349 141.576 198.692 142.919 198.692 144.576V145.576C198.692 147.233 197.349 148.576 195.692 148.576H189.692ZM193.692 157.576H191.692C191.14 157.576 190.692 157.128 190.692 156.576V152.576C190.692 151.471 191.587 150.576 192.692 150.576C193.797 150.576 194.692 151.471 194.692 152.576V156.576C194.692 157.128 194.245 157.576 193.692 157.576ZM187.692 157.576H155.695C155.143 157.576 154.695 157.128 154.695 156.576V152.576C154.695 151.471 155.591 150.576 156.695 150.576H186.692C187.797 150.576 188.692 151.471 188.692 152.576V156.576C188.692 157.128 188.245 157.576 187.692 157.576V157.576ZM151.695 157.576H149.695C149.143 157.576 148.695 157.128 148.695 156.576V152.576C148.695 151.471 149.591 150.576 150.695 150.576C151.8 150.576 152.695 151.471 152.695 152.576V156.576C152.695 157.128 152.248 157.576 151.695 157.576ZM153.543 134.576V133.576C153.543 131.367 155.334 129.576 157.543 129.576H160.543C162.752 129.576 164.543 131.367 164.543 133.576V134.576C164.543 137.337 162.304 139.576 159.543 139.576H158.543C155.782 139.576 153.543 137.337 153.543 134.576ZM176.176 134.576V127.576C176.176 125.919 177.519 124.576 179.176 124.576H187.176C188.833 124.576 190.176 125.919 190.176 127.576V134.576C190.176 137.337 187.938 139.576 185.176 139.576H181.176C178.415 139.576 176.176 137.337 176.176 134.576ZM117.32 157.019H109.662C110.669 156.397 111.61 155.651 112.447 154.759C113.947 153.16 114.995 151.273 115.573 149.237H117.32C119.465 149.237 121.211 150.983 121.211 153.128C121.211 155.274 119.465 157.019 117.32 157.019ZM93.8523 157.019H89.6443C89.6643 156.996 89.6873 156.976 89.7083 156.952C90.8293 155.643 91.3193 153.911 91.0533 152.2C90.6113 149.37 88.0463 147.237 85.0863 147.237H81.0273C80.7583 143.828 79.1223 140.804 76.6773 138.692C74.4633 136.779 71.5893 135.612 68.4413 135.612H66.9843C66.7413 135.612 66.5013 135.625 66.2633 135.649L67.6073 126.915C68.2483 122.751 70.3463 119.169 73.3353 116.633C74.1073 115.977 75.2613 116.051 75.9863 116.759C77.2863 118.031 78.7193 119.183 80.2773 120.193L80.7403 120.493L88.3413 125.423C92.8673 128.358 98.0443 129.874 103.34 129.874C105.295 129.874 107.267 129.667 109.227 129.249C110.445 128.99 111.631 128.65 112.784 128.241C112.884 128.307 112.922 128.333 113.023 128.399L113.374 133.88C113.41 134.431 113.889 134.854 114.436 134.814C114.987 134.779 115.405 134.303 115.37 133.752L115.364 133.672L115.019 128.271C115.015 128.209 115.003 128.149 114.998 128.088C115.485 128.228 115.98 128.336 116.479 128.423L118.094 131.222C118.497 131.921 118.745 132.684 118.851 133.465C118.979 134.404 118.896 135.368 118.581 136.285C118.084 137.729 117.068 138.923 115.748 139.654L115.631 137.835C115.596 137.284 115.113 136.87 114.569 136.901C114.018 136.937 113.6 137.412 113.635 137.963L114.052 144.453C114.258 147.663 113.27 150.89 111.102 153.267C108.897 155.685 105.874 157.019 102.609 157.019H93.8523ZM88.1893 155.651C87.4443 156.521 86.3673 157.019 85.2343 157.019H76.3663H71.2803C66.1843 157.019 62.0373 152.873 62.0373 147.776V142.558C62.0373 139.831 64.2563 137.612 66.9843 137.612H68.4413C74.3003 137.612 79.0663 142.378 79.0663 148.237C79.0663 148.789 79.5143 149.237 80.0663 149.237H85.0863C87.0703 149.237 88.7863 150.643 89.0763 152.508C89.2553 153.657 88.9403 154.774 88.1893 155.651V155.651ZM70.2193 102.268C69.2833 97.88 69.4923 93.438 70.7753 89.286C71.1833 87.969 72.9003 87.719 73.7393 88.813C74.0963 89.278 74.4883 89.723 74.9163 90.146C75.1113 90.338 75.3653 90.434 75.6193 90.434C75.8573 90.434 76.0903 90.34 76.2803 90.171C76.2953 90.157 76.3153 90.152 76.3313 90.137C77.0273 89.37 75.9693 88.392 75.5223 87.843C72.0593 83.592 72.2833 77.307 76.2203 73.318L76.6383 72.895C80.8683 68.615 87.7653 68.573 92.0483 72.8L97.5443 78.224C97.9373 78.611 98.5703 78.608 98.9593 78.215C99.3463 77.822 99.3423 77.188 98.9493 76.8L96.3143 74.198C96.3143 74.198 93.3643 71.299 93.3253 71.26C94.0443 71.2 94.7643 71.161 95.4813 71.161C98.8173 71.161 102.098 71.825 105.177 73.094C105.131 73.18 105.091 73.271 105.072 73.368C105.041 73.522 105.027 73.769 105.087 74.098C105.315 75.355 106.688 77.874 112.935 81.595C117.686 84.426 120.496 85.117 122.108 85.117C122.347 85.117 122.551 85.098 122.739 85.073C127.143 90.058 129.395 96.528 129.179 103.031C129.126 104.615 127.34 105.523 126.011 104.661C126.068 104.527 126.106 104.381 126.11 104.227C126.121 103.862 126.127 103.498 126.127 103.136C126.126 102.677 126.118 102.221 126.102 101.77C126.078 101.114 125.546 100.604 124.87 100.624C124.213 100.648 123.701 101.199 123.724 101.855C123.739 102.279 123.747 102.707 123.748 103.138C123.748 103.156 123.747 103.175 123.747 103.193L114.973 97.503C113.567 96.592 111.887 96.283 110.238 96.635C108.59 96.987 107.18 97.954 106.27 99.36L103.15 104.169C98.8733 110.764 100.752 119.578 107.347 123.855C107.347 123.855 108.253 124.44 109.223 125.065C110.131 125.651 109.895 127.06 108.838 127.287L108.81 127.293C102.061 128.733 95.1783 127.471 89.4293 123.745L81.3653 118.515C81.1903 118.403 81.0243 118.282 80.8533 118.165C75.3853 114.432 71.6153 108.814 70.2193 102.268V102.268ZM131.067 110.323C132.024 110.944 132.684 111.906 132.923 113.031C133.164 114.156 132.954 115.304 132.334 116.261L129.213 121.072C127.443 123.801 124.704 125.68 121.498 126.364C118.291 127.048 115.024 126.448 112.295 124.68L108.435 122.177C102.776 118.507 101.158 110.918 104.827 105.258L107.948 100.448C108.568 99.49 109.53 98.831 110.655 98.591C111.78 98.351 112.927 98.561 113.885 99.181L131.067 110.323ZM132.543 98.799C133.712 101.463 133.774 104.423 132.717 107.135L132.501 107.688C132.378 108.003 132.238 108.306 132.089 108.603L130.639 107.663C131.38 103.981 131.371 100.147 130.562 96.35C130.507 96.096 130.442 95.847 130.382 95.596C131.274 96.517 132.012 97.59 132.543 98.799ZM56.3023 156.576C56.3023 157.126 55.8523 157.576 55.3023 157.576H50.6133H47.0133C46.4633 157.576 46.0133 157.126 46.0133 156.576V154.495C46.0133 153.121 47.1273 152.008 48.5003 152.008H50.4583C51.6213 152.008 52.9243 152.908 53.0893 154.06C53.1603 154.554 53.5833 154.918 54.0793 154.918H55.2713C55.8403 154.918 56.3023 155.38 56.3023 155.949V156.576ZM30.3723 159.541L30.3533 159.535C28.6603 158.999 27.2853 157.756 26.5793 156.127C26.5593 156.08 26.5353 156.035 26.5083 155.992L26.3153 155.685C25.6493 154.097 25.6823 152.295 26.4083 150.731C26.5083 150.513 26.6223 150.304 26.7473 150.103C27.2413 149.308 28.3623 149.186 29.0413 149.831C30.3403 151.067 31.9263 153.47 32.2513 157.946C32.3263 158.985 31.3653 159.853 30.3723 159.541V159.541ZM298.057 18.086C298.131 18.011 298.217 17.995 298.275 17.995C298.323 17.995 298.416 18.007 298.495 18.086L302.537 22.129C302.611 22.203 302.627 22.289 302.627 22.347C302.627 22.406 302.611 22.491 302.536 22.566L298.495 26.608C298.319 26.784 298.192 26.744 298.057 26.609C298.057 26.608 298.056 26.608 298.056 26.608L294.014 22.566C293.939 22.491 293.923 22.406 293.923 22.347C293.923 22.289 293.939 22.203 294.014 22.128L298.057 18.086ZM374.98 157.576H326.977C324.43 157.576 323.058 154.616 324.682 152.654C327.422 149.343 329.033 145.114 329.033 140.576V117.776C329.033 111.339 325.812 105.645 320.899 102.209C319.625 101.318 319.764 99.432 321.152 98.733C327.368 95.604 331.644 89.173 331.633 81.749C331.632 80.979 332.192 80.342 332.94 80.16C337.321 79.099 340.585 75.145 340.585 70.443V56.043C340.585 50.889 336.665 46.637 331.65 46.103C331.064 46.041 330.548 45.656 330.335 45.106C327.575 38.017 320.686 32.976 312.633 32.976H298.275H251.704V28.462C251.934 28.351 252.15 28.209 252.337 28.022L256.378 23.981C256.815 23.545 257.055 22.965 257.055 22.347C257.055 21.73 256.815 21.15 256.378 20.714L252.337 16.672C252.152 16.488 251.934 16.35 251.704 16.244V3.759C251.704 3.721 251.704 3.622 251.833 3.579C251.962 3.537 252.021 3.615 252.044 3.644L260.852 15.271C261.728 16.427 263.465 16.427 264.341 15.271L274.338 2.074C274.421 1.965 274.558 1.965 274.641 2.074L284.637 15.271C285.055 15.822 285.691 16.138 286.382 16.138H286.383C287.074 16.137 287.71 15.822 288.127 15.271L296.936 3.644C296.958 3.615 297.018 3.537 297.146 3.579C297.275 3.622 297.275 3.721 297.275 3.759V16.243C297.044 16.35 296.827 16.487 296.642 16.672L292.601 20.714C292.164 21.15 291.923 21.73 291.923 22.347C291.923 22.965 292.164 23.545 292.6 23.98L296.642 28.022C297.078 28.459 297.658 28.699 298.275 28.699C298.892 28.699 299.472 28.459 299.909 28.022L303.95 23.981C304.387 23.545 304.627 22.965 304.627 22.347C304.627 21.73 304.387 21.15 303.95 20.714L299.909 16.672C299.724 16.488 299.506 16.35 299.275 16.244L299.276 3.864C299.276 2.949 298.762 2.073 297.914 1.732C296.969 1.351 295.945 1.638 295.341 2.436L289.57 10.053C287.816 12.368 284.947 12.368 283.193 10.053L276.234 0.866C275.817 0.315 275.181 0 274.489 0C273.797 0 273.162 0.316 272.745 0.866L265.785 10.053C264.031 12.368 261.162 12.368 259.408 10.053L253.731 2.558C253.162 1.808 252.193 1.393 251.289 1.655C250.33 1.932 249.704 2.77 249.704 3.759V16.243C249.473 16.35 249.255 16.487 249.07 16.672L245.029 20.714C244.592 21.15 244.352 21.73 244.352 22.347C244.352 22.965 244.592 23.545 245.028 23.98L249.07 28.022C249.256 28.209 249.473 28.351 249.704 28.463V32.976H247.942C238.125 32.976 230.037 40.464 229.057 50.027C228.971 50.87 228.39 51.61 227.565 51.804C223.949 52.656 221.248 55.903 221.248 59.776V67.576C221.248 73.52 224.004 78.821 228.294 82.305C228.733 82.663 229.009 83.173 229.067 83.737C230.053 93.293 238.129 100.776 247.942 100.776H248.33C249.354 100.776 249.731 102.151 248.835 102.645C244.926 104.8 241.465 107.795 238.755 111.481C238.636 111.642 238.535 111.813 238.42 111.976H227.317C224.065 111.976 221.163 114.307 220.748 117.533C220.247 121.436 223.288 124.776 227.094 124.776H233.148C232.926 126.137 232.814 127.522 232.775 128.919C228.47 131.04 225.494 135.461 225.494 140.576V145.376C225.494 146.149 224.867 146.776 224.094 146.776H213.569C210.009 146.776 206.856 149.686 206.895 153.246C206.913 154.923 207.583 156.444 208.658 157.576H197.692C197.14 157.576 196.692 157.128 196.692 156.576V152.576C196.692 151.471 197.587 150.576 198.692 150.576H199.692C200.245 150.576 200.692 150.128 200.692 149.576V140.576C200.692 140.024 200.245 139.576 199.692 139.576H192.097C191.34 139.576 190.836 138.755 191.219 138.102C191.827 137.066 192.176 135.862 192.176 134.576V125.576C192.176 123.919 190.833 122.576 189.176 122.576H177.176C175.519 122.576 174.176 123.919 174.176 125.576V134.576C174.176 135.862 174.525 137.066 175.133 138.102C175.517 138.755 175.012 139.576 174.255 139.576H166.464C165.707 139.576 165.203 138.755 165.586 138.102C166.194 137.066 166.543 135.862 166.543 134.576V131.576C166.543 129.367 164.752 127.576 162.543 127.576H155.543C153.334 127.576 151.543 129.367 151.543 131.576V134.576C151.543 135.862 151.892 137.066 152.501 138.102C152.883 138.755 152.379 139.576 151.622 139.576H143.695C143.143 139.576 142.695 140.024 142.695 140.576V149.576C142.695 150.128 143.143 150.576 143.695 150.576H144.695C145.8 150.576 146.695 151.471 146.695 152.576V156.576C146.695 157.128 146.248 157.576 145.695 157.576H124.814C123.444 157.576 122.503 156.239 122.926 154.937C123.234 153.987 123.307 152.932 123.073 151.84C122.486 149.098 119.912 147.237 117.109 147.237C116.523 147.237 116.05 146.752 116.08 146.167C116.104 145.672 116.102 145.172 116.07 144.669L115.931 142.509C115.904 142.084 116.149 141.702 116.527 141.506C119.359 140.037 121.185 136.982 120.888 133.496C120.784 132.273 120.336 131.104 119.721 130.042C119.357 129.41 119.76 128.632 120.484 128.552C120.961 128.499 121.439 128.422 121.915 128.32C125.643 127.525 128.831 125.338 130.891 122.16L133.847 117.602C134.858 116.044 135.282 114.126 134.812 112.329C134.695 111.881 134.53 111.453 134.323 111.05C133.962 110.346 133.885 109.537 134.201 108.811C134.257 108.68 134.312 108.548 134.364 108.414L134.468 108.148C135.554 105.364 135.786 102.28 134.905 99.425C133.956 96.344 131.976 93.833 129.342 92.213C128.367 89.64 127.026 87.252 125.363 85.106C124.791 84.368 124.762 83.344 125.257 82.553L125.258 82.551C125.541 82.076 125.385 81.463 124.911 81.18C124.436 80.898 123.822 81.053 123.54 81.528L123.538 81.531C122.9 82.615 121.627 83.169 120.41 82.851C119.037 82.492 116.968 81.67 113.959 79.878C110.984 78.106 109.29 76.696 108.324 75.67C107.46 74.75 107.336 73.362 107.982 72.278L112.095 65.374C112.586 64.551 113.842 64.822 113.948 65.775L114.137 67.471C114.19 67.943 114.454 68.352 114.862 68.595C115.27 68.838 115.755 68.874 116.195 68.697L120.846 66.811C121.46 66.562 122.142 66.968 122.215 67.627L122.771 72.614C122.824 73.086 123.088 73.495 123.496 73.738C123.904 73.981 124.389 74.017 124.829 73.84L126.41 73.198C127.298 72.839 128.135 73.814 127.645 74.637L125.325 78.532C125.042 79.007 125.197 79.62 125.672 79.903C126.145 80.185 126.76 80.03 127.043 79.555L131.644 71.832C131.975 71.277 131.914 70.575 131.493 70.084C131.072 69.594 130.388 69.429 129.788 69.671L124.686 71.739L123.983 65.44C123.931 64.969 123.667 64.559 123.259 64.316C122.851 64.074 122.366 64.038 121.925 64.215L116.052 66.596L115.441 61.125C115.37 60.483 114.898 59.959 114.267 59.823C113.636 59.685 112.989 59.966 112.658 60.522L107.213 69.661C106.646 70.613 105.491 71.031 104.444 70.669C100.18 69.196 95.6053 68.788 91.0483 69.517C88.4693 67.953 85.4033 67.313 82.2543 67.829C79.4823 68.283 76.9633 69.72 74.9883 71.719L74.7963 71.913C72.0713 74.674 70.8593 78.363 71.1363 81.957C71.2023 82.81 70.9773 83.651 70.5913 84.414C67.7573 90.028 66.9253 96.41 68.2633 102.685C68.9613 105.956 70.2103 109.011 71.9363 111.75C72.7193 112.993 72.5553 114.606 71.4733 115.601C68.4303 118.402 66.3073 122.218 65.6313 126.612L64.6083 133.26C64.3713 134.797 63.6733 136.265 62.4883 137.273C60.9903 138.547 60.0373 140.442 60.0373 142.558V147.776C60.0373 150.507 61.0173 153.011 62.6443 154.96C63.5133 156.002 62.8253 157.576 61.4683 157.576H59.9293C59.0303 157.576 58.3023 156.848 58.3023 155.949C58.3023 154.275 56.9453 152.918 55.2713 152.918H54.8423C54.1973 151.191 52.5473 150.008 50.6443 150.008H50.1943C50.5063 148.796 50.5023 147.495 50.0883 146.231C49.9833 145.909 49.7223 145.663 49.3953 145.576C49.0663 145.486 48.7183 145.573 48.4673 145.801C48.2363 146.01 47.9593 146.182 47.6433 146.313C45.8043 147.074 44.7863 145.719 44.5183 145.286C44.3623 145.035 44.1043 144.865 43.8113 144.823C43.5183 144.781 43.2223 144.87 43.0023 145.067C42.7723 145.273 42.4983 145.442 42.1863 145.571C41.4693 145.869 40.7973 145.877 40.1913 145.594C39.5213 145.281 38.9703 144.615 38.7173 143.812C38.5513 143.285 37.9903 142.992 37.4633 143.158C36.9403 143.323 36.6503 143.877 36.8083 144.4C36.8103 144.405 36.8083 144.408 36.8103 144.412C37.2343 145.761 38.1593 146.852 39.3463 147.406C40.4653 147.927 41.7123 147.932 42.9513 147.419C43.1273 147.346 43.2963 147.265 43.4593 147.176C44.7363 148.523 46.5863 148.917 48.4093 148.161C48.4133 148.159 48.4183 148.157 48.4223 148.155C48.4473 148.808 48.3333 149.451 48.1003 150.049C46.1073 150.228 44.4833 151.695 44.1023 153.622L35.4033 158.926C35.0533 159.138 34.6853 159.31 34.3073 159.448C34.2583 152.955 31.9113 149.651 30.0653 148.069C30.1273 147.783 30.1393 147.725 30.2013 147.439L33.4913 146.447C34.0203 146.287 34.3193 145.729 34.1603 145.2C34.0003 144.672 33.4443 144.376 32.9133 144.531L29.7733 145.479C28.7133 145.798 27.6993 146.284 26.8463 146.989C23.9013 149.42 23.1133 153.327 24.5093 156.548C24.5293 156.594 24.5523 156.639 24.5803 156.682L24.7753 156.994C25.7203 159.119 27.5293 160.738 29.7483 161.442C30.5533 161.697 31.3833 161.823 32.2093 161.823C33.6873 161.823 35.1543 161.42 36.4443 160.634L42.8453 156.731C43.3483 156.424 44.0203 156.773 44.0133 157.363C44.0003 158.583 44.9853 159.576 46.2023 159.576H50.6133H56.1133H147.695H153.695H189.692H195.692H213.294H251.742H255.909C256.542 160.266 257.308 160.827 258.202 161.188C258.981 161.503 259.785 161.651 260.578 161.651C262.357 161.651 264.062 160.888 265.269 159.576H266.749H305.542H311.949H374.98C375.532 159.576 375.98 159.128 375.98 158.576C375.98 158.024 375.532 157.576 374.98 157.576V157.576Z" fill="#0E0F10"/>
<path fill-rule="evenodd" clip-rule="evenodd" d="M107.098 142.446C106.707 142.055 106.075 142.055 105.684 142.446L104.217 143.913L102.75 142.446C102.36 142.055 101.727 142.055 101.336 142.446C100.946 142.837 100.946 143.469 101.336 143.86L102.803 145.327L101.336 146.794C100.946 147.184 100.946 147.817 101.336 148.208C101.532 148.403 101.787 148.501 102.043 148.501C102.299 148.501 102.555 148.403 102.75 148.208L104.217 146.741L105.684 148.208C105.879 148.403 106.135 148.501 106.391 148.501C106.647 148.501 106.903 148.403 107.098 148.208C107.489 147.817 107.489 147.184 107.098 146.794L105.631 145.327L107.098 143.86C107.489 143.469 107.489 142.837 107.098 142.446V142.446ZM121.691 90.4973C121.853 91.0023 122.32 91.3243 122.823 91.3243C122.943 91.3243 123.066 91.3063 123.186 91.2673C123.812 91.0663 124.156 90.3963 123.956 89.7713C123.489 88.3163 123.13 87.4633 123.115 87.4283C122.86 86.8233 122.162 86.5393 121.558 86.7963C120.953 87.0513 120.67 87.7483 120.924 88.3543C120.928 88.3613 121.261 89.1543 121.691 90.4973ZM122.87 94.9792C123.027 95.7352 123.166 96.5022 123.283 97.2582C123.373 97.8472 123.88 98.2672 124.456 98.2672C124.517 98.2672 124.578 98.2632 124.639 98.2532C125.288 98.1532 125.734 97.5462 125.634 96.8972C125.511 96.0992 125.365 95.2912 125.199 94.4942C125.064 93.8512 124.436 93.4392 123.792 93.5722C123.149 93.7062 122.736 94.3362 122.87 94.9792V94.9792ZM79.7963 86.2019C80.0543 86.2019 80.3123 86.1029 80.5083 85.9049C80.8963 85.5109 80.8923 84.8779 80.4993 84.4899C79.5583 83.5619 79.0353 82.3239 79.0263 81.0019C79.0183 79.6809 79.5253 78.4349 80.4523 77.4949L80.8713 77.0719C81.7983 76.1319 83.0373 75.6089 84.3583 75.5999C85.6623 75.5979 86.9253 76.0979 87.8653 77.0259C88.2583 77.4129 88.8913 77.4099 89.2803 77.0169C89.6683 76.6239 89.6643 75.9909 89.2713 75.6019C87.9503 74.2989 86.1893 73.5779 84.3453 73.5999C82.4903 73.6129 80.7503 74.3469 79.4473 75.6669L79.0293 76.0899C77.7263 77.4109 77.0153 79.1599 77.0273 81.0149C77.0393 82.8709 77.7733 84.6109 79.0933 85.9139C79.2893 86.1059 79.5423 86.2019 79.7963 86.2019V86.2019ZM93.2006 93.4456L93.5336 92.9326C94.3076 91.7386 95.6086 91.0886 96.9356 91.0886C97.6886 91.0886 98.4506 91.2986 99.1296 91.7386L99.6436 92.0716C100.546 92.6566 101.167 93.5636 101.393 94.6246C101.619 95.6846 101.422 96.7656 100.837 97.6676L100.504 98.1816C99.9186 99.0836 99.0126 99.7046 97.9506 99.9306C96.8896 100.157 95.8096 99.9586 94.9076 99.3746L94.3936 99.0416C93.4926 98.4566 92.8706 97.5506 92.6446 96.4896C92.4186 95.4286 92.6156 94.3476 93.2006 93.4456ZM93.3056 100.72L93.8196 101.053C94.8056 101.693 95.9336 102.023 97.0876 102.023C97.5126 102.023 97.9416 101.978 98.3686 101.887C99.9516 101.55 101.306 100.62 102.181 99.2696L102.515 98.7556C104.329 95.9586 103.529 92.2076 100.732 90.3946L100.218 90.0606C97.4216 88.2466 93.6696 89.0476 91.8556 91.8436L91.5226 92.3576C90.6476 93.7076 90.3506 95.3236 90.6886 96.9066C91.0266 98.4896 91.9556 99.8436 93.3056 100.72" fill="#0E0F10"/>
<path fill-rule="evenodd" clip-rule="evenodd" d="M94.8749 95.5837C95.4239 95.9397 96.1639 95.7817 96.5199 95.2327C96.8749 94.6847 96.7179 93.9437 96.1689 93.5877C95.6199 93.2317 94.8799 93.3907 94.5239 93.9387C94.1679 94.4877 94.3259 95.2277 94.8749 95.5837ZM97.8681 97.5251C98.4171 97.8811 99.1571 97.7231 99.5131 97.1741C99.8691 96.6261 99.7111 95.8851 99.1621 95.5291C98.6141 95.1731 97.8731 95.3311 97.5171 95.8801C97.1611 96.4291 97.3191 97.1691 97.8681 97.5251ZM81.3822 128.633C81.2712 128.633 81.1692 128.663 81.0692 128.696C80.6722 128.829 80.3822 129.192 80.3822 129.633C80.3822 131.587 78.7932 133.176 76.8362 133.176C74.8822 133.176 73.2932 131.587 73.2932 129.633V127.47V126.826C73.2932 124.872 74.8822 123.283 76.8392 123.283C77.3912 123.283 77.8382 122.835 77.8382 122.283C77.8382 121.731 77.3882 121.283 76.8362 121.283C73.7792 121.283 71.2932 123.77 71.2932 126.826V129.633C71.2932 132.69 73.7792 135.176 76.8392 135.176C76.9682 135.176 77.0942 135.165 77.2212 135.156C80.0992 134.959 82.3822 132.561 82.3822 129.633C82.3822 129.081 81.9342 128.633 81.3822 128.633ZM278.842 22.3469C278.842 22.4059 278.826 22.4909 278.751 22.5659L274.709 26.6079C274.588 26.7289 274.392 26.7289 274.271 26.6079L270.229 22.5659C270.108 22.4459 270.108 22.2489 270.229 22.1279L274.271 18.0859C274.331 18.0259 274.41 17.9959 274.49 17.9959C274.57 17.9959 274.649 18.0259 274.709 18.0859L278.752 22.1289C278.826 22.2029 278.842 22.2889 278.842 22.3469V22.3469ZM272.857 16.6719L268.815 20.7139C267.914 21.6149 267.914 23.0799 268.815 23.9799L272.857 28.0219C273.307 28.4719 273.899 28.6979 274.49 28.6979C275.081 28.6979 275.673 28.4719 276.123 28.0219L280.165 23.9809C280.602 23.5449 280.842 22.9649 280.842 22.3469C280.842 21.7299 280.602 21.1499 280.165 20.7139L276.123 16.6719C275.223 15.7719 273.757 15.7719 272.857 16.6719V16.6719ZM345.927 120.125C346.132 120.109 346.336 120.102 346.539 120.102C348.662 120.102 350.704 120.941 352.218 122.455C353.876 124.113 354.725 126.406 354.547 128.745C354.295 132.062 351.979 134.917 348.786 135.848L336.122 139.542C335.714 139.663 335.434 139.44 335.333 139.339C335.232 139.238 335.011 138.96 335.131 138.55V138.549L338.824 125.886C339.756 122.692 342.61 120.377 345.927 120.125ZM336.904 125.326L333.211 137.989C332.924 138.971 333.196 140.03 333.919 140.753C334.451 141.286 335.166 141.574 335.899 141.574C336.16 141.574 336.424 141.537 336.682 141.461L349.346 137.768C353.334 136.604 356.226 133.04 356.541 128.896C356.763 125.976 355.703 123.112 353.632 121.041C351.56 118.969 348.697 117.906 345.775 118.131C341.633 118.446 338.068 121.337 336.904 125.326V125.326ZM282.544 100.76C281.719 100.427 280.78 100.825 280.447 101.651C280.114 102.475 280.513 103.414 281.337 103.747C282.163 104.08 283.102 103.682 283.435 102.857C283.768 102.031 283.369 101.093 282.544 100.76V100.76ZM276.569 98.3479C275.744 98.0149 274.805 98.4129 274.472 99.2389C274.139 100.063 274.538 101.002 275.363 101.335C276.188 101.668 277.127 101.269 277.46 100.445C277.793 99.6189 277.394 98.6809 276.569 98.3479V98.3479ZM288.519 103.172C287.694 102.839 286.755 103.238 286.422 104.063C286.089 104.888 286.488 105.826 287.313 106.159C288.138 106.492 289.077 106.094 289.41 105.269C289.743 104.444 289.344 103.505 288.519 103.172V103.172ZM17.3564 157.387C17.3564 157.49 17.2694 157.576 17.1674 157.576H13.2024C13.1024 157.576 13.0134 157.488 13.0134 157.387V157.116C13.0134 155.92 13.9864 154.947 15.1874 154.947C16.3834 154.947 17.3564 155.92 17.3564 157.116V157.387ZM15.1834 152.947C12.8844 152.947 11.0134 154.818 11.0134 157.116V157.387C11.0134 158.594 11.9954 159.576 13.2024 159.576H17.1674C18.3744 159.576 19.3564 158.594 19.3564 157.387V157.116C19.3564 154.818 17.4854 152.947 15.1834 152.947ZM138.676 59.2424C139.51 59.2424 140.186 59.9184 140.186 60.7524C140.186 61.3054 140.634 61.7524 141.186 61.7524C141.738 61.7524 142.186 61.3054 142.186 60.7524C142.186 59.9184 142.862 59.2424 143.696 59.2424C144.248 59.2424 144.696 58.7944 144.696 58.2424C144.696 57.6904 144.248 57.2424 143.696 57.2424C142.862 57.2424 142.186 56.5664 142.186 55.7324C142.186 55.1804 141.738 54.7324 141.186 54.7324C140.634 54.7324 140.186 55.1804 140.186 55.7324C140.186 56.5664 139.51 57.2424 138.676 57.2424C138.124 57.2424 137.676 57.6904 137.676 58.2424C137.676 58.7944 138.124 59.2424 138.676 59.2424ZM160.043 109.966H160.553C161.105 109.966 161.553 110.414 161.553 110.966V111.476C161.553 112.028 162.001 112.476 162.553 112.476C163.106 112.476 163.553 112.028 163.553 111.476V110.966C163.553 110.414 164.001 109.966 164.553 109.966H165.063C165.615 109.966 166.063 109.518 166.063 108.966C166.063 108.414 165.615 107.966 165.063 107.966H164.553C164.001 107.966 163.553 107.518 163.553 106.966V106.456C163.553 105.904 163.106 105.456 162.553 105.456C162.001 105.456 161.553 105.904 161.553 106.456V106.966C161.553 107.518 161.105 107.966 160.553 107.966H160.043C159.491 107.966 159.043 108.414 159.043 108.966C159.043 109.518 159.491 109.966 160.043 109.966ZM197.862 83.802C198.118 83.802 198.374 83.704 198.569 83.509L199.752 82.325C200.143 81.935 200.143 81.302 199.752 80.911C199.362 80.521 198.728 80.521 198.338 80.911L197.155 82.095C196.764 82.486 196.764 83.119 197.155 83.509C197.35 83.704 197.606 83.802 197.862 83.802ZM191.946 89.718C192.202 89.718 192.458 89.62 192.653 89.425L193.836 88.242C194.227 87.851 194.227 87.218 193.836 86.828C193.446 86.437 192.813 86.437 192.422 86.828L191.239 88.011C190.848 88.402 190.848 89.034 191.239 89.425C191.434 89.62 191.69 89.718 191.946 89.718ZM198.338 89.4251C198.533 89.6201 198.789 89.7181 199.045 89.7181C199.301 89.7181 199.557 89.6201 199.752 89.4251C200.143 89.0341 200.143 88.4021 199.752 88.0111L198.569 86.8281C198.178 86.4371 197.546 86.4371 197.155 86.8281C196.764 87.2181 196.764 87.8511 197.155 88.2421L198.338 89.4251ZM192.422 83.509C192.617 83.704 192.873 83.802 193.129 83.802C193.385 83.802 193.641 83.704 193.836 83.509C194.227 83.119 194.227 82.486 193.836 82.095L192.653 80.911C192.262 80.521 191.63 80.521 191.239 80.911C190.848 81.301 190.848 81.935 191.239 82.325L192.422 83.509ZM195.496 112.466C196.329 112.466 197.006 113.144 197.006 113.977C197.006 114.809 196.329 115.487 195.496 115.487C194.663 115.487 193.986 114.809 193.986 113.977C193.986 113.144 194.663 112.466 195.496 112.466ZM195.496 117.487C197.431 117.487 199.006 115.911 199.006 113.977C199.006 112.041 197.431 110.466 195.496 110.466C193.56 110.466 191.986 112.041 191.986 113.977C191.986 115.911 193.56 117.487 195.496 117.487ZM291.249 67.2424C293.724 67.2424 295.749 65.2174 295.749 62.7424C295.749 60.2674 293.724 58.2424 291.249 58.2424C288.774 58.2424 286.749 60.2674 286.749 62.7424C286.749 65.2174 288.774 67.2424 291.249 67.2424ZM299.504 57.3591C300.056 57.3591 300.504 56.9111 300.504 56.3591C300.504 55.8071 300.056 55.3591 299.504 55.3591C296.534 55.3591 295.487 52.8281 295.437 52.7021C295.239 52.1891 294.662 51.9341 294.148 52.1281C293.632 52.3251 293.373 52.9031 293.569 53.4191C293.631 53.5801 295.122 57.3591 299.504 57.3591" fill="#0E0F10"/>
</svg>
