<svg width="415" height="200" viewBox="0 0 415 200" fill="none" xmlns="http://www.w3.org/2000/svg">
<path fill-rule="evenodd" clip-rule="evenodd" d="M322.922 36.2354V36.2384C322.922 52.5694 336.161 65.8084 352.492 65.8084H375.132C385.657 65.8084 394.189 74.3404 394.189 84.8654C394.189 95.3894 385.657 103.922 375.132 103.922H342.725C330.746 103.922 321.035 113.632 321.035 125.611V125.615C321.035 137.595 330.746 147.306 342.725 147.306H388.447C402.585 147.306 414.045 158.766 414.045 172.903C414.045 187.041 402.585 198.502 388.447 198.502H46.6554C25.3324 198.502 8.04541 181.215 8.04541 159.892V159.883C8.04541 138.559 25.3324 121.273 46.6554 121.273H123.978C140.547 121.273 153.978 107.841 153.978 91.2734V36.6654C153.978 20.0964 167.41 6.66544 183.978 6.66544H293.352C309.683 6.66544 322.922 19.9044 322.922 36.2354" fill="#404040" fill-opacity="0.3"/>
<path fill-rule="evenodd" clip-rule="evenodd" d="M231.8 112.974V120.774C231.8 127.037 228.74 132.585 224.051 136.049C223.664 142.918 219.629 148.818 213.84 151.829L202.973 197.503H235.075V196.526C235.075 193.071 237.657 190.215 240.991 189.767L253.814 135.87C252.324 135.453 251.223 134.102 251.223 132.487V114.794C251.223 113.522 251.908 112.415 252.925 111.794C253.387 111.308 254.038 111.002 254.764 111.002H259.73L262.081 101.123H260.102C259.572 101.123 259.055 100.959 258.624 100.653L258.157 100.321C258.146 100.313 258.133 100.308 258.121 100.301L244.284 91.4532C243.264 90.8022 242.655 89.6922 242.655 88.4862C242.655 87.2782 243.264 86.1682 244.284 85.5162L258.121 76.6702C258.132 76.6632 258.144 76.6582 258.154 76.6512L258.272 76.5682L245.009 20.8232L228.35 90.8422C228.222 91.3792 227.682 91.7132 227.146 91.5832L224.106 104.36V104.8C228.391 105.063 231.8 108.623 231.8 112.974" fill="#131416"/>
<path fill-rule="evenodd" clip-rule="evenodd" d="M34.0991 197.503H47.0111L40.5551 170.368L34.0991 197.503Z" fill="#131416"/>
<path fill-rule="evenodd" clip-rule="evenodd" d="M95.6104 111.185C101.366 105.429 103.197 84.7551 103.565 79.6831C98.4924 80.0501 77.8184 81.8811 72.0624 87.6371C68.7414 90.9571 66.9684 95.6101 67.2164 100.298C67.3944 103.642 68.4144 108.628 70.7224 111.18C73.3884 114.126 79.9054 116.062 83.8364 116.062C88.2834 116.062 92.4654 114.33 95.6104 111.185" fill="#26282C"/>
<path fill-rule="evenodd" clip-rule="evenodd" d="M372.528 146.017C375.252 141.577 378.508 137.421 382.285 133.644L383.7 135.058C379.894 138.863 376.623 143.06 373.921 147.557C380.424 153.913 390.88 153.874 397.326 147.428C403.085 141.67 404.914 120.997 405.28 115.925C400.21 116.292 379.534 118.123 373.778 123.88C367.736 129.922 367.324 139.486 372.528 146.017" fill="#1C1E21"/>
<path fill-rule="evenodd" clip-rule="evenodd" d="M336.491 197.474C336.491 197.47 336.49 197.466 336.49 197.462C336.49 194.689 338.165 192.302 340.556 191.252C339.905 190.979 339.191 190.827 338.442 190.827H335.27C332.249 190.827 329.791 193.285 329.791 196.306V197.447L336.491 197.474Z" fill="#26282C"/>
<path fill-rule="evenodd" clip-rule="evenodd" d="M244.755 191.699H241.902C239.24 191.699 237.075 193.864 237.075 196.526V197.553L249.582 197.503V196.526C249.582 193.864 247.417 191.699 244.755 191.699" fill="#131416"/>
<path fill-rule="evenodd" clip-rule="evenodd" d="M351.466 192.68H343.272C340.635 192.68 338.49 194.826 338.49 197.462L356.207 197.503C356.23 197.503 356.248 197.485 356.248 197.462C356.248 194.826 354.103 192.68 351.466 192.68Z" fill="#1C1E21"/>
<path fill-rule="evenodd" clip-rule="evenodd" d="M121.398 185.525V195.211C121.398 196.865 122.744 198.211 124.398 198.211H126.979C128.633 198.211 129.978 196.865 129.978 195.211V185.525H121.398Z" fill="#26282C"/>
<path fill-rule="evenodd" clip-rule="evenodd" d="M140.415 153.974C129.921 153.974 121.415 145.468 121.415 134.974V133.584C118.4 133.269 115.779 131.608 114.166 129.215H106.176C96.9911 129.215 89.5441 136.662 89.5441 145.847V195.21C89.5441 196.867 90.8871 198.21 92.5441 198.21H95.1231C96.7801 198.21 98.1231 196.867 98.1231 195.21V186.524C98.1231 184.867 99.4671 183.524 101.123 183.524H146.609C145.352 182.277 144.57 180.553 144.57 178.647V164.541C144.57 163.989 145.018 163.541 145.57 163.541V153.974H140.415Z" fill="#1C1E21"/>
<path fill-rule="evenodd" clip-rule="evenodd" d="M185.523 195.21V183.827C185.523 183.393 185.807 183.023 186.214 182.875C190.477 181.331 193.339 177.273 193.339 172.77V153.974H145.57V163.541C146.122 163.541 146.57 163.989 146.57 164.541V178.647C146.57 181.325 148.739 183.506 151.413 183.524C151.979 183.528 152.447 183.959 152.447 184.524V195.21C152.447 196.867 153.791 198.21 155.447 198.21H158.027C159.684 198.21 161.027 196.867 161.027 195.21V185.524C161.027 184.42 161.922 183.524 163.027 183.524H174.944C176.048 183.524 176.944 184.42 176.944 185.524V195.21C176.944 196.867 178.287 198.21 179.944 198.21H182.523C184.18 198.21 185.523 196.867 185.523 195.21" fill="#26282C"/>
<path fill-rule="evenodd" clip-rule="evenodd" d="M144.568 84.1744H140.415C131.696 84.1744 124.497 90.7754 123.533 99.2404H132.524C133.281 92.2344 138.106 86.4144 144.568 84.1744ZM132.415 134.974V133.641H123.415V134.974C123.415 144.348 131.041 151.974 140.415 151.974H144.569C137.519 149.531 132.415 142.827 132.415 134.974Z" fill="#1C1E21"/>
<path fill-rule="evenodd" clip-rule="evenodd" d="M184 120.774V112.974C184 110.339 185.439 108.029 187.566 106.774H182.8C179.381 106.774 176.6 109.555 176.6 112.974V120.774C176.6 130.148 184.226 137.774 193.6 137.774H196.153C189.104 135.331 184 128.627 184 120.774" fill="#26282C"/>
<path fill-rule="evenodd" clip-rule="evenodd" d="M122.464 131.641H137.064C137.616 131.641 138.064 132.089 138.064 132.641C138.064 133.193 137.616 133.641 137.064 133.641H132.415V134.974C132.415 142.828 137.52 149.531 144.569 151.974H205.107C213.64 151.974 220.704 145.648 221.906 137.443C219.2 138.927 216.098 139.774 212.8 139.774H193.6C183.124 139.774 174.6 131.251 174.6 120.774V112.974C174.6 108.453 178.279 104.774 182.8 104.774H193.6C194.152 104.774 194.6 105.222 194.6 105.774H204.154C204.154 105.222 204.602 104.774 205.154 104.774H222.107V101.175C222.107 92.0267 214.839 84.5637 205.777 84.2077C205.68 85.8877 205.211 87.4777 204.368 88.9297C204.09 89.4087 203.478 89.5707 203.001 89.2927C202.984 89.2827 202.975 89.2657 202.959 89.2547C202.514 89.8757 202.005 90.4557 201.433 90.9907C201.442 91.0007 201.455 91.0047 201.463 91.0157C201.81 91.4447 201.742 92.0747 201.312 92.4207C199.392 93.9697 196.907 95.1877 194.128 95.9447C192.051 96.5107 189.897 96.8007 187.811 96.8007C187.253 96.8007 186.7 96.7797 186.155 96.7377C176.405 95.9917 167.568 92.4727 160.602 86.5617C160.106 86.1407 159.599 85.6717 159.335 84.9747C159.233 84.7087 159.195 84.4407 159.183 84.1747H144.568C138.106 86.4147 133.281 92.2337 132.524 99.2407H137.064C137.616 99.2407 138.064 99.6887 138.064 100.241C138.064 100.793 137.616 101.241 137.064 101.241H122.464C118.053 101.241 114.464 104.83 114.464 109.241V123.641C114.464 128.052 118.053 131.641 122.464 131.641" fill="#26282C"/>
<path fill-rule="evenodd" clip-rule="evenodd" d="M121.464 110.241V122.641C121.464 125.402 123.703 127.641 126.464 127.641H133.064C134.169 127.641 135.064 126.745 135.064 125.641V107.241C135.064 106.137 134.169 105.241 133.064 105.241H126.464C123.703 105.241 121.464 107.479 121.464 110.241" fill="#1C1E21"/>
<path fill-rule="evenodd" clip-rule="evenodd" d="M200.032 124.649H205.909C207.526 124.649 208.848 125.972 208.848 127.588C208.848 129.204 207.526 130.526 205.909 130.526H200.032C198.415 130.526 197.093 129.204 197.093 127.588C197.093 125.972 198.415 124.649 200.032 124.649V124.649ZM216.456 124.649H219.982C221.598 124.649 222.921 125.972 222.921 127.588C222.921 129.204 221.598 130.526 219.982 130.526H216.456C214.84 130.526 213.517 129.204 213.517 127.588C213.517 125.972 214.84 124.649 216.456 124.649V124.649ZM193.6 106.774H187.566C185.439 108.029 184 110.339 184 112.975V120.774C184 128.628 189.105 135.331 196.154 137.774H212.801C222.175 137.774 229.801 130.149 229.801 120.774V112.975C229.801 109.556 227.019 106.774 223.6 106.774H205.155C204.602 106.774 204.155 106.327 204.155 105.774H194.6C194.6 106.327 194.153 106.774 193.6 106.774Z" fill="#2F3237"/>
<path fill-rule="evenodd" clip-rule="evenodd" d="M200.032 130.526H205.909C207.526 130.526 208.848 129.204 208.848 127.588C208.848 125.971 207.526 124.649 205.909 124.649H200.032C198.415 124.649 197.093 125.971 197.093 127.588C197.093 129.204 198.415 130.526 200.032 130.526V130.526ZM216.456 130.526H219.982C221.599 130.526 222.921 129.204 222.921 127.588C222.921 125.971 221.599 124.649 219.982 124.649H216.456C214.84 124.649 213.517 125.971 213.517 127.588C213.517 129.204 214.84 130.526 216.456 130.526" fill="#1C1E21"/>
<path fill-rule="evenodd" clip-rule="evenodd" d="M156.552 51.754C157.094 51.859 157.449 52.382 157.345 52.924C157.254 53.403 156.835 53.736 156.365 53.736C156.303 53.736 156.24 53.731 156.178 53.719C155.861 53.659 149.912 52.45 145.519 47.367C145.007 48.659 144.989 49.826 145.47 50.934C146.182 52.57 148.071 54.081 150.652 55.08C155.045 56.779 159.655 57.049 163.633 55.838C162.816 55.077 161.9 53.966 161.509 53.492L161.389 53.347C160.661 52.474 160.013 51.571 159.387 50.697C157.916 48.643 156.525 46.703 154.295 45.431C152.971 44.676 151.506 44.279 150.167 44.279C149.507 44.279 148.878 44.375 148.312 44.573C147.67 44.797 147.115 45.141 146.652 45.6C150.658 50.556 156.48 51.74 156.552 51.754" fill="#26282C"/>
<path fill-rule="evenodd" clip-rule="evenodd" d="M214.48 19.9229C215.737 20.7609 217.105 20.8949 218.656 20.3309C216.414 18.2659 214.985 15.9129 214.1 13.9839C213.869 13.4819 214.089 12.8879 214.591 12.6569C215.092 12.4259 215.686 12.6459 215.917 13.1489C216.771 15.0079 218.204 17.2979 220.471 19.2379C220.938 18.7899 221.297 18.2509 221.538 17.6199C222.187 15.9239 221.925 13.6229 220.857 11.6139C219.651 9.34594 217.752 7.89994 215.742 6.36694C214.888 5.71594 214.004 5.04294 213.153 4.28894L213.009 4.16294C212.547 3.75794 211.464 2.80994 210.643 1.98594C209.401 5.91294 209.534 10.5289 211.105 14.9709C211.285 15.4809 211.023 16.0329 210.524 16.2299C211.16 17.7269 212.036 19.1309 213.153 20.1399C213.474 19.7389 214.044 19.6319 214.48 19.9229" fill="#1C1E21"/>
<path fill-rule="evenodd" clip-rule="evenodd" d="M64.2144 159.526C67.3564 160.349 70.7334 159.12 72.6104 156.466L80.0744 145.919C80.3094 145.586 80.1964 145.265 80.1374 145.143C80.0774 145.021 79.8954 144.735 79.4884 144.715H79.4874L66.5804 144.092C66.4564 144.086 66.3314 144.083 66.2074 144.083C63.1024 144.083 60.2374 145.949 58.9974 148.818C58.0884 150.922 58.1424 153.31 59.1464 155.371C60.1504 157.431 61.9974 158.945 64.2144 159.526" fill="#26282C"/>
<path fill-rule="evenodd" clip-rule="evenodd" d="M202.959 89.255C202.521 88.965 202.371 88.386 202.639 87.926C204.031 85.528 204.177 82.754 203.075 79.68C203.022 79.533 202.953 79.395 202.895 79.252C198.357 82.243 193.084 84.28 187.401 85.163C187.349 85.171 187.297 85.174 187.246 85.174C186.762 85.174 186.336 84.822 186.259 84.328C186.175 83.782 186.548 83.271 187.094 83.186C192.56 82.338 197.622 80.369 201.958 77.476C200.779 75.693 199.051 74.249 196.91 73.312C193.473 71.809 189.427 71.758 186.088 73.177C184.293 73.939 182.646 74.949 180.902 76.018C179.998 76.573 179.062 77.147 178.112 77.676C174.955 79.437 171.566 80.76 168.038 81.61C166.83 81.902 165.595 82.138 164.369 82.314L164.162 82.343C163.31 82.463 162.505 82.577 161.895 82.953C161.429 83.239 161.041 83.835 161.205 84.265C161.3 84.517 161.586 84.774 161.896 85.036C168.54 90.673 176.981 94.029 186.308 94.744C188.666 94.925 191.188 94.673 193.603 94.015C196.118 93.33 198.35 92.241 200.058 90.864C200.477 90.525 201.083 90.588 201.434 90.991C202.005 90.456 202.515 89.876 202.959 89.255V89.255ZM252.684 92.6016C252.684 90.8756 251.272 89.4706 249.537 89.4706H245.025C245.122 89.5816 245.231 89.6846 245.362 89.7686L252.245 94.1696C252.517 93.7066 252.684 93.1756 252.684 92.6016Z" fill="#1C1E21"/>
<path fill-rule="evenodd" clip-rule="evenodd" d="M254.318 92.6016C254.318 89.9786 252.172 87.8446 249.536 87.8446H244.804C244.712 88.0416 244.655 88.2556 244.655 88.4856C244.655 88.8596 244.79 89.2006 245.025 89.4706H249.536C251.272 89.4706 252.683 90.8756 252.683 92.6016C252.683 93.1756 252.516 93.7066 252.244 94.1696L253.616 95.0466C254.052 94.3306 254.318 93.4986 254.318 92.6016Z" fill="#131416"/>
<path fill-rule="evenodd" clip-rule="evenodd" d="M308.234 163.678V186.392C308.234 188.315 309.383 189.966 311.026 190.719V186.713C310.629 186.253 310.379 185.661 310.379 185.007V165.128C310.379 164.474 310.629 163.883 311.026 163.423V159.352C309.383 160.105 308.234 161.755 308.234 163.678ZM288.429 65.086V75.847H286.523V64.482C286.079 64.309 285.66 64.128 285.296 63.928V75.847H283.273C283.296 75.933 283.316 76.021 283.316 76.111H290.281V67.619C290.281 67.092 290.707 66.666 291.234 66.666C291.761 66.666 292.187 67.092 292.187 67.619V76.111H294.492V66.013C292.307 65.853 290.211 65.547 288.429 65.086" fill="#131416"/>
<path fill-rule="evenodd" clip-rule="evenodd" d="M303.349 151.39C302.822 151.39 302.395 150.964 302.395 150.437V138.059C302.395 137.532 302.822 137.106 303.349 137.106C303.876 137.106 304.302 137.532 304.302 138.059V150.437C304.302 150.964 303.876 151.39 303.349 151.39V151.39ZM296.875 165.676C296.349 165.676 295.922 165.249 295.922 164.723V138.059C295.922 137.532 296.349 137.106 296.875 137.106C297.402 137.106 297.828 137.532 297.828 138.059V164.723C297.828 165.249 297.402 165.676 296.875 165.676V165.676ZM301.73 137.519C301.463 137.519 301.464 137.106 301.73 137.106C301.996 137.106 301.996 137.519 301.73 137.519ZM308.234 144.248C308.234 144.775 307.808 145.201 307.281 145.201C306.754 145.201 306.328 144.775 306.328 144.248V138.059C306.328 137.532 306.754 137.106 307.281 137.106C307.808 137.106 308.234 137.532 308.234 138.059V144.248ZM285.296 136.015V197.503H289.488V145.155C289.488 144.628 289.914 144.202 290.441 144.202C290.968 144.202 291.394 144.628 291.394 145.155V197.503H295.922V171.667C295.922 171.14 296.349 170.714 296.875 170.714C297.402 170.714 297.828 171.14 297.828 171.667V197.503H302.395V181.833C302.395 181.306 302.822 180.88 303.349 180.88C303.876 180.88 304.302 181.306 304.302 181.833V197.503H307.963C308.769 196.572 309.824 195.863 311.027 195.49V192.766C308.308 191.923 306.328 189.385 306.328 186.392V163.678C306.328 160.686 308.308 158.147 311.027 157.304V154.5C307.177 155.398 304.302 158.846 304.302 162.957V176.028C304.302 176.555 303.876 176.981 303.349 176.981C302.822 176.981 302.395 176.555 302.395 176.028V162.957C302.395 157.787 306.12 153.475 311.027 152.549V145.921C310.503 144.833 310.201 143.619 310.201 142.332V138.059C310.201 137.577 310.563 137.196 311.027 137.132V136.015H285.296Z" fill="#131416"/>
<path fill-rule="evenodd" clip-rule="evenodd" d="M300.829 111.002H302.735V101.124H300.829V111.002Z" fill="#1C1E21"/>
<path fill-rule="evenodd" clip-rule="evenodd" d="M308.602 101.124H306.696C306.982 104.727 308.265 108.12 310.4 111.002H311.026V108.521C309.673 106.28 308.836 103.768 308.602 101.124ZM306.62 71.4322V75.8472H308.527V71.4322V64.9162C308 65.0682 307.443 65.2122 306.826 65.3422C306.756 65.3562 306.689 65.3432 306.62 65.3432V71.4322ZM286.46 104.63C285.933 104.63 285.507 105.056 285.507 105.584C285.507 106.11 285.933 106.537 286.46 106.537C287.861 106.537 289.002 107.676 289.002 109.078V111.002H290.908V109.078C290.908 106.626 288.913 104.63 286.46 104.63V104.63ZM293.133 105.108V109.239C293.133 109.766 293.559 110.192 294.086 110.192C294.613 110.192 295.039 109.766 295.039 109.239V105.108C295.039 103.485 294.439 102.003 293.453 100.86H290.488C290.453 100.874 290.418 100.885 290.383 100.898C291.999 101.614 293.133 103.229 293.133 105.108V105.108ZM286.252 101.124H285.296V101.829C285.579 101.55 285.905 101.323 286.252 101.124ZM294.545 75.8467H296.398V66.1147C295.759 66.0927 295.123 66.0587 294.491 66.0127V76.1107H294.569C294.553 76.0477 294.53 75.9877 294.53 75.9197C294.53 75.8937 294.543 75.8717 294.545 75.8467ZM292.187 67.6192C292.187 67.0922 291.76 66.6662 291.233 66.6662C290.707 66.6662 290.28 67.0922 290.28 67.6192V76.1112H292.187V67.6192ZM286.523 75.8467H288.429V65.0857C287.74 64.9087 287.102 64.7057 286.523 64.4817V75.8467Z" fill="#1C1E21"/>
<path fill-rule="evenodd" clip-rule="evenodd" d="M300.83 74.0797C300.83 74.6067 301.256 75.0337 301.783 75.0337C302.31 75.0337 302.736 74.6067 302.736 74.0797V64.7237L305.641 64.4547C305.595 63.9557 305.913 63.4907 306.414 63.3847C309.934 62.6447 311.027 61.6467 311.027 61.3667C311.027 60.5597 306.518 58.5857 298.161 58.5857C289.804 58.5857 285.296 60.5597 285.296 61.3667C285.296 62.1737 289.804 64.1487 298.161 64.1487C298.681 64.1487 299.094 64.5497 299.143 65.0577L300.83 64.9007V74.0797ZM291.394 145.155C291.394 144.628 290.968 144.202 290.441 144.202C289.914 144.202 289.488 144.628 289.488 145.155V197.503H291.394V145.155ZM297.828 171.668C297.828 171.141 297.402 170.714 296.875 170.714C296.348 170.714 295.922 171.141 295.922 171.668V197.503H297.828V171.668ZM297.828 138.06C297.828 137.533 297.402 137.106 296.875 137.106C296.348 137.106 295.922 137.533 295.922 138.06V164.723C295.922 165.25 296.348 165.676 296.875 165.676C297.402 165.676 297.828 165.25 297.828 164.723V138.06ZM302.395 162.958V176.028C302.395 176.555 302.822 176.981 303.349 176.981C303.875 176.981 304.302 176.555 304.302 176.028V162.958C304.302 158.846 307.177 155.399 311.026 154.5V152.549C306.12 153.476 302.395 157.788 302.395 162.958ZM304.302 181.833C304.302 181.306 303.876 180.88 303.349 180.88C302.822 180.88 302.395 181.306 302.395 181.833V197.503H304.302V181.833Z" fill="#1C1E21"/>
<path fill-rule="evenodd" clip-rule="evenodd" d="M306.328 163.678V186.392C306.328 189.385 308.308 191.923 311.027 192.766V190.719C309.384 189.966 308.234 188.315 308.234 186.392V163.678C308.234 161.755 309.384 160.105 311.027 159.352V157.303C308.308 158.147 306.328 160.686 306.328 163.678ZM307.962 197.503H311.026V195.49C309.823 195.863 308.768 196.572 307.962 197.503Z" fill="#1C1E21"/>
<path fill-rule="evenodd" clip-rule="evenodd" d="M310.379 185.007C310.379 185.661 310.629 186.253 311.026 186.713V163.423C310.629 163.883 310.379 164.475 310.379 165.129V185.007ZM304.302 138.06C304.302 137.533 303.876 137.106 303.349 137.106C302.822 137.106 302.395 137.533 302.395 138.06V150.437C302.395 150.964 302.822 151.391 303.349 151.391C303.876 151.391 304.302 150.964 304.302 150.437V138.06ZM308.234 138.06C308.234 137.533 307.808 137.106 307.281 137.106C306.754 137.106 306.328 137.533 306.328 138.06V144.248C306.328 144.775 306.754 145.202 307.281 145.202C307.808 145.202 308.234 144.775 308.234 144.248V138.06ZM310.2 138.06V142.332C310.2 143.619 310.502 144.833 311.026 145.922V137.132C310.562 137.197 310.2 137.578 310.2 138.06Z" fill="#1C1E21"/>
<path fill-rule="evenodd" clip-rule="evenodd" d="M301.73 137.106C301.464 137.106 301.463 137.52 301.73 137.52C301.996 137.52 301.997 137.106 301.73 137.106Z" fill="#D5DBED"/>
<path fill-rule="evenodd" clip-rule="evenodd" d="M337.451 113.51C337.201 113.351 336.913 113.266 336.616 113.266H333.794L345.376 120.672C346.396 121.324 347.005 122.434 347.005 123.641C347.005 124.848 346.396 125.958 345.376 126.61L333.793 134.015H336.616C336.912 134.015 337.201 133.931 337.451 133.771L351.288 124.925C351.736 124.637 351.993 124.17 351.993 123.641C351.993 123.112 351.736 122.644 351.288 122.357L337.451 113.51ZM280.823 79.1719H303.944C304.395 79.1719 304.761 79.5349 304.761 79.9849C304.761 80.4339 304.395 80.7979 303.944 80.7979H280.823C280.371 80.7979 280.006 80.4339 280.006 79.9849C280.006 79.5349 280.371 79.1719 280.823 79.1719ZM262.099 87.8449H265.384C265.441 87.8449 265.494 87.8599 265.552 87.8609C265.608 87.8599 265.661 87.8449 265.719 87.8449H269.003C271.639 87.8449 273.785 89.9789 273.785 92.6019C273.785 95.2239 271.639 97.3589 269.003 97.3589H265.719C265.661 97.3589 265.608 97.3439 265.552 97.3419C265.494 97.3439 265.441 97.3589 265.384 97.3589H262.099C259.463 97.3589 257.317 95.2239 257.317 92.6019C257.317 89.9789 259.463 87.8449 262.099 87.8449ZM277.017 87.8449H279.977C280.429 87.8449 280.795 88.2089 280.795 88.6579C280.795 89.1069 280.429 89.4709 279.977 89.4709H277.017C276.565 89.4709 276.199 89.1069 276.199 88.6579C276.199 88.2089 276.565 87.8449 277.017 87.8449ZM266.388 78.1109H260.034C259.737 78.1109 259.448 78.1949 259.198 78.3549L257.921 79.1719H272.112C272.564 79.1719 272.929 79.5349 272.929 79.9849C272.929 80.4339 272.564 80.7979 272.112 80.7979H255.377L245.362 87.2009C245.108 87.3639 244.924 87.5879 244.804 87.8449H249.536C252.173 87.8449 254.319 89.9789 254.319 92.6019C254.319 93.4989 254.053 94.3299 253.616 95.0469L259.198 98.6159C259.448 98.7759 259.738 98.8599 260.034 98.8599H266.388H274.683C276.195 98.1419 277.596 97.1809 278.815 95.9679C281.938 92.8639 286.09 91.1529 290.504 91.1529H306.854H307.634H336.437V85.4049H253.548C253.095 85.4049 252.73 85.0419 252.73 84.5919C252.73 84.1429 253.095 83.7789 253.548 83.7789H336.437V79.6379C336.437 78.7959 335.745 78.1109 334.895 78.1109H266.388Z" fill="#1C1E21"/>
<path fill-rule="evenodd" clip-rule="evenodd" d="M307.633 92.7794H306.854C302.875 92.7794 299.133 94.3214 296.32 97.1184C295.67 97.7654 294.965 98.3364 294.232 98.8604H334.895C335.745 98.8604 336.436 98.1744 336.436 97.3324V97.1194H306.451C305.999 97.1194 305.634 96.7564 305.634 96.3064C305.634 95.8574 305.999 95.4934 306.451 95.4934H336.436V92.7794H307.633ZM262.099 95.7325H262.145C261.402 94.8935 260.935 93.8055 260.935 92.6015C260.935 91.3985 261.402 90.3095 262.145 89.4705H262.099C260.363 89.4705 258.952 90.8755 258.952 92.6015C258.952 94.3275 260.363 95.7325 262.099 95.7325ZM265.551 95.7154C267.207 95.6274 268.532 94.2704 268.532 92.6014C268.532 90.9324 267.207 89.5764 265.551 89.4874C263.894 89.5764 262.57 90.9324 262.57 92.6014C262.57 94.2704 263.894 95.6274 265.551 95.7154ZM269.003 95.7325C270.739 95.7325 272.15 94.3275 272.15 92.6015C272.15 90.8755 270.739 89.4705 269.003 89.4705H268.957C269.7 90.3095 270.167 91.3985 270.167 92.6015C270.167 93.8055 269.7 94.8935 268.957 95.7325H269.003ZM299.711 92.7794H290.503C286.524 92.7794 282.784 94.3214 279.97 97.1184C279.321 97.7634 278.624 98.3414 277.89 98.8604H291.032C292.544 98.1424 293.945 97.1814 295.164 95.9684C296.507 94.6334 298.048 93.5734 299.711 92.7794" fill="#1C1E21"/>
<path fill-rule="evenodd" clip-rule="evenodd" d="M307.633 91.1534H306.854H290.504C286.089 91.1534 281.938 92.8634 278.814 95.9684C277.595 97.1814 276.195 98.1424 274.683 98.8604H277.89C278.624 98.3414 279.321 97.7634 279.97 97.1184C282.784 94.3204 286.525 92.7794 290.504 92.7794H299.711C298.049 93.5734 296.508 94.6334 295.164 95.9684C293.945 97.1814 292.544 98.1424 291.032 98.8604H294.232C294.965 98.3364 295.67 97.7654 296.32 97.1184C299.133 94.3204 302.875 92.7794 306.854 92.7794H307.633H336.436V91.1534H307.633ZM253.547 83.7794C253.095 83.7794 252.729 84.1434 252.729 84.5924C252.729 85.0424 253.095 85.4054 253.547 85.4054H336.436V83.7794H253.547ZM262.099 89.4708H262.145C261.402 90.3098 260.935 91.3978 260.935 92.6018C260.935 93.8048 261.402 94.8938 262.145 95.7328H262.099C260.363 95.7328 258.952 94.3278 258.952 92.6018C258.952 90.8758 260.363 89.4708 262.099 89.4708ZM265.551 89.4878C267.207 89.5758 268.532 90.9328 268.532 92.6018C268.532 94.2708 267.207 95.6268 265.551 95.7158C263.894 95.6268 262.57 94.2708 262.57 92.6018C262.57 90.9328 263.894 89.5758 265.551 89.4878ZM268.956 89.4708H269.003C270.739 89.4708 272.15 90.8758 272.15 92.6018C272.15 94.3278 270.739 95.7328 269.003 95.7328H268.956C269.7 94.8938 270.167 93.8048 270.167 92.6018C270.167 91.3978 269.7 90.3098 268.956 89.4708ZM262.099 97.3588H265.383C265.441 97.3588 265.494 97.3438 265.551 97.3418C265.608 97.3438 265.661 97.3588 265.719 97.3588H269.003C271.639 97.3588 273.785 95.2238 273.785 92.6018C273.785 89.9788 271.639 87.8448 269.003 87.8448H265.719C265.661 87.8448 265.608 87.8598 265.551 87.8618C265.494 87.8598 265.441 87.8448 265.383 87.8448H262.099C259.463 87.8448 257.317 89.9788 257.317 92.6018C257.317 95.2238 259.463 97.3588 262.099 97.3588ZM280.823 80.7979H303.944C304.395 80.7979 304.761 80.4339 304.761 79.9849C304.761 79.5349 304.395 79.1719 303.944 79.1719H280.823C280.371 79.1719 280.006 79.5349 280.006 79.9849C280.006 80.4339 280.371 80.7979 280.823 80.7979ZM272.112 80.7979C272.564 80.7979 272.929 80.4339 272.929 79.9849C272.929 79.5349 272.564 79.1719 272.112 79.1719H257.921L255.377 80.7979H272.112ZM313.148 75.8467H311.026V63.9357C310.358 64.2997 309.53 64.6287 308.526 64.9167V75.8467H306.62V65.3437C306.158 65.3417 305.74 65.0397 305.641 64.5687C305.633 64.5297 305.644 64.4927 305.64 64.4537L302.736 64.7237V74.0797C302.736 74.6067 302.31 75.0337 301.783 75.0337C301.256 75.0337 300.83 74.6067 300.83 74.0797V64.9007L299.142 65.0577C299.145 65.0887 299.161 65.1167 299.161 65.1487C299.161 65.7007 298.713 66.1487 298.161 66.1487C297.575 66.1487 296.986 66.1347 296.398 66.1147V75.8467H294.545C294.543 75.8717 294.531 75.8937 294.531 75.9197C294.531 75.9877 294.554 76.0477 294.57 76.1107H313.22C313.188 76.0257 313.163 75.9377 313.148 75.8467V75.8467ZM300.83 111.002H302.736V101.124H300.83V111.002ZM290.908 111.002H289.001V109.079C289.001 107.676 287.861 106.537 286.46 106.537C285.933 106.537 285.507 106.111 285.507 105.584C285.507 105.057 285.933 104.63 286.46 104.63C288.913 104.63 290.908 106.627 290.908 109.079V111.002ZM311.026 108.521V101.124H311.612C311.624 101.035 311.646 100.947 311.675 100.86H293.453C294.438 102.002 295.039 103.484 295.039 105.107V109.239C295.039 109.766 294.613 110.192 294.086 110.192C293.559 110.192 293.133 109.766 293.133 109.239V105.107C293.133 103.228 291.998 101.614 290.382 100.898C290.417 100.885 290.453 100.873 290.488 100.86H282.791C282.823 100.945 282.846 101.033 282.86 101.124H286.251C285.905 101.322 285.578 101.549 285.295 101.828V111.002H284.081C284.103 111.089 284.117 111.177 284.122 111.266H311.386C311.392 111.177 311.405 111.089 311.427 111.002H310.4C308.265 108.119 306.982 104.727 306.696 101.124H308.602C308.836 103.768 309.673 106.279 311.026 108.521V108.521Z" fill="#131416"/>
<path fill-rule="evenodd" clip-rule="evenodd" d="M306.452 95.4932C306 95.4932 305.635 95.8572 305.635 96.3062C305.635 96.7562 306 97.1192 306.452 97.1192H336.437V95.4932H306.452ZM277.017 89.4708H279.977C280.429 89.4708 280.795 89.1068 280.795 88.6578C280.795 88.2088 280.429 87.8448 279.977 87.8448H277.017C276.565 87.8448 276.2 88.2088 276.2 88.6578C276.2 89.1068 276.565 89.4708 277.017 89.4708Z" fill="#131416"/>
<path fill-rule="evenodd" clip-rule="evenodd" d="M286.313 117.981C285.861 117.981 285.497 117.617 285.497 117.168C285.497 116.718 285.861 116.355 286.313 116.355H303.865C304.316 116.355 304.682 116.718 304.682 117.168C304.682 117.617 304.316 117.981 303.865 117.981H286.313ZM319.271 120.42C319.724 120.42 320.089 120.784 320.089 121.233C320.089 121.683 319.724 122.046 319.271 122.046H296.152C295.7 122.046 295.335 121.683 295.335 121.233C295.335 120.784 295.7 120.42 296.152 120.42H319.271ZM295.307 129.093C295.758 129.093 296.124 129.457 296.124 129.906C296.124 130.356 295.758 130.719 295.307 130.719H292.346C291.895 130.719 291.529 130.356 291.529 129.906C291.529 129.457 291.895 129.093 292.346 129.093H295.307ZM264.865 129.093C267.501 129.093 269.648 131.228 269.648 133.85C269.648 133.907 269.633 133.959 269.631 134.015H272.663C272.661 133.959 272.646 133.907 272.646 133.85C272.646 131.228 274.793 129.093 277.428 129.093H280.713C280.77 129.093 280.824 129.108 280.88 129.11C280.938 129.108 280.991 129.093 281.048 129.093H284.333C286.969 129.093 289.114 131.228 289.114 133.85C289.114 133.907 289.1 133.959 289.098 134.015H298.718C300.914 132.971 303.327 132.402 305.834 132.402H322.183H322.962H332.605L341.594 126.654H268.877C268.425 126.654 268.059 126.29 268.059 125.841C268.059 125.392 268.425 125.028 268.877 125.028H344.137L344.299 124.924C344.748 124.637 345.005 124.169 345.005 123.641C345.005 123.111 344.748 122.644 344.299 122.356L337.456 117.981H310.678C310.226 117.981 309.86 117.617 309.86 117.168C309.86 116.718 310.226 116.355 310.678 116.355H334.912L330.462 113.51C330.213 113.351 329.924 113.266 329.627 113.266H261.753H254.766C253.916 113.266 253.224 113.952 253.224 114.794V116.355H280.706C281.157 116.355 281.524 116.718 281.524 117.168C281.524 117.617 281.157 117.981 280.706 117.981H253.224V120.42H287.441C287.893 120.42 288.258 120.784 288.258 121.233C288.258 121.683 287.893 122.046 287.441 122.046H253.224V125.028H263.107C263.559 125.028 263.925 125.392 263.925 125.841C263.925 126.29 263.559 126.654 263.107 126.654H253.224V129.093H264.865Z" fill="#1C1E21"/>
<path fill-rule="evenodd" clip-rule="evenodd" d="M254.765 134.015H261.754H267.995C267.998 133.959 268.012 133.907 268.012 133.85C268.012 132.124 266.6 130.719 264.865 130.719H253.223V132.487C253.223 133.329 253.915 134.015 254.765 134.015ZM277.475 130.719H277.428C275.693 130.719 274.281 132.124 274.281 133.85C274.281 133.907 274.295 133.959 274.298 134.015H276.28C276.278 133.959 276.265 133.906 276.265 133.85C276.265 132.646 276.731 131.558 277.475 130.719ZM284.332 130.719H284.285C285.029 131.558 285.496 132.646 285.496 133.85C285.496 133.906 285.482 133.959 285.48 134.015H287.462C287.465 133.959 287.479 133.907 287.479 133.85C287.479 132.124 286.067 130.719 284.332 130.719ZM280.88 130.736C279.224 130.825 277.899 132.181 277.899 133.85C277.899 133.906 277.912 133.96 277.915 134.015H283.845C283.848 133.96 283.861 133.906 283.861 133.85C283.861 132.181 282.536 130.825 280.88 130.736" fill="#1C1E21"/>
<path fill-rule="evenodd" clip-rule="evenodd" d="M311.867 136.015C311.754 136.104 311.635 136.186 311.524 136.279H313.027H314.307C314.453 136.188 314.601 136.1 314.75 136.015H311.867ZM322.962 132.402H322.183H305.833C303.327 132.402 300.914 132.971 298.717 134.015H329.626C329.923 134.015 330.212 133.931 330.462 133.771L332.604 132.402H322.962ZM264.865 130.719C266.6 130.719 268.012 132.124 268.012 133.85C268.012 133.907 267.998 133.959 267.995 134.015H269.63C269.632 133.959 269.647 133.907 269.647 133.85C269.647 131.227 267.501 129.093 264.865 129.093H253.223V130.719H264.865ZM263.107 126.654C263.559 126.654 263.924 126.29 263.924 125.841C263.924 125.392 263.559 125.028 263.107 125.028H253.223V126.654H263.107ZM268.876 125.028C268.424 125.028 268.059 125.392 268.059 125.841C268.059 126.29 268.424 126.654 268.876 126.654H341.594L344.137 125.028H268.876ZM283.295 136.279H284.802C284.854 136.196 284.889 136.102 284.935 136.015H282.973C282.879 136.112 282.773 136.196 282.668 136.279H283.295ZM284.332 129.093H281.047C280.99 129.093 280.937 129.108 280.88 129.11C280.823 129.108 280.769 129.093 280.712 129.093H277.428C274.792 129.093 272.646 131.228 272.646 133.85C272.646 133.907 272.661 133.959 272.663 134.015H274.298C274.294 133.96 274.281 133.907 274.281 133.85C274.281 132.124 275.692 130.719 277.428 130.719H277.475C276.73 131.558 276.264 132.647 276.264 133.85C276.264 133.906 276.278 133.959 276.28 134.015H277.915C277.912 133.96 277.899 133.906 277.899 133.85C277.899 132.181 279.224 130.825 280.88 130.736C282.536 130.825 283.861 132.181 283.861 133.85C283.861 133.906 283.848 133.96 283.845 134.015H285.48C285.482 133.959 285.496 133.906 285.496 133.85C285.496 132.647 285.029 131.558 284.285 130.719H284.332C286.067 130.719 287.479 132.124 287.479 133.85C287.479 133.907 287.465 133.96 287.462 134.015H289.097C289.099 133.959 289.114 133.907 289.114 133.85C289.114 131.228 286.968 129.093 284.332 129.093ZM296.152 120.42C295.7 120.42 295.334 120.784 295.334 121.233C295.334 121.683 295.7 122.046 296.152 122.046H319.272C319.724 122.046 320.089 121.683 320.089 121.233C320.089 120.784 319.724 120.42 319.272 120.42H296.152ZM287.441 122.046C287.893 122.046 288.258 121.683 288.258 121.233C288.258 120.784 287.893 120.42 287.441 120.42H253.224V122.046H287.441ZM280.706 117.981C281.158 117.981 281.523 117.617 281.523 117.168C281.523 116.718 281.158 116.355 280.706 116.355H253.224V117.981H280.706ZM303.864 117.981C304.316 117.981 304.681 117.617 304.681 117.168C304.681 116.718 304.316 116.355 303.864 116.355H286.313C285.861 116.355 285.496 116.718 285.496 117.168C285.496 117.617 285.861 117.981 286.313 117.981H303.864ZM310.677 116.355C310.225 116.355 309.86 116.719 309.86 117.168C309.86 117.618 310.225 117.981 310.677 117.981H337.455L334.911 116.355H310.677ZM291.528 129.906C291.528 130.355 291.894 130.719 292.345 130.719H295.306C295.757 130.719 296.123 130.355 296.123 129.906C296.123 129.456 295.757 129.093 295.306 129.093H292.345C291.894 129.093 291.528 129.456 291.528 129.906ZM340.796 99.356H337.796V77.11H340.796C342.453 77.11 343.796 78.453 343.796 80.11V96.356C343.796 98.013 342.453 99.356 340.796 99.356Z" fill="#131416"/>
<path fill-rule="evenodd" clip-rule="evenodd" d="M107.324 54.5469L108.102 57.8169C108.211 58.2759 108.621 58.5849 109.074 58.5849C109.15 58.5849 109.228 58.5759 109.305 58.5579H109.306C109.843 58.4299 110.175 57.8909 110.047 57.3539L109.269 54.0839C109.142 53.5469 108.602 53.2119 108.065 53.3429C107.528 53.4699 107.196 54.0099 107.324 54.5469Z" fill="#0E0F10"/>
<path fill-rule="evenodd" clip-rule="evenodd" d="M356.208 197.503L338.491 197.462C338.491 194.825 340.636 192.68 343.273 192.68H351.467C354.104 192.68 356.249 194.825 356.249 197.462C356.249 197.484 356.23 197.503 356.208 197.503ZM336.492 197.474L329.792 197.446V196.306C329.792 193.284 332.25 190.826 335.271 190.826H338.442C339.191 190.826 339.906 190.979 340.557 191.252C338.166 192.302 336.491 194.689 336.491 197.462C336.491 197.466 336.492 197.47 336.492 197.474V197.474ZM315.054 197.503C313.934 197.503 313.027 196.596 313.027 195.476V160.139L321.916 197.503H315.054ZM311.027 194.503C311.027 196.16 309.684 197.503 308.027 197.503H288.296C286.639 197.503 285.296 196.16 285.296 194.503V140.017C285.296 138.912 286.191 138.017 287.296 138.017H309.027C310.131 138.017 311.027 138.912 311.027 140.017V194.503ZM277.916 134.015H276.28H274.298H272.663H269.631H267.996H261.754H254.766C253.916 134.015 253.224 133.33 253.224 132.487V130.719V129.093V126.654V125.028V122.046V120.42V117.981V116.355V114.794C253.224 113.952 253.916 113.266 254.766 113.266H261.754H329.626C329.924 113.266 330.213 113.351 330.462 113.51L334.912 116.355L337.456 117.981L344.299 122.357C344.748 122.644 345.005 123.111 345.005 123.641C345.005 124.17 344.748 124.637 344.299 124.924L344.138 125.028L341.594 126.654L332.604 132.402L330.463 133.771C330.212 133.931 329.923 134.015 329.626 134.015H298.718H289.098H287.463H285.48H283.845H277.916ZM283.296 195.476C283.296 196.707 282.198 197.682 280.929 197.476C279.932 197.314 279.242 196.377 279.242 195.367V194.164C279.242 193.611 278.794 193.164 278.242 193.164C277.69 193.164 277.242 193.611 277.242 194.164V195.476C277.242 196.596 276.334 197.503 275.215 197.503H251.583V196.526C251.583 192.756 248.526 189.699 244.755 189.699H243.062L255.835 136.015H278.296C281.057 136.015 283.296 138.254 283.296 141.015V195.476ZM249.583 197.503L237.076 197.553V196.526C237.076 193.864 239.241 191.699 241.902 191.699H244.755C247.417 191.699 249.583 193.864 249.583 196.526V197.503ZM264.044 100.86H266.388H280.296C281.953 100.86 283.296 102.203 283.296 103.86V111.266H261.754H261.74L264.044 100.86ZM311.027 104.86V111.266H285.296V104.86C285.296 102.651 287.087 100.86 289.296 100.86H307.027C309.236 100.86 311.027 102.651 311.027 104.86ZM260.035 98.86C259.738 98.86 259.449 98.775 259.199 98.616L253.617 95.047L252.245 94.17L245.362 89.769C245.231 89.685 245.122 89.582 245.025 89.471C244.791 89.2 244.656 88.86 244.656 88.485C244.656 88.256 244.713 88.042 244.805 87.845C244.924 87.588 245.108 87.364 245.362 87.201L255.377 80.798L257.921 79.172L259.199 78.355C259.448 78.195 259.737 78.111 260.035 78.111H266.388H334.896C335.746 78.111 336.437 78.796 336.437 79.638V83.779V85.405V91.153V92.779V95.493V97.12V97.332C336.437 98.174 335.746 98.86 334.896 98.86H294.233H291.033H277.891H274.684H266.388H260.035ZM270.674 73.648L280.588 31.975C280.833 30.95 282.291 30.95 282.534 31.975L288.63 57.597C285.498 58.376 283.296 59.614 283.296 61.367V73.111C283.296 74.768 281.953 76.111 280.296 76.111H272.62C271.328 76.111 270.375 74.905 270.674 73.648V73.648ZM298.161 58.586C306.519 58.586 311.027 60.56 311.027 61.367C311.027 61.647 309.934 62.645 306.415 63.385C305.913 63.49 305.595 63.956 305.641 64.454C305.644 64.493 305.633 64.53 305.642 64.569C305.741 65.04 306.158 65.342 306.62 65.343C306.689 65.343 306.756 65.357 306.826 65.342C307.443 65.212 308 65.068 308.527 64.917C309.531 64.628 310.358 64.3 311.027 63.936V72.109C311.027 73.214 310.131 74.109 309.027 74.109H287.296C286.191 74.109 285.296 73.214 285.296 72.109V63.928C285.66 64.128 286.08 64.309 286.523 64.482C287.102 64.706 287.74 64.908 288.429 65.086C290.211 65.547 292.308 65.853 294.492 66.013C295.124 66.059 295.76 66.093 296.399 66.114C296.987 66.135 297.576 66.149 298.161 66.149C298.713 66.149 299.161 65.701 299.161 65.149C299.161 65.116 299.145 65.089 299.143 65.058C299.094 64.55 298.681 64.149 298.161 64.149C289.804 64.149 285.296 62.174 285.296 61.367C285.296 60.56 289.804 58.586 298.161 58.586V58.586ZM338.073 78.111H341.249C342.099 78.111 342.791 78.796 342.791 79.638V97.332C342.791 98.174 342.099 98.86 341.249 98.86H338.073C338.299 98.396 338.437 97.882 338.437 97.332V79.638C338.437 79.089 338.299 78.575 338.073 78.111ZM336.616 113.266C336.913 113.266 337.202 113.351 337.451 113.51L351.288 122.357C351.736 122.644 351.994 123.111 351.994 123.641C351.994 124.17 351.736 124.637 351.288 124.924L337.451 133.771C337.202 133.931 336.913 134.015 336.616 134.015H333.793L345.376 126.609C346.396 125.958 347.005 124.848 347.005 123.641C347.005 122.434 346.396 121.324 345.376 120.672L333.794 113.266H336.616ZM196.179 197.503H196.049C194.662 197.503 193.696 196.125 194.169 194.821L194.711 193.327C194.899 192.808 194.631 192.234 194.112 192.046C193.595 191.861 193.02 192.127 192.831 192.646L191.548 196.185C191.261 196.976 190.51 197.503 189.667 197.503H186.941C187.301 196.813 187.524 196.041 187.524 195.21V185.78C187.524 185.056 187.912 184.38 188.551 184.04C190.954 182.76 192.894 180.729 194.077 178.267C194.093 178.232 194.11 178.198 194.126 178.164C194.244 177.914 194.354 177.661 194.456 177.403C194.482 177.336 194.504 177.268 194.53 177.2C194.671 176.821 194.794 176.435 194.899 176.04C194.946 175.864 194.996 175.69 195.035 175.512C195.071 175.349 195.099 175.185 195.128 175.021C195.171 174.789 195.206 174.557 195.235 174.322C195.252 174.187 195.27 174.052 195.282 173.916C195.316 173.537 195.34 173.155 195.34 172.77V157.974C195.34 155.765 197.131 153.974 199.34 153.974H205.107C207.371 153.974 209.533 153.556 211.548 152.826L202.016 192.892C201.373 195.595 198.958 197.503 196.179 197.503V197.503ZM185.524 183.827V195.21C185.524 196.867 184.181 198.21 182.524 198.21H179.945C178.288 198.21 176.945 196.867 176.945 195.21V185.524C176.945 184.42 176.049 183.524 174.945 183.524H163.028C161.923 183.524 161.028 184.42 161.028 185.524V195.21C161.028 196.867 159.685 198.21 158.028 198.21H155.448C153.792 198.21 152.448 196.867 152.448 195.21V184.524C152.448 183.958 151.98 183.528 151.414 183.524C148.74 183.506 146.571 181.325 146.571 178.647V164.541C146.571 163.989 146.123 163.541 145.571 163.541C145.019 163.541 144.571 163.989 144.571 164.541V178.647C144.571 180.553 145.353 182.277 146.609 183.524H101.124C99.4665 183.524 98.1235 184.867 98.1235 186.524V195.21C98.1235 196.867 96.7805 198.21 95.1235 198.21H92.5435C90.8875 198.21 89.5435 196.867 89.5435 195.21V145.847C89.5435 136.662 96.9905 129.215 106.177 129.215H112.705C113.589 129.215 114.408 129.623 114.996 130.283C116.61 132.096 118.873 133.318 121.416 133.585V134.974C121.416 145.468 129.922 153.974 140.416 153.974H145.571H191.34C192.444 153.974 193.34 154.87 193.34 155.974V172.77C193.34 177.273 190.477 181.33 186.215 182.875C185.807 183.023 185.524 183.393 185.524 183.827V183.827ZM162.445 197.503C162.805 196.813 163.028 196.041 163.028 195.21V187.524C163.028 186.42 163.923 185.524 165.028 185.524H172.945C174.049 185.524 174.945 186.42 174.945 187.524V195.21C174.945 196.041 175.168 196.813 175.528 197.503H162.445ZM142.477 193.66L140.542 185.524H148.448C149.553 185.524 150.448 186.42 150.448 187.524V195.21C150.448 196.041 150.671 196.813 151.031 197.503H147.34C145.025 197.503 143.013 195.913 142.477 193.66V193.66ZM131.396 197.503C131.755 196.813 131.979 196.041 131.979 195.21V187.524C131.979 186.42 132.874 185.524 133.979 185.524H138.486L141.336 197.503H131.396ZM129.979 195.21C129.979 196.867 128.635 198.21 126.979 198.21H124.399C122.742 198.21 121.399 196.867 121.399 195.21V186.524C121.399 185.972 121.847 185.524 122.399 185.524H128.979C129.531 185.524 129.979 185.972 129.979 186.524V195.21ZM99.5405 197.503C99.9005 196.813 100.124 196.041 100.124 195.21V188.524C100.124 186.867 101.467 185.524 103.124 185.524H117.399C118.503 185.524 119.399 186.42 119.399 187.524V195.21C119.399 196.041 119.622 196.813 119.982 197.503H99.5405ZM114.464 109.241C114.464 104.822 118.046 101.241 122.464 101.241H137.064C137.617 101.241 138.064 100.793 138.064 100.241C138.064 99.689 137.617 99.241 137.064 99.241H132.524H125.956C124.635 99.241 123.673 97.981 124.021 96.707C125.986 89.494 132.588 84.174 140.416 84.174H144.568H159.184C159.195 84.44 159.233 84.709 159.335 84.975C159.599 85.672 160.106 86.141 160.602 86.562C167.569 92.472 176.405 95.991 186.155 96.738C186.7 96.78 187.253 96.8 187.811 96.8C189.897 96.8 192.051 96.51 194.128 95.945C196.907 95.188 199.391 93.97 201.312 92.421C201.743 92.075 201.81 91.445 201.463 91.015C201.455 91.005 201.442 91.001 201.434 90.991C201.083 90.587 200.477 90.525 200.058 90.864C198.35 92.241 196.118 93.33 193.603 94.015C191.188 94.673 188.666 94.925 186.308 94.744C176.981 94.029 168.54 90.673 161.896 85.036C161.586 84.774 161.3 84.517 161.205 84.265C161.041 83.835 161.429 83.239 161.895 82.953C162.505 82.577 163.31 82.463 164.162 82.343L164.368 82.314C165.594 82.138 166.83 81.902 168.038 81.61C171.566 80.76 174.955 79.437 178.112 77.676C179.062 77.147 179.998 76.573 180.902 76.018C182.646 74.949 184.293 73.939 186.088 73.177C189.427 71.758 193.473 71.809 196.91 73.312L196.979 73.343C199.973 74.663 199.965 78.882 196.988 80.241C193.911 81.646 190.585 82.644 187.094 83.186C186.548 83.271 186.175 83.782 186.259 84.328C186.336 84.822 186.762 85.174 187.246 85.174C187.297 85.174 187.349 85.17 187.401 85.163C193.084 84.28 198.357 82.243 202.895 79.252C202.904 79.255 202.907 79.256 202.917 79.259C204.188 82.501 204.094 85.419 202.639 87.926C202.371 88.386 202.521 88.965 202.959 89.255C202.975 89.266 202.984 89.283 203.001 89.293C203.479 89.57 204.091 89.408 204.368 88.93C204.649 88.446 204.889 87.946 205.087 87.433C205.855 85.443 207.94 84.295 209.983 84.908C216.987 87.005 222.107 93.496 222.107 101.174V102.774C222.107 103.878 221.211 104.774 220.107 104.774H205.155C204.603 104.774 204.155 105.222 204.155 105.774C204.155 106.326 204.603 106.774 205.155 106.774H223.601C227.025 106.774 229.801 109.55 229.801 112.974V120.774C229.801 130.163 222.189 137.774 212.801 137.774H196.154H193.601C184.212 137.774 176.601 130.163 176.601 120.774V112.974C176.601 109.55 179.376 106.774 182.801 106.774H187.566H193.601C194.153 106.774 194.601 106.326 194.601 105.774C194.601 105.222 194.153 104.774 193.601 104.774H182.801C178.272 104.774 174.601 108.445 174.601 112.974V120.774C174.601 131.268 183.107 139.774 193.601 139.774H212.801C215.388 139.774 217.854 139.253 220.104 138.312C220.896 137.98 221.699 138.689 221.469 139.516C219.478 146.69 212.906 151.974 205.107 151.974H144.569H140.416C135.341 151.974 130.786 149.751 127.671 146.226C123.677 141.705 126.442 134.525 132.41 133.642L132.416 133.641H137.064C137.617 133.641 138.064 133.193 138.064 132.641C138.064 132.088 137.617 131.641 137.064 131.641H122.464C118.046 131.641 114.464 128.059 114.464 123.641V109.241ZM63.5015 197.503H63.2765V190.503V180.503V174.523V161.322C63.4205 161.367 63.5605 161.421 63.7075 161.46C64.5245 161.674 65.3535 161.777 66.1765 161.777H66.2465C69.1665 161.756 71.3865 164.36 70.7105 167.201L63.5015 197.503ZM59.1455 155.37C58.1425 153.31 58.0885 150.921 58.9975 148.818C60.2375 145.949 63.1025 144.083 66.2075 144.083C66.3315 144.083 66.4565 144.086 66.5805 144.092L79.4875 144.715H79.4885C79.8955 144.734 80.0775 145.021 80.1375 145.143C80.1965 145.265 80.3095 145.585 80.0745 145.918L72.6095 156.466C70.7325 159.12 67.3565 160.348 64.2145 159.525C61.9975 158.945 60.1495 157.43 59.1455 155.37V155.37ZM44.4795 197.503H36.6305C35.3385 197.503 34.3865 196.297 34.6855 195.04L39.5825 174.457C39.8265 173.432 41.2845 173.432 41.5275 174.457L46.4255 195.04C46.7245 196.297 45.7715 197.503 44.4795 197.503ZM43.7575 127.4C43.3675 127.01 42.7345 127.01 42.3445 127.401C41.9535 127.792 41.9545 128.425 42.3445 128.815C45.9455 132.417 49.0625 136.372 51.6775 140.598C52.1075 141.294 51.9905 142.199 51.4125 142.778L51.4005 142.791C44.9085 149.282 34.3445 149.283 27.8525 142.791C22.4655 137.404 20.5165 118.953 19.9865 112.45C19.9365 111.834 20.4445 111.327 21.0595 111.377C27.5625 111.905 46.0115 113.854 51.4005 119.242C56.1805 124.022 57.4345 131.006 55.1735 136.949C54.6455 138.34 52.7635 138.539 51.9295 137.305C49.5535 133.787 46.8265 130.469 43.7575 127.4V127.4ZM58.1905 90.918C57.3875 92.226 55.4935 92.205 54.7395 90.867C51.7925 85.633 48.1215 80.764 43.7575 76.4C43.3675 76.01 42.7345 76.01 42.3445 76.401C41.9535 76.792 41.9545 77.425 42.3445 77.815C45.7575 81.228 48.7345 84.959 51.2575 88.937C53.6035 92.635 51.3745 97.501 47.0415 98.138C42.0145 98.876 36.7145 97.319 32.8525 93.457C29.3855 89.99 27.3425 81.113 26.1855 73.492C25.2735 67.489 30.4585 62.334 36.4615 63.246C44.0765 64.403 53.1035 66.286 56.4005 69.909C64.0575 78.327 60.7575 86.74 58.1905 90.918V90.918ZM72.0615 87.637C77.1475 82.551 93.8825 80.529 101.209 79.874C102.45 79.763 103.485 80.798 103.374 82.04C102.719 89.365 100.697 106.099 95.6105 111.185C92.4655 114.33 88.2835 116.062 83.8365 116.062C80.9215 116.062 78.1245 115.313 75.6575 113.911C73.6725 112.783 73.1045 110.145 74.3885 108.258C76.4875 105.172 78.8675 102.248 81.5185 99.517C81.8985 99.125 81.8995 98.504 81.5135 98.118C81.1185 97.724 80.4715 97.725 80.0825 98.125C78.1215 100.147 76.3045 102.272 74.6355 104.488C72.5995 107.19 68.2745 106.232 67.5655 102.923C66.4205 97.581 67.9185 91.78 72.0615 87.637V87.637ZM354.891 166.062C353.32 163.853 351.577 161.745 349.663 159.759C349.275 159.357 348.625 159.357 348.23 159.752V159.753C347.845 160.138 347.847 160.756 348.225 161.149C349.889 162.875 351.881 166.118 353.264 168.544C354.385 170.508 353.659 173.021 351.651 174.064C346.58 176.699 340.169 175.891 335.919 171.641C331.936 167.658 330.264 154.806 329.671 148.534C329.553 147.283 330.597 146.239 331.848 146.357C338.12 146.948 350.97 148.619 354.955 152.604C358.443 156.092 359.604 161.031 358.452 165.493C358.032 167.12 355.865 167.431 354.891 166.062V166.062ZM368.916 135.341C368.991 131.182 370.611 127.047 373.779 123.879C378.864 118.794 395.593 116.772 402.92 116.117C404.164 116.005 405.201 117.042 405.089 118.286C404.435 125.613 402.414 142.34 397.327 147.428C392.315 152.439 384.882 153.577 378.766 150.851C375.853 149.552 374.838 145.93 376.69 143.333C378.585 140.675 380.694 138.144 383.008 135.76C383.389 135.368 383.39 134.747 383.003 134.361V134.36C382.608 133.966 381.961 133.967 381.573 134.367C380.237 135.744 378.969 137.169 377.77 138.638C374.769 142.311 368.831 140.083 368.916 135.341V135.341ZM368.34 159.51C370.006 154.724 375.157 151.93 379.993 153.445C381.799 154.011 383.675 154.296 385.553 154.296C390.329 154.296 395.105 152.478 398.741 148.842C405.824 141.759 407.294 115.999 407.353 114.906C407.368 114.622 407.262 114.345 407.062 114.145C406.861 113.943 406.58 113.84 406.3 113.853C405.208 113.912 379.447 115.383 372.365 122.465C366.573 128.257 365.406 136.935 368.845 143.901C370.178 146.603 370.344 149.73 369.061 152.456C364.947 161.201 362.768 170.813 362.768 180.765V182.253C361.785 178.905 360.479 175.67 358.872 172.577C358.391 171.652 358.415 170.561 358.923 169.65C362.207 163.767 361.363 156.185 356.369 151.19C350.518 145.339 329.347 144.131 328.449 144.082C328.169 144.069 327.889 144.173 327.688 144.374C327.487 144.574 327.381 144.851 327.396 145.135C327.445 146.033 328.654 167.204 334.505 173.055C337.519 176.069 341.478 177.576 345.437 177.576C348.289 177.576 351.14 176.794 353.638 175.231C355.173 174.27 357.2 174.938 357.883 176.614C359.636 180.912 362.336 188.155 362.768 192.923V194.893C362.768 196.334 361.599 197.503 360.158 197.503H358.245C358.245 197.489 358.249 197.476 358.249 197.462C358.249 193.723 355.207 190.68 351.467 190.68H343.354C342.039 189.529 340.323 188.826 338.442 188.826H335.271C331.14 188.826 327.792 192.175 327.792 196.305V197.446C327.792 197.466 327.797 197.483 327.798 197.503H327.795C325.554 197.503 323.606 195.964 323.087 193.783L314.385 157.206C313.482 153.415 313.027 149.53 313.027 145.633V141.015C313.027 138.254 315.266 136.015 318.027 136.015H336.616C337.293 136.015 337.957 135.821 338.528 135.456L352.263 126.675C353.058 126.168 353.681 125.395 353.895 124.477C354.25 122.963 353.618 121.472 352.365 120.672L338.529 111.825C337.958 111.46 337.294 111.266 336.617 111.266H330.687C330.71 111.277 330.49 111.289 330.124 111.301C329.959 111.278 329.793 111.266 329.626 111.266H313.027V103.86C313.027 102.203 314.37 100.86 316.027 100.86H334.896C334.922 100.86 334.947 100.855 334.974 100.854C335.258 100.858 335.594 100.86 336.005 100.86H341.249C343.197 100.86 344.791 99.266 344.791 97.318V79.638C344.791 77.69 343.211 76.111 341.263 76.111H336.006C335.594 76.111 335.26 76.113 334.981 76.117C334.953 76.116 334.925 76.111 334.896 76.111H316.027C314.37 76.111 313.027 74.768 313.027 73.111V61.367C313.027 58.082 305.321 56.586 298.161 56.586C297.299 56.586 296.429 56.607 295.566 56.652C292.66 56.801 290.046 54.907 289.372 52.076L282.534 23.335C282.427 22.884 282.024 22.566 281.562 22.566C281.099 22.566 280.696 22.884 280.589 23.335L268.945 72.276C268.514 74.09 267.13 75.586 265.311 75.991C262.657 76.581 260.15 74.933 259.544 72.425L245.982 16.271C245.875 15.82 245.473 15.503 245.01 15.503C244.547 15.503 244.144 15.82 244.037 16.271L226.405 90.379C226.277 90.917 226.609 91.456 227.146 91.584C227.683 91.713 228.223 91.379 228.351 90.842L242.09 33.089C242.822 30.016 247.197 30.016 247.928 33.089L258.272 76.568L258.155 76.651C258.145 76.658 258.132 76.663 258.122 76.67L244.388 85.45C243.594 85.958 242.971 86.729 242.755 87.647C242.399 89.16 243.032 90.653 244.285 91.454L258.122 100.301C258.139 100.312 258.158 100.317 258.173 100.333C258.584 100.756 259.229 100.859 259.819 100.859L261.989 100.86L260.379 108.131C259.974 109.962 258.35 111.266 256.474 111.266H254.766C254.089 111.266 253.462 111.466 252.924 111.795C251.908 112.416 251.224 113.523 251.224 114.794V132.487C251.224 134.103 252.325 135.453 253.814 135.87L240.992 189.768C237.658 190.215 235.076 193.071 235.076 196.526V197.503H202.974L213.84 151.83C219.628 148.818 223.665 142.918 224.052 136.049C228.741 132.586 231.801 127.037 231.801 120.774V112.974C231.801 108.624 228.392 105.064 224.107 104.8V104.36V101.174C224.107 91.795 217.271 83.999 208.322 82.468C206.865 82.219 205.63 81.196 205.21 79.778C205.135 79.522 205.05 79.264 204.958 79.005C204.844 78.69 204.708 78.386 204.57 78.083C206.898 76.353 209.005 74.358 210.834 72.119C211.183 71.691 211.119 71.061 210.691 70.711C210.264 70.362 209.633 70.426 209.284 70.854C208.512 71.799 207.688 72.7 206.815 73.552C205.326 75.007 202.945 75.181 201.383 73.804C200.322 72.868 199.089 72.083 197.711 71.48C193.78 69.76 189.142 69.706 185.306 71.336C183.375 72.156 181.586 73.253 179.857 74.313C178.958 74.865 178.058 75.417 177.138 75.929C174.14 77.602 170.92 78.859 167.569 79.666C166.422 79.943 165.25 80.168 164.085 80.334L163.882 80.363C162.912 80.5 161.812 80.655 160.846 81.25C160.474 81.479 160.133 81.801 159.852 82.174H140.416C130.575 82.174 122.461 89.694 121.511 99.289C121.023 99.336 120.549 99.425 120.084 99.539L111.847 64.917C111.718 64.379 111.178 64.047 110.643 64.175C110.105 64.303 109.773 64.842 109.901 65.379L118.189 100.214C114.811 101.821 112.464 105.257 112.464 109.241V123.641C112.464 123.795 112.468 123.949 112.475 124.101C112.556 125.801 111.187 127.215 109.484 127.215H106.177C95.8855 127.215 87.5435 135.557 87.5435 145.847V195.21C87.5435 196.041 87.7675 196.813 88.1265 197.503H65.5575L75.2545 156.742C75.3855 156.194 75.6195 155.676 75.9455 155.215L81.6265 147.187C82.0875 146.535 82.3235 145.722 82.1635 144.94C81.9025 143.662 80.8235 142.777 79.5845 142.717L77.5865 142.62L66.6775 142.094C66.3065 142.077 65.9375 142.081 65.5735 142.106C64.3585 142.189 63.3695 141.167 63.4535 139.952C64.1115 130.471 66.8105 121.395 71.3425 113.229C73.1335 114.852 75.1855 116.092 77.4005 116.908C80.1955 117.936 81.7095 120.973 81.0205 123.871L78.5825 134.118C78.4545 134.655 78.7865 135.195 79.3235 135.322C79.4005 135.341 79.4785 135.35 79.5555 135.35C80.0085 135.35 80.4185 135.041 80.5275 134.581L84.4645 118.031C89.2095 117.875 93.6515 115.973 97.0245 112.599C104.107 105.517 105.578 79.756 105.637 78.664C105.652 78.38 105.546 78.103 105.346 77.902C105.145 77.701 104.87 77.592 104.584 77.611C104.137 77.635 99.5615 77.896 93.8275 78.68L102.474 42.339C102.718 41.315 104.176 41.315 104.419 42.339L105.667 47.579C105.794 48.116 106.333 48.448 106.87 48.32H106.871C107.408 48.193 107.74 47.653 107.612 47.116L104.419 33.699C104.313 33.248 103.91 32.93 103.447 32.93C102.984 32.93 102.581 33.248 102.474 33.699L93.2085 72.641C92.3155 76.396 89.3385 79.296 85.5625 80.102C79.4475 81.408 73.5165 83.355 70.6475 86.223C63.6485 93.223 63.4065 104.435 69.8815 111.751C66.9525 116.919 64.7225 122.442 63.2765 128.212V123.523C63.2765 116.106 60.1755 103.597 58.6455 97.882C58.1725 96.111 58.5465 94.232 59.6365 92.756C65.0245 85.462 64.4175 75.099 57.8145 68.495C50.7315 61.413 24.9715 59.942 23.8785 59.883C23.5925 59.866 23.3175 59.974 23.1175 60.174C22.9165 60.375 22.8105 60.652 22.8255 60.936C22.8845 62.028 24.3555 87.789 31.4375 94.871C35.0745 98.507 39.8495 100.325 44.6255 100.325C46.8815 100.325 49.1345 99.912 51.2675 99.095C53.8295 98.113 56.7295 99.496 57.6385 102.085C60.0265 108.882 61.2765 116.105 61.2765 123.523V142.343C61.2765 142.974 60.9835 143.574 60.4705 143.941C60.0615 144.233 59.6735 144.557 59.3115 144.908C58.3275 145.866 56.7245 145.639 56.1025 144.413C55.9385 144.092 55.7735 143.772 55.6045 143.454C55.1115 142.521 55.1255 141.407 55.6635 140.499C59.8925 133.348 58.9535 123.967 52.8145 117.828C45.7315 110.746 19.9715 109.275 18.8785 109.216C18.5955 109.204 18.3185 109.306 18.1175 109.507C17.9165 109.708 17.8105 109.985 17.8255 110.269C17.8845 111.361 19.3555 137.122 26.4375 144.205C30.0745 147.841 34.8495 149.659 39.6255 149.659C44.4015 149.659 49.1785 147.84 52.8145 144.205C53.0215 143.997 53.2025 143.774 53.3985 143.559C54.4745 145.524 55.4475 147.54 56.3095 149.603C56.4515 149.942 56.4825 150.313 56.4355 150.676C56.1925 152.563 56.4965 154.498 57.3485 156.246C57.8685 157.315 58.5775 158.257 59.4175 159.057C60.6405 164.059 61.2765 169.242 61.2765 174.523V180.503V190.503V197.503H60.7545C59.7885 197.503 58.9595 196.812 58.7875 195.859L58.2335 192.808C58.1355 192.265 57.6135 191.904 57.0715 192.002C56.5285 192.101 56.1675 192.621 56.2665 193.165L56.6245 195.147C56.8475 196.374 55.9045 197.503 54.6575 197.503H52.2265C50.3745 197.503 48.7645 196.231 48.3345 194.429L41.5275 165.816C41.4205 165.365 41.0185 165.047 40.5555 165.047C40.0925 165.047 39.6895 165.365 39.5825 165.816L32.7745 194.429C32.3465 196.231 30.7365 197.503 28.8835 197.503H25.7925C25.1245 197.503 24.5835 196.961 24.5835 196.293V195.826C24.5835 195.274 24.1355 194.826 23.5835 194.826C23.0315 194.826 22.5835 195.274 22.5835 195.826V196.293C22.5835 196.961 22.0415 197.503 21.3735 197.503C20.7055 197.503 20.1645 196.961 20.1645 196.293V192.986C20.1645 192.434 19.7165 191.986 19.1645 191.986C18.6115 191.986 18.1645 192.434 18.1645 192.986V196.293C18.1645 196.961 17.6225 197.503 16.9545 197.503H0.999512C0.447512 197.503 -0.000488281 197.95 -0.000488281 198.503C-0.000488281 199.056 0.447512 199.503 0.999512 199.503H64.2915H288.311H323.182H329.848H338.532H343.865H356.208H388.817C389.37 199.503 389.817 199.056 389.817 198.503C389.817 197.95 389.37 197.503 388.817 197.503H376.55C375.761 197.503 375.176 196.769 375.354 196L375.725 194.389C375.849 193.851 375.513 193.314 374.975 193.19C374.439 193.067 373.9 193.4 373.776 193.94L373.174 196.551C373.045 197.108 372.549 197.503 371.978 197.503C371.3 197.503 370.75 196.953 370.75 196.275V192.982C370.75 192.429 370.303 191.982 369.75 191.982C369.198 191.982 368.75 192.429 368.75 192.982V196.275C368.75 196.953 368.201 197.503 367.523 197.503H367.52C366.127 197.503 364.989 196.408 364.918 195.017C364.881 194.295 364.831 193.576 364.768 192.86V180.765C364.768 173.414 365.994 166.253 368.34 159.51V159.51ZM394.98 197.503H393.346C392.794 197.503 392.346 197.95 392.346 198.503C392.346 199.056 392.794 199.503 393.346 199.503H394.98C395.532 199.503 395.98 199.056 395.98 198.503C395.98 197.95 395.532 197.503 394.98 197.503Z" fill="#0E0F10"/>
<path fill-rule="evenodd" clip-rule="evenodd" d="M145.436 50.8511C144.91 49.5711 146.518 48.5031 147.574 49.3981C151.568 52.7871 155.909 53.6681 156.179 53.7191C156.241 53.7311 156.304 53.7361 156.366 53.7361C156.836 53.7361 157.254 53.4031 157.346 52.9241C157.45 52.3821 157.094 51.8591 156.553 51.7541C156.487 51.7421 151.62 50.7511 147.724 46.7991C147.061 46.1271 147.289 44.9641 148.17 44.6251C148.217 44.6071 148.265 44.5891 148.313 44.5731C148.879 44.3751 149.508 44.2791 150.168 44.2791C151.506 44.2791 152.972 44.6761 154.296 45.4311C156.526 46.7031 157.916 48.6431 159.388 50.6971C160.014 51.5711 160.662 52.4741 161.39 53.3471L161.509 53.4921C161.9 53.9661 162.816 55.0771 163.633 55.8381C159.655 57.0491 155.045 56.7791 150.652 55.0801C148.071 54.0811 146.183 52.5701 145.471 50.9341C145.459 50.9061 145.448 50.8781 145.436 50.8511V50.8511ZM142.976 41.0341C142.465 41.2421 142.219 41.8261 142.428 42.3371C142.922 43.5481 143.513 44.6301 144.163 45.6041C143.981 45.9191 143.812 46.2471 143.67 46.6001C142.95 48.3981 142.938 50.1241 143.637 51.7311C144.901 54.6381 148.123 56.2451 149.931 56.9451C152.744 58.0341 155.648 58.5841 158.457 58.5841C160.447 58.5841 162.39 58.3081 164.216 57.7511C164.87 57.5521 165.365 57.0401 165.539 56.3821C165.712 55.7281 165.537 55.0431 165.071 54.5511C164.316 53.7521 163.398 52.6391 163.052 52.2191L162.926 52.0671V52.0661C162.245 51.2501 161.619 50.3771 161.014 49.5321C159.481 47.3931 157.897 45.1821 155.287 43.6931C152.786 42.2661 149.932 41.8901 147.654 42.6841C146.84 42.9681 146.123 43.3991 145.502 43.9511C145.052 43.2221 144.632 42.4451 144.28 41.5811C144.071 41.0701 143.489 40.8221 142.976 41.0341V41.0341ZM210.495 16.2471C210.506 16.2431 210.514 16.2341 210.524 16.2291C211.023 16.0331 211.285 15.4801 211.104 14.9711C209.534 10.5291 209.401 5.91314 210.643 1.98614C211.464 2.81014 212.547 3.75814 213.009 4.16314L213.153 4.28914C214.004 5.04214 214.888 5.71614 215.742 6.36714C217.752 7.89914 219.651 9.34614 220.857 11.6141C221.925 13.6221 222.186 15.9241 221.538 17.6201L221.529 17.6431C221.163 18.5921 219.942 18.8081 219.241 18.0721C217.668 16.4231 216.605 14.6461 215.917 13.1481C215.686 12.6461 215.092 12.4261 214.591 12.6571C214.089 12.8881 213.869 13.4811 214.099 13.9831C214.797 15.5011 215.829 17.2821 217.331 18.9781C217.92 19.6441 217.45 20.7251 216.563 20.6621C215.831 20.6091 215.141 20.3631 214.48 19.9231C214.044 19.6321 213.474 19.7391 213.153 20.1401C213.135 20.1631 213.109 20.1761 213.093 20.2001C212.787 20.6601 212.911 21.2801 213.37 21.5871C214.448 22.3051 215.632 22.6671 216.874 22.6661C217.687 22.6661 218.525 22.5121 219.374 22.2001C219.734 22.0681 220.069 21.9071 220.391 21.7331C221.343 22.4141 222.404 23.0391 223.599 23.5681C223.73 23.6261 223.868 23.6541 224.003 23.6541C224.387 23.6541 224.752 23.4321 224.918 23.0591C225.141 22.5541 224.913 21.9631 224.408 21.7391C223.553 21.3611 222.795 20.9141 222.079 20.4431C222.647 19.8401 223.099 19.1371 223.406 18.3331C224.267 16.0801 223.975 13.2171 222.622 10.6741C221.211 8.02114 219.047 6.37214 216.954 4.77614C216.128 4.14714 215.275 3.49714 214.479 2.79214L214.327 2.65814C213.918 2.30014 212.833 1.35014 212.059 0.574137C211.58 0.094137 210.903 -0.103863 210.243 0.053137C209.58 0.207137 209.054 0.686137 208.835 1.33414C207.364 5.69614 207.5 10.7761 209.219 15.6381C209.403 16.1581 209.972 16.4331 210.495 16.2471V16.2471ZM138.554 22.6705H140.064V24.1805C140.064 24.7325 140.512 25.1805 141.064 25.1805C141.617 25.1805 142.064 24.7325 142.064 24.1805V22.6705H143.574C144.126 22.6705 144.574 22.2225 144.574 21.6705C144.574 21.1185 144.126 20.6705 143.574 20.6705H142.064V19.1605C142.064 18.6085 141.617 18.1605 141.064 18.1605C140.512 18.1605 140.064 18.6085 140.064 19.1605V20.6705H138.554C138.002 20.6705 137.554 21.1185 137.554 21.6705C137.554 22.2225 138.002 22.6705 138.554 22.6705ZM204.225 53.7364H205.735V55.2464C205.735 55.7984 206.183 56.2464 206.735 56.2464C207.288 56.2464 207.735 55.7984 207.735 55.2464V53.7364H209.245C209.797 53.7364 210.245 53.2884 210.245 52.7364C210.245 52.1844 209.797 51.7364 209.245 51.7364H207.735V50.2264C207.735 49.6744 207.288 49.2264 206.735 49.2264C206.183 49.2264 205.735 49.6744 205.735 50.2264V51.7364H204.225C203.673 51.7364 203.225 52.1844 203.225 52.7364C203.225 53.2884 203.673 53.7364 204.225 53.7364ZM347.669 34.9312H349.179V36.4412C349.179 36.9932 349.627 37.4412 350.179 37.4412C350.731 37.4412 351.179 36.9932 351.179 36.4412V34.9312H352.688C353.24 34.9312 353.688 34.4832 353.688 33.9312C353.688 33.3792 353.24 32.9312 352.688 32.9312H351.179V31.4212C351.179 30.8692 350.731 30.4212 350.179 30.4212C349.627 30.4212 349.179 30.8692 349.179 31.4212V32.9312H347.669C347.117 32.9312 346.669 33.3792 346.669 33.9312C346.669 34.4832 347.117 34.9312 347.669 34.9312ZM182.885 26.3638C183.141 26.3638 183.397 26.2658 183.592 26.0708L184.775 24.8868C185.166 24.4968 185.166 23.8638 184.775 23.4728C184.385 23.0828 183.751 23.0828 183.361 23.4728L182.178 24.6568C181.787 25.0478 181.787 25.6808 182.178 26.0708C182.373 26.2658 182.629 26.3638 182.885 26.3638ZM176.968 32.2799C177.224 32.2799 177.48 32.1819 177.675 31.9869L178.859 30.8039C179.249 30.4139 179.249 29.7799 178.859 29.3899C178.468 28.9989 177.835 28.9989 177.445 29.3899L176.261 30.5729C175.87 30.9629 175.87 31.5959 176.261 31.9869C176.456 32.1819 176.712 32.2799 176.968 32.2799ZM183.361 31.9869C183.556 32.1819 183.812 32.2799 184.068 32.2799C184.324 32.2799 184.58 32.1819 184.775 31.9869C185.166 31.5959 185.166 30.9639 184.775 30.5729L183.592 29.3899C183.201 28.9989 182.569 28.9989 182.178 29.3899C181.787 29.7799 181.787 30.4129 182.178 30.8039L183.361 31.9869ZM177.445 26.0709C177.64 26.2659 177.896 26.3639 178.152 26.3639C178.408 26.3639 178.664 26.2659 178.859 26.0709C179.25 25.6799 179.25 25.0479 178.859 24.6569L177.675 23.4729C177.285 23.0829 176.652 23.0829 176.261 23.4729C175.871 23.8639 175.871 24.4969 176.261 24.8869L177.445 26.0709ZM161.799 120.441C164.274 120.441 166.299 118.416 166.299 115.941C166.299 113.466 164.274 111.441 161.799 111.441C159.324 111.441 157.299 113.466 157.299 115.941C157.299 118.416 159.324 120.441 161.799 120.441Z" fill="#0E0F10"/>
</svg>
