<svg width="256" height="130" viewBox="0 0 256 130" fill="none" xmlns="http://www.w3.org/2000/svg">
<path fill-rule="evenodd" clip-rule="evenodd" d="M189.471 35.6581V35.6651C189.471 43.2771 183.301 49.4471 175.689 49.4471L147.655 49.4481C142.561 49.4481 138.432 53.5761 138.432 58.6701C138.432 63.7631 142.556 67.8931 147.649 67.8931H225.768C241.265 67.8931 253.825 80.4561 253.825 95.9521V95.9541C253.825 111.451 241.263 124.014 225.766 124.014H30.0063C21.9983 124.014 15.5073 117.522 15.5073 109.514C15.5073 101.507 21.9983 95.0151 30.0063 95.0151H35.2493C39.8613 95.0151 43.6003 91.2761 43.6003 86.6641C43.6003 82.0521 39.8693 78.3131 35.2573 78.3131H30.2233C14.6383 78.3131 2.00031 65.6791 2.00031 50.0951C2.00031 34.5101 14.6343 21.8761 30.2183 21.8761H175.724C183.322 21.8961 189.471 28.0601 189.471 35.6581Z" fill="#141414" fill-opacity="0.3"/>
<path fill-rule="evenodd" clip-rule="evenodd" d="M196.936 111.409C196.428 105.548 191.495 100.934 185.505 100.934H182.158C181.606 100.934 181.158 100.486 181.158 99.9335V98.4845C181.158 86.0575 171.048 75.9475 158.621 75.9475H157.627L144.427 112.409H154.166V111.409H196.936ZM211.93 15.8382H219.27C219.272 15.7552 219.273 15.6712 219.273 15.5882C219.273 8.64724 213.626 3.00024 206.685 3.00024C201.876 3.00024 197.556 5.67824 195.411 9.98924C195.272 10.2682 195.011 10.4662 194.705 10.5262C194.4 10.5862 194.082 10.4982 193.85 10.2902C191.709 8.38024 188.951 7.32924 186.083 7.32924C180.79 7.32924 176.24 10.8422 174.846 15.8382H204.935C205.488 15.8382 205.935 16.2862 205.935 16.8382H206.935H210.93C210.93 16.2862 211.378 15.8382 211.93 15.8382Z" fill="#1C1E21"/>
<path fill-rule="evenodd" clip-rule="evenodd" d="M66.702 35.397H80.465V29.516H66.702V35.397Z" fill="#1C1E21"/>
<path fill-rule="evenodd" clip-rule="evenodd" d="M91.3473 51.3798C93.8423 49.5158 95.4623 46.8508 96.0073 43.8688H66.7893C71.1913 46.8968 74.6423 51.2048 76.6033 56.2548C85.0143 55.8358 89.4463 53.7508 91.1243 52.7368C90.8273 52.2968 90.9183 51.6998 91.3473 51.3798Z" fill="#1C1E21"/>
<path fill-rule="evenodd" clip-rule="evenodd" d="M96.2272 36.3973C96.2272 35.8453 96.6752 35.3973 97.2272 35.3973H101.481V32.1433H90.3462V36.3973C90.3462 36.9493 89.8982 37.3973 89.3462 37.3973H57.8212C57.2682 37.3973 56.8212 36.9493 56.8212 36.3973V32.1433H48.3132V39.3913C49.4182 39.2513 50.5422 39.1713 51.6852 39.1713C55.8882 39.1713 59.8652 40.1523 63.4072 41.8893C63.4432 41.8853 63.4742 41.8683 63.5122 41.8683H96.0102C96.0822 41.8683 96.1442 41.8953 96.2122 41.9093C96.2142 41.8223 96.2272 41.7383 96.2272 41.6513V36.3973ZM30.7999 107.015H54.9909C54.8969 102.942 51.5529 99.6575 47.4579 99.6575C46.9049 99.6575 46.4539 99.2095 46.4539 98.6575V96.6895C46.4539 89.5365 40.6339 83.7165 33.4809 83.7165C26.3269 83.7165 20.5079 89.5365 20.5079 96.6895C20.5079 97.2425 20.0599 97.6895 19.5079 97.6895C19.3069 97.6895 19.1209 97.6305 18.9649 97.5295H13.9509C11.2179 97.5295 8.68492 98.6285 6.81892 100.625C5.16592 102.391 4.24992 104.633 4.18692 107.015H8.08292C8.63492 107.015 9.08192 107.462 9.08292 108.015H29.7999C29.7999 107.462 30.2479 107.015 30.7999 107.015Z" fill="#26282C"/>
<path fill-rule="evenodd" clip-rule="evenodd" d="M93.066 101.743V118.633L109.384 107.937L93.066 101.743Z" fill="#26282C"/>
<path fill-rule="evenodd" clip-rule="evenodd" d="M161.634 57.7079L119.455 83.8469C119.291 83.9489 119.109 83.9969 118.929 83.9969C118.594 83.9969 118.267 83.8289 118.078 83.5239C117.787 83.0539 117.932 82.4379 118.401 82.1469L156.68 58.4249L59.5089 86.8659L91.3459 98.9499C91.4029 98.8909 91.4679 98.8369 91.5389 98.7929L100.428 93.2839C100.898 92.9929 101.514 93.1389 101.805 93.6069C102.096 94.0769 101.951 94.6929 101.482 94.9839L93.6629 99.8299L135.448 115.69L141.427 117.96L161.634 57.7079Z" fill="#2F3237"/>
<path fill-rule="evenodd" clip-rule="evenodd" d="M149.616 60.4925C150.733 60.1655 151.413 61.6885 150.424 62.3025L118.401 82.1465C117.932 82.4375 117.787 83.0545 118.078 83.5235C118.267 83.8285 118.594 83.9965 118.929 83.9965C119.109 83.9965 119.291 83.9485 119.455 83.8465L159.278 59.1685C160.074 58.6755 161.051 59.4485 160.753 60.3365L143.411 112.044C142.328 115.273 138.778 116.954 135.594 115.746L135.448 115.691L100.879 102.569C97.9258 101.448 97.5388 97.4276 100.224 95.7635L101.482 94.9845C101.951 94.6935 102.096 94.0765 101.805 93.6075C101.514 93.1385 100.898 92.9925 100.429 93.2845C100.429 93.2845 98.9058 94.2295 97.1068 95.3485C93.4658 97.6145 88.9758 98.0505 84.9678 96.5295L62.2948 87.9225C61.3978 87.5825 61.4478 86.2975 62.3678 86.0285L149.616 60.4925ZM93.0658 114.931V104.641C93.0658 103.242 94.4668 102.275 95.7758 102.772L109.385 107.937L96.1618 116.603C94.8318 117.475 93.0658 116.521 93.0658 114.931ZM56.0868 85.7835C55.6738 85.9045 55.3848 86.2745 55.3678 86.7035C55.3508 87.1335 55.6108 87.5255 56.0118 87.6785L89.7758 100.494C90.5528 100.789 91.0658 101.533 91.0658 102.364V120.484C91.0658 120.851 91.2678 121.189 91.5908 121.364C91.7398 121.444 91.9028 121.484 92.0658 121.484C92.2578 121.484 92.4488 121.429 92.6148 121.32L106.579 112.168C109.793 110.061 113.822 109.621 117.415 110.985L141.69 120.2C141.804 120.243 141.925 120.264 142.045 120.264C142.191 120.264 142.338 120.232 142.472 120.168C142.719 120.052 142.907 119.84 142.993 119.582L146.083 110.369L156.687 81.2575C157.943 77.8095 161.667 75.8495 165.178 76.9155C174.427 79.7235 181.158 88.3185 181.158 98.4845C181.158 99.8365 182.254 100.934 183.607 100.934H185.505C191.079 100.934 195.737 104.929 196.767 110.206C196.888 110.827 196.412 111.409 195.78 111.409H155.166C154.614 111.409 154.166 111.856 154.166 112.409C154.166 112.961 154.614 113.409 155.166 113.409L197.979 113.408C198.516 113.408 198.977 112.983 198.978 112.445C198.999 104.998 192.947 98.9335 185.505 98.9335C184.158 98.6755 183.179 97.5446 183.051 96.1796C182.138 86.3825 175.466 78.2575 166.453 75.2235C162.361 73.8465 160.082 69.3465 161.39 65.2305L164.412 55.7155C164.419 55.6975 164.418 55.6775 164.423 55.6595C164.431 55.6285 164.434 55.5995 164.44 55.5695C164.455 55.4785 164.459 55.3895 164.45 55.2995C164.448 55.2715 164.448 55.2455 164.443 55.2185C164.422 55.1045 164.382 54.9955 164.323 54.8945C164.319 54.8865 164.319 54.8785 164.314 54.8705C164.304 54.8545 164.288 54.8465 164.277 54.8315C164.247 54.7885 164.222 54.7425 164.185 54.7045C164.154 54.6725 164.116 54.6505 164.081 54.6225C164.057 54.6035 164.036 54.5835 164.011 54.5675C163.915 54.5045 163.814 54.4565 163.705 54.4295C163.686 54.4255 163.668 54.4265 163.649 54.4225C163.554 54.4045 163.459 54.4015 163.362 54.4115C163.329 54.4145 163.299 54.4185 163.267 54.4255C163.24 54.4305 163.211 54.4295 163.183 54.4375L56.0868 85.7835Z" fill="#0E0F10"/>
<path fill-rule="evenodd" clip-rule="evenodd" d="M49.3131 32.1434H55.8211C56.3731 32.1434 56.8211 32.5904 56.8211 33.1434V36.3974C56.8211 36.9494 57.2691 37.3974 57.8211 37.3974H89.3461C89.8981 37.3974 90.3461 36.9494 90.3461 36.3974V33.1434C90.3461 32.5904 90.7931 32.1434 91.3461 32.1434H100.481C101.033 32.1434 101.481 32.5904 101.481 33.1434V34.3974C101.481 34.9494 101.033 35.3974 100.481 35.3974H97.2271C96.6751 35.3974 96.2271 35.8444 96.2271 36.3974V41.6514C96.2271 41.7384 96.2141 41.8224 96.2121 41.9094C96.1451 41.8944 63.4431 41.8854 63.4071 41.8894C59.8651 40.1524 55.8881 39.1714 51.6851 39.1714C50.5421 39.1714 49.4181 39.2514 48.3131 39.3914V33.1434C48.3131 32.5904 48.7611 32.1434 49.3131 32.1434ZM67.7021 29.5164H79.4651C80.0171 29.5164 80.4651 29.9634 80.4651 30.5164V34.3974C80.4651 34.9494 80.0171 35.3974 79.4651 35.3974H67.7021C67.1501 35.3974 66.7021 34.9494 66.7021 34.3974V30.5164C66.7021 29.9634 67.1501 29.5164 67.7021 29.5164ZM56.9931 108.014V107.192C56.9931 102.272 53.2471 98.2104 48.4541 97.7085V96.6894C48.4541 90.0124 44.0591 84.3455 38.0111 82.4214C36.5811 81.9654 35.0601 81.7164 33.4801 81.7164C29.5411 81.7164 25.9521 83.2474 23.2761 85.7434H14.8691C12.8641 85.7434 11.4111 83.8144 11.9891 81.8944C13.2781 77.6204 16.7491 71.2234 26.0121 70.5154C26.5421 70.4744 26.9601 70.0484 26.9601 69.5174V66.4574C26.9601 52.6254 38.2791 40.9404 52.1091 41.1744C65.5471 41.4014 76.4091 52.4044 76.4091 65.8954C76.4091 66.4484 76.8571 66.8954 77.4091 66.8954C77.6871 66.8954 82.7701 66.6014 82.7701 66.6014C84.7791 66.6014 86.7371 66.9285 88.6171 67.5424C89.0401 67.6814 89.4631 67.8185 89.8771 67.9874C90.3911 68.1964 90.9721 67.9494 91.1811 67.4394C91.3901 66.9274 91.1441 66.3444 90.6331 66.1354C88.1371 65.1174 85.4911 64.6014 82.7701 64.6014H80.2131C79.2001 64.6004 78.3511 63.8414 78.2341 62.8354C77.9701 60.5414 77.4111 58.3364 76.6031 56.2554C74.6431 51.2054 71.1911 46.8964 66.7891 43.8684H91.5841C93.9841 43.8684 95.4431 46.5654 94.0831 48.5424C93.3461 49.6124 92.4291 50.5714 91.3471 51.3794C90.9181 51.7004 90.8281 52.2974 91.1241 52.7364C91.1331 52.7504 91.1351 52.7664 91.1451 52.7794C91.3411 53.0424 91.6421 53.1814 91.9471 53.1814C92.1551 53.1814 92.3651 53.1164 92.5441 52.9824C96.1561 50.2844 98.2271 46.1544 98.2271 41.6514V40.3974C98.2271 38.7404 99.5701 37.3974 101.227 37.3974H102.481C103.033 37.3974 103.481 36.9494 103.481 36.3974V31.1434C103.481 30.5904 103.033 30.1434 102.481 30.1434H96.6001C96.0481 30.1434 95.6001 29.6954 95.6001 29.1434V26.3564C95.6001 25.8044 96.0481 25.3564 96.6001 25.3564H97.4201C97.9721 25.3564 98.4201 24.9094 98.4201 24.3564C98.4201 23.8044 97.9721 23.3564 97.4201 23.3564H91.7801C91.2281 23.3564 90.7801 23.8044 90.7801 24.3564C90.7801 24.9094 91.2281 25.3564 91.7801 25.3564H92.6001C93.1521 25.3564 93.6001 25.8044 93.6001 26.3564V29.1434C93.6001 29.6954 93.1521 30.1434 92.6001 30.1434H89.3461C88.7931 30.1434 88.3461 30.5904 88.3461 31.1434V35.3974H85.4651C83.8081 35.3974 82.4651 34.0544 82.4651 32.3974V29.5164C82.4651 28.4114 81.5691 27.5164 80.4651 27.5164H76.5841C75.4791 27.5164 74.5841 26.6204 74.5841 25.5164V18.4384C74.5841 17.8864 75.0311 17.4384 75.5841 17.4384H83.0681C83.6201 17.4384 84.0681 16.9904 84.0681 16.4384C84.0681 15.8864 83.6201 15.4384 83.0681 15.4384H64.0991C63.5471 15.4384 63.0991 15.8864 63.0991 16.4384C63.0991 16.9904 63.5471 17.4384 64.0991 17.4384H71.5841C72.1361 17.4384 72.5841 17.8864 72.5841 18.4384V25.5164C72.5841 26.6204 71.6881 27.5164 70.5841 27.5164H66.7021C65.5981 27.5164 64.7021 28.4114 64.7021 29.5164V32.3974C64.7021 34.0544 63.3591 35.3974 61.7021 35.3974H58.8211V31.1434C58.8211 30.5904 58.3731 30.1434 57.8211 30.1434H54.5671C54.0151 30.1434 53.5671 29.6954 53.5671 29.1434V26.3564C53.5671 25.8044 54.0151 25.3564 54.5671 25.3564H55.3871C55.9391 25.3564 56.3871 24.9094 56.3871 24.3564C56.3871 23.8044 55.9391 23.3564 55.3871 23.3564H49.7471C49.1951 23.3564 48.7471 23.8044 48.7471 24.3564C48.7471 24.9094 49.1951 25.3564 49.7471 25.3564H50.5671C51.1191 25.3564 51.5671 25.8044 51.5671 26.3564V29.1434C51.5671 29.6954 51.1191 30.1434 50.5671 30.1434H47.3131C46.7611 30.1434 46.3131 30.5904 46.3131 31.1434V39.6514C46.3131 39.6724 46.3241 39.6904 46.3251 39.7114C34.1491 42.2004 24.9601 52.9954 24.9601 65.8954V66.7654C24.9601 67.7495 24.2401 68.5754 23.2681 68.7324C15.3251 70.0204 9.24012 76.9284 9.24012 85.2304V85.2334C9.24012 86.6194 10.3631 87.7434 11.7501 87.7434H18.0031C19.4581 87.7434 20.4151 89.2414 19.8171 90.5674C19.1261 92.1024 18.6871 93.7735 18.5521 95.5294H14.3531C10.9031 95.5294 7.52112 96.8575 5.21012 99.4184C3.06712 101.794 2.00212 104.85 2.20912 108.051C2.24412 108.587 2.67112 109.014 3.20912 109.014H8.08312C8.63512 109.014 9.08312 108.566 9.08312 108.014C9.08212 107.461 8.63512 107.014 8.08312 107.014H6.52612C5.17012 107.014 4.21412 105.696 4.61412 104.401C5.04812 102.999 5.80112 101.703 6.84612 100.595C8.76112 98.5634 11.5101 97.5294 14.3021 97.5294C14.3021 97.5294 19.3071 97.6894 19.5071 97.6894C20.0601 97.6894 20.5071 97.2424 20.5071 96.6894C20.5071 89.3194 26.6861 83.3644 34.1351 83.7324C41.1041 84.0774 46.4541 90.0894 46.4541 97.0674V98.6574C46.4541 99.2104 46.9091 99.6574 47.4631 99.6574C50.5611 99.6594 53.2281 101.539 54.3821 104.219C54.9511 105.539 53.9771 107.014 52.5401 107.014H30.8001C30.2481 107.014 29.8001 107.461 29.8001 108.014C29.8001 108.566 30.2481 109.014 30.8001 109.014H55.9931C56.5451 109.014 56.9931 108.566 56.9931 108.014ZM112.891 87.7264C113.071 87.7264 113.253 87.6784 113.417 87.5764L115.602 86.2225C116.072 85.9314 116.217 85.3144 115.926 84.8454C115.635 84.3764 115.018 84.2314 114.549 84.5214L112.363 85.8764C111.894 86.1674 111.749 86.7834 112.04 87.2534C112.229 87.5584 112.556 87.7264 112.891 87.7264ZM203.184 86.9149H192.611C192.059 86.9149 191.611 87.3629 191.611 87.9149C191.611 88.4669 192.059 88.9149 192.611 88.9149H203.184C203.736 88.9149 204.184 88.4669 204.184 87.9149C204.184 87.3629 203.736 86.9149 203.184 86.9149ZM61.2838 113.151H51.0838C50.5318 113.151 50.0838 113.599 50.0838 114.151C50.0838 114.703 50.5318 115.151 51.0838 115.151H61.2838C61.8358 115.151 62.2838 114.703 62.2838 114.151C62.2838 113.599 61.8358 113.151 61.2838 113.151ZM116.229 51.5179C115.677 51.5179 115.229 51.9659 115.229 52.5179C115.229 53.0699 115.677 53.5179 116.229 53.5179H127.462C128.014 53.5179 128.462 53.0699 128.462 52.5179C128.462 51.9659 128.014 51.5179 127.462 51.5179H116.229ZM112.407 48.4974H119.282C119.834 48.4974 120.282 48.0494 120.282 47.4974C120.282 46.9454 119.834 46.4974 119.282 46.4974H112.407C111.855 46.4974 111.407 46.9454 111.407 47.4974C111.407 48.0494 111.855 48.4974 112.407 48.4974ZM105.081 56.3978H107.336C107.889 56.3978 108.336 55.9498 108.336 55.3978C108.336 54.8458 107.889 54.3978 107.336 54.3978H105.081C104.529 54.3978 104.081 54.8458 104.081 55.3978C104.081 55.9498 104.529 56.3978 105.081 56.3978ZM134.404 33.8607H141.279C141.832 33.8607 142.279 33.4127 142.279 32.8607C142.279 32.3087 141.832 31.8607 141.279 31.8607H134.404C133.852 31.8607 133.404 32.3087 133.404 32.8607C133.404 33.4127 133.852 33.8607 134.404 33.8607ZM173.598 17.8382H204.936C205.488 17.8382 205.936 17.3902 205.936 16.8382C205.935 16.2862 205.488 15.8382 204.936 15.8382H174.847C176.24 10.8422 180.79 7.32924 186.084 7.32924C188.951 7.32924 191.709 8.38024 193.85 10.2902C194.083 10.4982 194.4 10.5862 194.705 10.5262C195.011 10.4662 195.272 10.2682 195.411 9.98924C197.556 5.67824 201.876 3.00024 206.685 3.00024C213.627 3.00024 219.274 8.64724 219.274 15.5882C219.274 15.6712 219.273 15.7552 219.271 15.8382H211.931C211.378 15.8382 210.931 16.2862 210.931 16.8382C210.931 17.3902 211.378 17.8382 211.931 17.8382H220.214C220.731 17.8382 221.163 17.4442 221.21 16.9292C221.25 16.4872 221.274 16.0402 221.274 15.5882C221.274 7.54424 214.729 1.00024 206.685 1.00024C201.528 1.00024 196.856 3.65724 194.218 8.01324C191.871 6.27524 189.027 5.32924 186.084 5.32924C179.41 5.32924 173.744 10.0982 172.613 16.6682C172.562 16.9592 172.643 17.2572 172.833 17.4832C173.023 17.7082 173.303 17.8382 173.598 17.8382Z" fill="#0E0F10"/>
</svg>
